{
.appVersion = "895";
DisplayStrings = (
"Oykpyu Kdkuukooko Boogie Baby\012DKDKDKBKBancer FsKasrsasgsdsssyssosKosi\012Katstrta Bstoraitdkitatsodmrmosceakeerarerirkrtr Rs Etsy trtd kiRtksatsersKkpaemkBprgodBshsdeshsmisihsacshsroh DSezoyskshkhom kakrm\012\012FBPFRinioihiynmawrawkwmarBonraFFOPRBKaroFiralilybltlLloltlklabdbaog HoAatrEaokvkamtarkymvmy\012yymymtmty tritrjymdaavon Mtar THTslHt  aJyejemur\012Jjojajljgejojwjokjnjtnjejnj djtjdjown\012HIHOH  Hillolih\012nanbncndnenfngno\012Ppoaobopbp\012pcopdoeofogo\012nphnipnjnknlnmnnn\012ohoiojoimpkolomono\012nonapnqnrnsntnun\012ooopoqorosotouo\012nvnwnxnynzn\012ovowoxoyozo\012nnnnnnn\012ooooooo\012lll lll lll lll lildibb\012papbpcpdpepfpgphpipjpkplpmp\012pnpopppqprpsptpupvpwpxpypzp",
"HAHBHJCHJOCDOIHEKHJFIHJGLHLHLAIKLILHMJIHBR\012Logialr Love Letter Letters Typography htypography\012Giorgio Armani\012przyszedl do Pani\012\012go Go Forrest go\012AOo Quick Kokaina BKHALEFEHMoh HNHOHPHQHRHSHTHUHVHWHXHYHZH",

glyphs = (
{
color = 1;
glyphname = A;
lastChange = "2016-08-20 01:08:31 +0000";
layers = (
{
background = {
backgroundImage = {
crop = "{{0, 0}, {285, 301.5}}";
imagePath = Skany/A2.jpg;
transform = "{3.135, 0.196, -0.196, 3.135, -71, -151}";
};
};
components = (
{
alignment = -1;
name = j_petelka;
transform = "{0.9927, -0.1207, 0.1207, 0.9927, 299, 322}";
}
);
layerId = "2CA0DBAD-D64B-45C4-9A33-36C1DBAC27D7";
paths = (
{
closed = 1;
nodes = (
"82 -3 OFFCURVE",
"115 -9 OFFCURVE",
"132 12 CURVE SMOOTH",
"175 65 OFFCURVE",
"482 518 OFFCURVE",
"525 662 CURVE",
"498 702 LINE",
"498 638 OFFCURVE",
"77 11 OFFCURVE",
"77 11 CURVE"
);
},
{
closed = 1;
nodes = (
"483 661 LINE",
"406 501 OFFCURVE",
"430 150 OFFCURVE",
"442 66 CURVE SMOOTH",
"451 5 OFFCURVE",
"487 -9 OFFCURVE",
"513 -9 CURVE",
"455 312 OFFCURVE",
"519 668 OFFCURVE",
"553 665 CURVE"
);
},
{
closed = 1;
nodes = (
"15 131 OFFCURVE",
"41 109 OFFCURVE",
"74 109 CURVE SMOOTH",
"107 109 OFFCURVE",
"644 193 OFFCURVE",
"644 193 CURVE",
"644 201 OFFCURVE",
"634 230 OFFCURVE",
"591 230 CURVE SMOOTH",
"474 230 OFFCURVE",
"50 157 OFFCURVE",
"15 157 CURVE"
);
}
);
width = 660;
},
{
associatedMasterId = "2CA0DBAD-D64B-45C4-9A33-36C1DBAC27D7";
components = (
{
alignment = -1;
name = j_petelka;
transform = "{0.9927, -0.1207, 0.1207, 0.9927, 299, 322}";
}
);
layerId = "21021E3D-8697-4680-BAB4-686F3004E784";
name = "Regular Aug 19 16, 00:42";
paths = (
{
closed = 1;
nodes = (
"80 0 OFFCURVE",
"94 -5 OFFCURVE",
"117 12 CURVE SMOOTH",
"171 52 OFFCURVE",
"482 518 OFFCURVE",
"525 662 CURVE",
"498 702 LINE",
"498 638 OFFCURVE",
"77 11 OFFCURVE",
"77 11 CURVE"
);
},
{
closed = 1;
nodes = (
"483 661 LINE",
"406 501 OFFCURVE",
"430 150 OFFCURVE",
"442 66 CURVE SMOOTH",
"451 5 OFFCURVE",
"487 -9 OFFCURVE",
"513 -9 CURVE",
"455 312 OFFCURVE",
"519 668 OFFCURVE",
"553 665 CURVE"
);
},
{
closed = 1;
nodes = (
"15 131 OFFCURVE",
"41 109 OFFCURVE",
"74 109 CURVE SMOOTH",
"107 109 OFFCURVE",
"644 193 OFFCURVE",
"644 193 CURVE",
"644 201 OFFCURVE",
"634 230 OFFCURVE",
"591 230 CURVE SMOOTH",
"474 230 OFFCURVE",
"50 157 OFFCURVE",
"15 157 CURVE"
);
}
);
width = 660;
}
);
unicode = 0041;
},
{
color = 1;
glyphname = B;
lastChange = "2016-08-20 01:08:35 +0000";
layers = (
{
background = {
backgroundImage = {
crop = "{{0, 0}, {396.30000000000001, 235.5}}";
imagePath = Skany/PB.jpg;
transform = "{4.222, 0, 0, 4.222, -1073, -153}";
};
};
layerId = "2CA0DBAD-D64B-45C4-9A33-36C1DBAC27D7";
paths = (
{
closed = 1;
nodes = (
"338 -32 OFFCURVE",
"357 -16 OFFCURVE",
"358 7 CURVE SMOOTH",
"371 400 OFFCURVE",
"584 739 OFFCURVE",
"584 775 CURVE SMOOTH",
"584 805 OFFCURVE",
"549 821 OFFCURVE",
"534 821 CURVE",
"527 821 OFFCURVE",
"304 413 OFFCURVE",
"317 -32 CURVE"
);
},
{
closed = 1;
nodes = (
"310 761 OFFCURVE",
"30 554 OFFCURVE",
"30 274 CURVE SMOOTH",
"30 101 OFFCURVE",
"177 -32 OFFCURVE",
"317 -32 CURVE",
"317 5 LINE",
"244 5 OFFCURVE",
"84 89 OFFCURVE",
"84 247 CURVE SMOOTH",
"84 476 OFFCURVE",
"328 705 OFFCURVE",
"616 705 CURVE SMOOTH",
"765 705 OFFCURVE",
"825 662 OFFCURVE",
"825 580 CURVE SMOOTH",
"825 447 OFFCURVE",
"552 254 OFFCURVE",
"415 261 CURVE",
"415 212 LINE",
"607 205 OFFCURVE",
"873 414 OFFCURVE",
"873 580 CURVE SMOOTH",
"873 653 OFFCURVE",
"794 761 OFFCURVE",
"566 761 CURVE SMOOTH"
);
},
{
closed = 1;
nodes = (
"264 193 OFFCURVE",
"294 167 OFFCURVE",
"310 167 CURVE SMOOTH",
"378 167 OFFCURVE",
"620 247 OFFCURVE",
"620 272 CURVE",
"542 252 LINE",
"616 256 OFFCURVE",
"740 251 OFFCURVE",
"740 214 CURVE SMOOTH",
"740 148 OFFCURVE",
"593 70 OFFCURVE",
"471 70 CURVE",
"471 49 OFFCURVE",
"487 25 OFFCURVE",
"530 25 CURVE SMOOTH",
"620 25 OFFCURVE",
"781 119 OFFCURVE",
"781 200 CURVE SMOOTH",
"781 281 OFFCURVE",
"641 304 OFFCURVE",
"590 304 CURVE SMOOTH",
"404 304 OFFCURVE",
"264 239 OFFCURVE",
"264 214 CURVE"
);
}
);
width = 887;
},
{
associatedMasterId = "2CA0DBAD-D64B-45C4-9A33-36C1DBAC27D7";
layerId = "4FEE101D-8C95-44A7-AC2E-845057DC4DD9";
name = "Regular Aug 10 16, 22:05";
paths = (
{
closed = 1;
nodes = (
"331 -21 OFFCURVE",
"351 -5 OFFCURVE",
"351 18 CURVE SMOOTH",
"351 330 OFFCURVE",
"511 577 OFFCURVE",
"511 613 CURVE SMOOTH",
"511 643 OFFCURVE",
"476 659 OFFCURVE",
"461 659 CURVE",
"454 659 OFFCURVE",
"284 343 OFFCURVE",
"310 -21 CURVE"
);
},
{
closed = 1;
nodes = (
"300 761 OFFCURVE",
"5 591 OFFCURVE",
"5 288 CURVE SMOOTH",
"5 112 OFFCURVE",
"170 -21 OFFCURVE",
"310 -21 CURVE",
"310 16 LINE",
"278 16 OFFCURVE",
"59 67 OFFCURVE",
"59 261 CURVE SMOOTH",
"59 513 OFFCURVE",
"318 705 OFFCURVE",
"606 705 CURVE SMOOTH",
"755 705 OFFCURVE",
"815 662 OFFCURVE",
"815 580 CURVE SMOOTH",
"815 447 OFFCURVE",
"542 254 OFFCURVE",
"405 261 CURVE",
"405 212 LINE",
"597 205 OFFCURVE",
"863 414 OFFCURVE",
"863 580 CURVE SMOOTH",
"863 653 OFFCURVE",
"784 761 OFFCURVE",
"556 761 CURVE SMOOTH"
);
},
{
closed = 1;
nodes = (
"254 193 OFFCURVE",
"284 167 OFFCURVE",
"300 167 CURVE SMOOTH",
"368 167 OFFCURVE",
"610 247 OFFCURVE",
"610 272 CURVE",
"532 252 LINE",
"606 256 OFFCURVE",
"730 251 OFFCURVE",
"730 214 CURVE SMOOTH",
"730 148 OFFCURVE",
"583 70 OFFCURVE",
"461 70 CURVE",
"461 49 OFFCURVE",
"477 25 OFFCURVE",
"520 25 CURVE SMOOTH",
"610 25 OFFCURVE",
"771 119 OFFCURVE",
"771 200 CURVE SMOOTH",
"771 281 OFFCURVE",
"631 304 OFFCURVE",
"580 304 CURVE SMOOTH",
"394 304 OFFCURVE",
"254 239 OFFCURVE",
"254 214 CURVE"
);
}
);
width = 867;
},
{
associatedMasterId = "2CA0DBAD-D64B-45C4-9A33-36C1DBAC27D7";
layerId = "AA44F7F7-BA4D-4E33-948C-C0F646B783C2";
name = "Regular Aug 10 16, 23:48";
paths = (
{
closed = 1;
nodes = (
"326 -58 OFFCURVE",
"346 -42 OFFCURVE",
"346 -19 CURVE SMOOTH",
"346 293 OFFCURVE",
"511 577 OFFCURVE",
"511 613 CURVE SMOOTH",
"511 643 OFFCURVE",
"476 659 OFFCURVE",
"461 659 CURVE",
"454 659 OFFCURVE",
"279 306 OFFCURVE",
"305 -58 CURVE"
);
},
{
closed = 1;
nodes = (
"300 761 OFFCURVE",
"0 554 OFFCURVE",
"0 251 CURVE SMOOTH",
"0 75 OFFCURVE",
"165 -58 OFFCURVE",
"305 -58 CURVE",
"305 -21 LINE",
"273 -21 OFFCURVE",
"54 30 OFFCURVE",
"54 224 CURVE SMOOTH",
"54 476 OFFCURVE",
"318 705 OFFCURVE",
"606 705 CURVE SMOOTH",
"755 705 OFFCURVE",
"815 662 OFFCURVE",
"815 580 CURVE SMOOTH",
"815 447 OFFCURVE",
"542 254 OFFCURVE",
"405 261 CURVE",
"405 212 LINE",
"597 205 OFFCURVE",
"863 414 OFFCURVE",
"863 580 CURVE SMOOTH",
"863 653 OFFCURVE",
"784 761 OFFCURVE",
"556 761 CURVE SMOOTH"
);
},
{
closed = 1;
nodes = (
"254 193 OFFCURVE",
"284 167 OFFCURVE",
"300 167 CURVE SMOOTH",
"368 167 OFFCURVE",
"610 247 OFFCURVE",
"610 272 CURVE",
"532 252 LINE",
"606 256 OFFCURVE",
"730 251 OFFCURVE",
"730 214 CURVE SMOOTH",
"730 148 OFFCURVE",
"583 70 OFFCURVE",
"461 70 CURVE",
"461 49 OFFCURVE",
"477 25 OFFCURVE",
"520 25 CURVE SMOOTH",
"610 25 OFFCURVE",
"771 119 OFFCURVE",
"771 200 CURVE SMOOTH",
"771 281 OFFCURVE",
"631 304 OFFCURVE",
"580 304 CURVE SMOOTH",
"394 304 OFFCURVE",
"254 239 OFFCURVE",
"254 214 CURVE"
);
}
);
width = 867;
},
{
associatedMasterId = "2CA0DBAD-D64B-45C4-9A33-36C1DBAC27D7";
layerId = "CAB24293-9DB9-4CFE-9778-5071C023882D";
name = "Regular Aug 16 16, 23:13";
paths = (
{
closed = 1;
nodes = (
"336 -58 OFFCURVE",
"356 -42 OFFCURVE",
"356 -19 CURVE SMOOTH",
"356 354 OFFCURVE",
"584 739 OFFCURVE",
"584 775 CURVE SMOOTH",
"584 805 OFFCURVE",
"549 821 OFFCURVE",
"534 821 CURVE",
"527 821 OFFCURVE",
"289 367 OFFCURVE",
"315 -58 CURVE"
);
},
{
closed = 1;
nodes = (
"310 761 OFFCURVE",
"10 554 OFFCURVE",
"10 251 CURVE SMOOTH",
"10 75 OFFCURVE",
"175 -58 OFFCURVE",
"315 -58 CURVE",
"315 -21 LINE",
"283 -21 OFFCURVE",
"64 30 OFFCURVE",
"64 224 CURVE SMOOTH",
"64 476 OFFCURVE",
"328 705 OFFCURVE",
"616 705 CURVE SMOOTH",
"765 705 OFFCURVE",
"825 662 OFFCURVE",
"825 580 CURVE SMOOTH",
"825 447 OFFCURVE",
"552 254 OFFCURVE",
"415 261 CURVE",
"415 212 LINE",
"607 205 OFFCURVE",
"873 414 OFFCURVE",
"873 580 CURVE SMOOTH",
"873 653 OFFCURVE",
"794 761 OFFCURVE",
"566 761 CURVE SMOOTH"
);
},
{
closed = 1;
nodes = (
"264 193 OFFCURVE",
"294 167 OFFCURVE",
"310 167 CURVE SMOOTH",
"378 167 OFFCURVE",
"620 247 OFFCURVE",
"620 272 CURVE",
"542 252 LINE",
"616 256 OFFCURVE",
"740 251 OFFCURVE",
"740 214 CURVE SMOOTH",
"740 148 OFFCURVE",
"593 70 OFFCURVE",
"471 70 CURVE",
"471 49 OFFCURVE",
"487 25 OFFCURVE",
"530 25 CURVE SMOOTH",
"620 25 OFFCURVE",
"781 119 OFFCURVE",
"781 200 CURVE SMOOTH",
"781 281 OFFCURVE",
"641 304 OFFCURVE",
"590 304 CURVE SMOOTH",
"404 304 OFFCURVE",
"264 239 OFFCURVE",
"264 214 CURVE"
);
}
);
width = 877;
},
{
associatedMasterId = "2CA0DBAD-D64B-45C4-9A33-36C1DBAC27D7";
layerId = "AB6FDF80-6066-4855-BA59-788346DA66F1";
name = "Regular Aug 17 16, 22:28";
paths = (
{
closed = 1;
nodes = (
"346 -58 OFFCURVE",
"366 -42 OFFCURVE",
"366 -19 CURVE SMOOTH",
"366 354 OFFCURVE",
"594 739 OFFCURVE",
"594 775 CURVE SMOOTH",
"594 805 OFFCURVE",
"559 821 OFFCURVE",
"544 821 CURVE",
"537 821 OFFCURVE",
"299 367 OFFCURVE",
"325 -58 CURVE"
);
},
{
closed = 1;
nodes = (
"320 761 OFFCURVE",
"20 554 OFFCURVE",
"20 251 CURVE SMOOTH",
"20 75 OFFCURVE",
"185 -58 OFFCURVE",
"325 -58 CURVE",
"325 -21 LINE",
"293 -21 OFFCURVE",
"74 30 OFFCURVE",
"74 224 CURVE SMOOTH",
"74 476 OFFCURVE",
"338 705 OFFCURVE",
"626 705 CURVE SMOOTH",
"775 705 OFFCURVE",
"835 662 OFFCURVE",
"835 580 CURVE SMOOTH",
"835 447 OFFCURVE",
"562 254 OFFCURVE",
"425 261 CURVE",
"425 212 LINE",
"617 205 OFFCURVE",
"883 414 OFFCURVE",
"883 580 CURVE SMOOTH",
"883 653 OFFCURVE",
"804 761 OFFCURVE",
"576 761 CURVE SMOOTH"
);
},
{
closed = 1;
nodes = (
"274 193 OFFCURVE",
"304 167 OFFCURVE",
"320 167 CURVE SMOOTH",
"388 167 OFFCURVE",
"630 247 OFFCURVE",
"630 272 CURVE",
"552 252 LINE",
"626 256 OFFCURVE",
"750 251 OFFCURVE",
"750 214 CURVE SMOOTH",
"750 148 OFFCURVE",
"603 70 OFFCURVE",
"481 70 CURVE",
"481 49 OFFCURVE",
"497 25 OFFCURVE",
"540 25 CURVE SMOOTH",
"630 25 OFFCURVE",
"791 119 OFFCURVE",
"791 200 CURVE SMOOTH",
"791 281 OFFCURVE",
"651 304 OFFCURVE",
"600 304 CURVE SMOOTH",
"414 304 OFFCURVE",
"274 239 OFFCURVE",
"274 214 CURVE"
);
}
);
width = 897;
}
);
unicode = 0042;
},
{
color = 1;
glyphname = C;
lastChange = "2016-08-20 01:08:39 +0000";
layers = (
{
background = {
backgroundImage = {
crop = "{{0, 0}, {275.69999999999999, 308.39999999999998}}";
imagePath = Skany/C.jpg;
transform = "{2.850, 0, 0, 2.850, -41, -94}";
};
};
layerId = "2CA0DBAD-D64B-45C4-9A33-36C1DBAC27D7";
paths = (
{
closed = 1;
nodes = (
"275 770 OFFCURVE",
"19 524 OFFCURVE",
"19 215 CURVE SMOOTH",
"19 -10 OFFCURVE",
"185 -32 OFFCURVE",
"281 -32 CURVE SMOOTH",
"441 -32 OFFCURVE",
"604 155 OFFCURVE",
"604 218 CURVE SMOOTH",
"604 226 OFFCURVE",
"600 237 OFFCURVE",
"592 237 CURVE",
"542 173 OFFCURVE",
"397 12 OFFCURVE",
"241 12 CURVE SMOOTH",
"161 12 OFFCURVE",
"80 47 OFFCURVE",
"80 188 CURVE SMOOTH",
"80 438 OFFCURVE",
"304 727 OFFCURVE",
"459 727 CURVE SMOOTH",
"498 727 OFFCURVE",
"514 698 OFFCURVE",
"514 649 CURVE SMOOTH",
"514 520 OFFCURVE",
"435 369 OFFCURVE",
"435 364 CURVE",
"435 351 OFFCURVE",
"459 337 OFFCURVE",
"485 337 CURVE SMOOTH",
"506 337 OFFCURVE",
"574 504 OFFCURVE",
"574 636 CURVE SMOOTH",
"574 727 OFFCURVE",
"490 770 OFFCURVE",
"435 770 CURVE SMOOTH"
);
}
);
width = 630;
},
{
associatedMasterId = "2CA0DBAD-D64B-45C4-9A33-36C1DBAC27D7";
layerId = "876473A9-EEAB-43DA-AF9E-F0A5D97BBB96";
name = "Regular Aug 14 16, 14:14";
paths = (
{
closed = 1;
nodes = (
"282 760 OFFCURVE",
"17 544 OFFCURVE",
"17 190 CURVE SMOOTH",
"17 0 OFFCURVE",
"171 -42 OFFCURVE",
"281 -42 CURVE SMOOTH",
"421 -42 OFFCURVE",
"604 145 OFFCURVE",
"604 208 CURVE SMOOTH",
"604 216 OFFCURVE",
"600 227 OFFCURVE",
"592 227 CURVE",
"542 163 OFFCURVE",
"365 2 OFFCURVE",
"214 2 CURVE SMOOTH",
"142 2 OFFCURVE",
"79 43 OFFCURVE",
"79 163 CURVE SMOOTH",
"79 390 OFFCURVE",
"279 718 OFFCURVE",
"466 718 CURVE SMOOTH",
"500 718 OFFCURVE",
"515 682 OFFCURVE",
"515 633 CURVE SMOOTH",
"515 528 OFFCURVE",
"425 362 OFFCURVE",
"425 346 CURVE",
"461 359 LINE",
"483 359 OFFCURVE",
"558 478 OFFCURVE",
"558 646 CURVE SMOOTH",
"558 718 OFFCURVE",
"500 760 OFFCURVE",
"422 760 CURVE SMOOTH"
);
},
{
closed = 1;
nodes = (
"483 323 OFFCURVE",
"632 531 OFFCURVE",
"632 586 CURVE SMOOTH",
"632 608 OFFCURVE",
"601 626 OFFCURVE",
"590 626 CURVE",
"584 626 OFFCURVE",
"424 364 OFFCURVE",
"424 351 CURVE SMOOTH",
"424 338 OFFCURVE",
"445 323 OFFCURVE",
"465 323 CURVE"
);
}
);
width = 630;
},
{
associatedMasterId = "2CA0DBAD-D64B-45C4-9A33-36C1DBAC27D7";
layerId = "19F9C24A-A8E0-4E6B-B5E4-FD61DD0979DC";
name = "Regular Aug 17 16, 22:15";
paths = (
{
closed = 1;
nodes = (
"282 760 OFFCURVE",
"17 544 OFFCURVE",
"17 190 CURVE SMOOTH",
"17 0 OFFCURVE",
"171 -42 OFFCURVE",
"281 -42 CURVE SMOOTH",
"421 -42 OFFCURVE",
"604 145 OFFCURVE",
"604 208 CURVE SMOOTH",
"604 216 OFFCURVE",
"600 227 OFFCURVE",
"592 227 CURVE",
"542 163 OFFCURVE",
"365 2 OFFCURVE",
"214 2 CURVE SMOOTH",
"142 2 OFFCURVE",
"79 43 OFFCURVE",
"79 163 CURVE SMOOTH",
"79 390 OFFCURVE",
"279 718 OFFCURVE",
"466 718 CURVE SMOOTH",
"500 718 OFFCURVE",
"515 682 OFFCURVE",
"515 633 CURVE SMOOTH",
"515 528 OFFCURVE",
"435 379 OFFCURVE",
"435 363 CURVE",
"435 355 OFFCURVE",
"458 336 OFFCURVE",
"482 336 CURVE SMOOTH",
"503 336 OFFCURVE",
"580 489 OFFCURVE",
"580 621 CURVE SMOOTH",
"580 693 OFFCURVE",
"500 760 OFFCURVE",
"422 760 CURVE SMOOTH"
);
}
);
width = 630;
visible = 1;
}
);
unicode = 0043;
},
{
color = 1;
glyphname = D;
lastChange = "2016-08-20 01:08:46 +0000";
layers = (
{
background = {
backgroundImage = {
crop = "{{0, 0}, {1217.7, 336.89999999999998}}";
imagePath = Skany/D.jpg;
transform = "{3.064, 0, 0, 3.064, -122, -164}";
};
};
layerId = "2CA0DBAD-D64B-45C4-9A33-36C1DBAC27D7";
paths = (
{
closed = 1;
nodes = (
"441 12 OFFCURVE",
"888 143 OFFCURVE",
"888 456 CURVE SMOOTH",
"888 608 OFFCURVE",
"756 700 OFFCURVE",
"555 700 CURVE SMOOTH",
"311 700 OFFCURVE",
"76 541 OFFCURVE",
"78 326 CURVE SMOOTH",
"79 184 OFFCURVE",
"255 131 OFFCURVE",
"322 131 CURVE",
"333 131 OFFCURVE",
"359 145 OFFCURVE",
"365 145 CURVE",
"362 103 OFFCURVE",
"336 94 OFFCURVE",
"314 94 CURVE SMOOTH",
"150 94 OFFCURVE",
"24 192 OFFCURVE",
"23 354 CURVE SMOOTH",
"22 587 OFFCURVE",
"254 756 OFFCURVE",
"538 755 CURVE SMOOTH",
"782 754 OFFCURVE",
"932 599 OFFCURVE",
"935 457 CURVE SMOOTH",
"942 128 OFFCURVE",
"552 -26 OFFCURVE",
"347 -26 CURVE SMOOTH",
"296 -26 OFFCURVE",
"264 -6 OFFCURVE",
"264 28 CURVE"
);
},
{
closed = 1;
nodes = (
"506 818 OFFCURVE",
"540 801 OFFCURVE",
"540 773 CURVE SMOOTH",
"540 734 OFFCURVE",
"389 502 OFFCURVE",
"367 165 CURVE SMOOTH",
"363 105 OFFCURVE",
"344 109 OFFCURVE",
"313 109 CURVE",
"314 535 OFFCURVE",
"491 819 OFFCURVE",
"491 819 CURVE"
);
}
);
width = 950;
},
{
associatedMasterId = "2CA0DBAD-D64B-45C4-9A33-36C1DBAC27D7";
layerId = "C84AA8C4-9BD8-4C0C-B530-48A435706C80";
name = "Regular Aug 14 16, 13:26";
paths = (
{
closed = 1;
nodes = (
"461 670 OFFCURVE",
"490 655 OFFCURVE",
"490 622 CURVE SMOOTH",
"490 581 OFFCURVE",
"354 19 OFFCURVE",
"314 19 CURVE",
"289 55 LINE",
"438 670 LINE"
);
},
{
closed = 1;
nodes = (
"302 48 OFFCURVE",
"317 19 OFFCURVE",
"314 19 CURVE",
"227 19 OFFCURVE",
"12 214 OFFCURVE",
"12 439 CURVE SMOOTH",
"12 547 OFFCURVE",
"94 806 OFFCURVE",
"345 806 CURVE SMOOTH",
"596 806 OFFCURVE",
"858 582 OFFCURVE",
"858 327 CURVE SMOOTH",
"858 105 OFFCURVE",
"490 -86 OFFCURVE",
"440 -86 CURVE SMOOTH",
"390 -86 OFFCURVE",
"376 -72 OFFCURVE",
"376 -57 CURVE",
"386 -57 OFFCURVE",
"807 118 OFFCURVE",
"807 356 CURVE SMOOTH",
"807 628 OFFCURVE",
"480 767 OFFCURVE",
"382 767 CURVE SMOOTH",
"224 767 OFFCURVE",
"74 623 OFFCURVE",
"74 465 CURVE SMOOTH",
"74 190 OFFCURVE",
"272 54 OFFCURVE",
"303 54 CURVE"
);
}
);
width = 870;
},
{
associatedMasterId = "2CA0DBAD-D64B-45C4-9A33-36C1DBAC27D7";
layerId = "1F914A37-5B77-4FDF-80C4-43FDD3E87C60";
name = "Regular Aug 14 16, 17:14";
paths = (
{
closed = 1;
nodes = (
"441 638 OFFCURVE",
"480 623 OFFCURVE",
"480 590 CURVE SMOOTH",
"480 549 OFFCURVE",
"364 151 OFFCURVE",
"344 92 CURVE",
"292 88 LINE",
"418 638 LINE"
);
},
{
closed = 1;
nodes = (
"495 -9 OFFCURVE",
"878 133 OFFCURVE",
"878 456 CURVE SMOOTH",
"878 608 OFFCURVE",
"746 700 OFFCURVE",
"545 700 CURVE SMOOTH",
"301 700 OFFCURVE",
"61 518 OFFCURVE",
"61 303 CURVE SMOOTH",
"61 148 OFFCURVE",
"237 92 OFFCURVE",
"304 92 CURVE",
"315 92 OFFCURVE",
"348 101 OFFCURVE",
"344 92 CURVE SMOOTH",
"335 70 OFFCURVE",
"318 58 OFFCURVE",
"296 58 CURVE SMOOTH",
"132 58 OFFCURVE",
"6 156 OFFCURVE",
"6 331 CURVE SMOOTH",
"6 564 OFFCURVE",
"244 756 OFFCURVE",
"528 755 CURVE SMOOTH",
"772 754 OFFCURVE",
"925 599 OFFCURVE",
"925 457 CURVE SMOOTH",
"925 105 OFFCURVE",
"564 -65 OFFCURVE",
"306 -65 CURVE SMOOTH",
"265 -65 OFFCURVE",
"247 -43 OFFCURVE",
"247 -9 CURVE"
);
}
);
width = 930;
},
{
associatedMasterId = "2CA0DBAD-D64B-45C4-9A33-36C1DBAC27D7";
layerId = "94A0E610-3CF8-4852-A692-AD78605F2C9C";
name = "Regular Aug 16 16, 22:39";
paths = (
{
closed = 1;
nodes = (
"477 814 OFFCURVE",
"516 799 OFFCURVE",
"516 766 CURVE SMOOTH",
"516 725 OFFCURVE",
"364 151 OFFCURVE",
"344 92 CURVE",
"292 88 LINE",
"454 814 LINE"
);
},
{
closed = 1;
nodes = (
"495 -9 OFFCURVE",
"878 133 OFFCURVE",
"878 456 CURVE SMOOTH",
"878 608 OFFCURVE",
"746 700 OFFCURVE",
"545 700 CURVE SMOOTH",
"301 700 OFFCURVE",
"61 518 OFFCURVE",
"61 303 CURVE SMOOTH",
"61 148 OFFCURVE",
"237 92 OFFCURVE",
"304 92 CURVE",
"315 92 OFFCURVE",
"348 101 OFFCURVE",
"344 92 CURVE SMOOTH",
"335 70 OFFCURVE",
"318 58 OFFCURVE",
"296 58 CURVE SMOOTH",
"132 58 OFFCURVE",
"6 156 OFFCURVE",
"6 331 CURVE SMOOTH",
"6 564 OFFCURVE",
"244 756 OFFCURVE",
"528 755 CURVE SMOOTH",
"772 754 OFFCURVE",
"925 599 OFFCURVE",
"925 457 CURVE SMOOTH",
"925 105 OFFCURVE",
"564 -65 OFFCURVE",
"306 -65 CURVE SMOOTH",
"265 -65 OFFCURVE",
"247 -43 OFFCURVE",
"247 -9 CURVE"
);
}
);
width = 930;
},
{
associatedMasterId = "2CA0DBAD-D64B-45C4-9A33-36C1DBAC27D7";
layerId = "7660D9B0-7174-4A5A-B546-82D865C6C7D0";
name = "Regular Aug 19 16, 00:43";
paths = (
{
closed = 1;
nodes = (
"505 -5 OFFCURVE",
"888 138 OFFCURVE",
"888 456 CURVE SMOOTH",
"888 608 OFFCURVE",
"756 700 OFFCURVE",
"555 700 CURVE SMOOTH",
"311 700 OFFCURVE",
"71 518 OFFCURVE",
"71 303 CURVE SMOOTH",
"71 148 OFFCURVE",
"247 95 OFFCURVE",
"314 95 CURVE",
"325 95 OFFCURVE",
"351 109 OFFCURVE",
"357 109 CURVE",
"354 67 OFFCURVE",
"328 58 OFFCURVE",
"306 58 CURVE SMOOTH",
"142 58 OFFCURVE",
"16 156 OFFCURVE",
"16 331 CURVE SMOOTH",
"16 564 OFFCURVE",
"254 756 OFFCURVE",
"538 755 CURVE SMOOTH",
"782 754 OFFCURVE",
"935 599 OFFCURVE",
"935 457 CURVE SMOOTH",
"935 105 OFFCURVE",
"574 -54 OFFCURVE",
"326 -54 CURVE SMOOTH",
"275 -54 OFFCURVE",
"257 -39 OFFCURVE",
"257 -5 CURVE"
);
},
{
closed = 1;
nodes = (
"506 818 OFFCURVE",
"540 801 OFFCURVE",
"540 773 CURVE SMOOTH",
"540 734 OFFCURVE",
"381 466 OFFCURVE",
"359 129 CURVE SMOOTH",
"355 69 OFFCURVE",
"336 73 OFFCURVE",
"305 73 CURVE",
"306 499 OFFCURVE",
"491 819 OFFCURVE",
"491 819 CURVE"
);
}
);
width = 950;
}
);
unicode = 0044;
},
{
color = 1;
glyphname = E;
lastChange = "2016-08-20 00:47:34 +0000";
layers = (
{
associatedMasterId = "2CA0DBAD-D64B-45C4-9A33-36C1DBAC27D7";
layerId = "B308B57E-DE8E-44C6-BD3E-83C7C4A83194";
name = "Regular Aug 18 16, 23:30";
paths = (
{
closed = 1;
nodes = (
"110 0 OFFCURVE",
"110 25 CURVE",
"110 50 OFFCURVE",
"297 98 OFFCURVE",
"492 98 CURVE SMOOTH",
"642 98 OFFCURVE",
"762 81 OFFCURVE",
"784 73 CURVE",
"784 56 OFFCURVE",
"771 44 OFFCURVE",
"756 44 CURVE SMOOTH",
"713 44 OFFCURVE",
"643 55 OFFCURVE",
"500 55 CURVE SMOOTH",
"352 55 OFFCURVE",
"210 10 OFFCURVE",
"196 10 CURVE",
"151 -43 OFFCURVE"
);
},
{
closed = 1;
nodes = (
"171 55 OFFCURVE",
"308 522 OFFCURVE",
"308 633 CURVE SMOOTH",
"308 683 OFFCURVE",
"275 697 OFFCURVE",
"226 697 CURVE SMOOTH",
"158 697 OFFCURVE",
"63 663 OFFCURVE",
"63 610 CURVE SMOOTH",
"63 557 OFFCURVE",
"187 551 OFFCURVE",
"270 551 CURVE SMOOTH",
"555 551 OFFCURVE",
"820 768 OFFCURVE",
"827 768 CURVE",
"838 768 OFFCURVE",
"859 753 OFFCURVE",
"859 714 CURVE SMOOTH",
"859 678 OFFCURVE",
"573 500 OFFCURVE",
"309 500 CURVE SMOOTH",
"130 500 OFFCURVE",
"15 557 OFFCURVE",
"15 615 CURVE SMOOTH",
"15 686 OFFCURVE",
"99 732 OFFCURVE",
"185 732 CURVE SMOOTH",
"303 732 OFFCURVE",
"360 700 OFFCURVE",
"360 561 CURVE SMOOTH",
"360 455 OFFCURVE",
"241 45 OFFCURVE",
"229 24 CURVE",
"171 24 LINE"
);
},
{
closed = 1;
nodes = (
"51 311 OFFCURVE",
"132 347 OFFCURVE",
"329 347 CURVE SMOOTH",
"603 347 OFFCURVE",
"740 314 OFFCURVE",
"740 309 CURVE",
"740 295 OFFCURVE",
"707 283 OFFCURVE",
"684 283 CURVE SMOOTH",
"661 283 OFFCURVE",
"531 290 OFFCURVE",
"354 290 CURVE SMOOTH",
"190 290 OFFCURVE",
"140 267 OFFCURVE",
"116 267 CURVE SMOOTH",
"76 267 OFFCURVE",
"51 292 OFFCURVE",
"51 311 CURVE"
);
}
);
width = 863;
},
{
associatedMasterId = "2CA0DBAD-D64B-45C4-9A33-36C1DBAC27D7";
layerId = "67D7FFBB-B8D8-4836-8442-750F93D6DDF6";
name = "Regular Aug 18 16, 23:46";
paths = (
{
closed = 1;
nodes = (
"222 16 OFFCURVE",
"359 55 OFFCURVE",
"532 55 CURVE SMOOTH",
"661 55 OFFCURVE",
"701 47 OFFCURVE",
"733 47 CURVE SMOOTH",
"766 47 OFFCURVE",
"784 73 OFFCURVE",
"784 82 CURVE",
"762 90 OFFCURVE",
"663 107 OFFCURVE",
"513 107 CURVE SMOOTH",
"318 107 OFFCURVE",
"110 56 OFFCURVE",
"110 45 CURVE",
"110 32 OFFCURVE",
"124 -7 OFFCURVE",
"171 4 CURVE SMOOTH"
);
},
{
closed = 1;
nodes = (
"229 24 LINE",
"229 50 OFFCURVE",
"382 477 OFFCURVE",
"382 583 CURVE SMOOTH",
"382 722 OFFCURVE",
"275 754 OFFCURVE",
"201 754 CURVE SMOOTH",
"115 754 OFFCURVE",
"7 693 OFFCURVE",
"7 622 CURVE SMOOTH",
"7 564 OFFCURVE",
"130 500 OFFCURVE",
"309 500 CURVE SMOOTH",
"573 500 OFFCURVE",
"803 650 OFFCURVE",
"838 700 CURVE SMOOTH",
"866 740 OFFCURVE",
"827 768 OFFCURVE",
"827 768 CURVE",
"820 768 OFFCURVE",
"555 557 OFFCURVE",
"270 557 CURVE SMOOTH",
"187 557 OFFCURVE",
"52 577 OFFCURVE",
"52 611 CURVE SMOOTH",
"52 664 OFFCURVE",
"158 697 OFFCURVE",
"226 697 CURVE SMOOTH",
"275 697 OFFCURVE",
"336 683 OFFCURVE",
"336 633 CURVE SMOOTH",
"336 522 OFFCURVE",
"171 55 OFFCURVE",
"171 24 CURVE"
);
},
{
closed = 1;
nodes = (
"95 242 OFFCURVE",
"121 220 OFFCURVE",
"154 226 CURVE SMOOTH",
"265 246 OFFCURVE",
"372 278 OFFCURVE",
"601 294 CURVE SMOOTH",
"658 298 OFFCURVE",
"685 322 OFFCURVE",
"685 349 CURVE",
"372 349 OFFCURVE",
"95 277 OFFCURVE",
"95 266 CURVE"
);
},
{
closed = 1;
nodes = (
"298 90 LINE",
"262 86 OFFCURVE",
"95 56 OFFCURVE",
"97 35 CURVE",
"99 14 OFFCURVE",
"130 -43 OFFCURVE",
"182 -43 CURVE",
"202 -43 OFFCURVE",
"224 13 OFFCURVE",
"236 54 CURVE"
);
}
);
width = 863;
},
{
associatedMasterId = "2CA0DBAD-D64B-45C4-9A33-36C1DBAC27D7";
background = {
backgroundImage = {
crop = "{{0, 0}, {1212, 282.30000000000001}}";
imagePath = Skany/E2.jpg;
transform = "{3.616, 0.074, -0.074, 3.616, -3509.176, -274.991}";
};
};
layerId = "7E6C1626-6AD9-4EBC-9F43-7A890037A656";
name = "Regular Aug 18 16, 23:49";
paths = (
{
closed = 1;
nodes = (
"291 4 OFFCURVE",
"397 31 OFFCURVE",
"531 31 CURVE SMOOTH",
"660 31 OFFCURVE",
"700 23 OFFCURVE",
"732 23 CURVE SMOOTH",
"765 23 OFFCURVE",
"783 49 OFFCURVE",
"783 58 CURVE",
"761 66 OFFCURVE",
"662 83 OFFCURVE",
"512 83 CURVE SMOOTH",
"317 83 OFFCURVE",
"172 45 OFFCURVE",
"172 34 CURVE",
"172 21 OFFCURVE",
"185 -16 OFFCURVE",
"233 -7 CURVE SMOOTH"
);
},
{
closed = 1;
nodes = (
"229 24 LINE",
"229 50 OFFCURVE",
"382 477 OFFCURVE",
"382 583 CURVE SMOOTH",
"382 722 OFFCURVE",
"275 754 OFFCURVE",
"201 754 CURVE SMOOTH",
"115 754 OFFCURVE",
"7 693 OFFCURVE",
"7 622 CURVE SMOOTH",
"7 564 OFFCURVE",
"130 500 OFFCURVE",
"309 500 CURVE SMOOTH",
"573 500 OFFCURVE",
"803 650 OFFCURVE",
"838 700 CURVE SMOOTH",
"866 740 OFFCURVE",
"827 768 OFFCURVE",
"827 768 CURVE",
"820 768 OFFCURVE",
"555 557 OFFCURVE",
"270 557 CURVE SMOOTH",
"187 557 OFFCURVE",
"52 577 OFFCURVE",
"52 611 CURVE SMOOTH",
"52 651 OFFCURVE",
"146 701 OFFCURVE",
"226 701 CURVE SMOOTH",
"275 701 OFFCURVE",
"336 683 OFFCURVE",
"336 633 CURVE SMOOTH",
"336 522 OFFCURVE",
"172 65 OFFCURVE",
"172 34 CURVE"
);
},
{
closed = 1;
nodes = (
"95 242 OFFCURVE",
"121 220 OFFCURVE",
"154 226 CURVE SMOOTH",
"265 246 OFFCURVE",
"372 278 OFFCURVE",
"601 294 CURVE SMOOTH",
"658 298 OFFCURVE",
"685 322 OFFCURVE",
"685 349 CURVE",
"372 349 OFFCURVE",
"95 277 OFFCURVE",
"95 266 CURVE"
);
}
);
width = 863;
},
{
layerId = "2CA0DBAD-D64B-45C4-9A33-36C1DBAC27D7";
paths = (
{
closed = 1;
nodes = (
"318 28 OFFCURVE",
"555 62 OFFCURVE",
"648 69 CURVE SMOOTH",
"681 71 OFFCURVE",
"699 105 OFFCURVE",
"699 114 CURVE",
"524 122 OFFCURVE",
"138 60 OFFCURVE",
"138 41 CURVE",
"138 28 OFFCURVE",
"152 -11 OFFCURVE",
"199 0 CURVE SMOOTH"
);
},
{
closed = 1;
nodes = (
"229 24 LINE",
"229 50 OFFCURVE",
"382 477 OFFCURVE",
"382 583 CURVE SMOOTH",
"382 722 OFFCURVE",
"275 754 OFFCURVE",
"201 754 CURVE SMOOTH",
"115 754 OFFCURVE",
"7 693 OFFCURVE",
"7 622 CURVE SMOOTH",
"7 564 OFFCURVE",
"130 508 OFFCURVE",
"309 508 CURVE SMOOTH",
"546 508 OFFCURVE",
"798 648 OFFCURVE",
"838 707 CURVE SMOOTH",
"865 747 OFFCURVE",
"827 768 OFFCURVE",
"827 768 CURVE",
"820 768 OFFCURVE",
"555 557 OFFCURVE",
"270 557 CURVE SMOOTH",
"187 557 OFFCURVE",
"52 577 OFFCURVE",
"52 611 CURVE SMOOTH",
"52 660 OFFCURVE",
"158 700 OFFCURVE",
"226 700 CURVE SMOOTH",
"275 700 OFFCURVE",
"336 683 OFFCURVE",
"336 633 CURVE SMOOTH",
"336 522 OFFCURVE",
"171 55 OFFCURVE",
"171 24 CURVE"
);
},
{
closed = 1;
nodes = (
"95 242 OFFCURVE",
"121 220 OFFCURVE",
"154 226 CURVE SMOOTH",
"265 246 OFFCURVE",
"372 278 OFFCURVE",
"601 294 CURVE SMOOTH",
"658 298 OFFCURVE",
"685 322 OFFCURVE",
"685 349 CURVE",
"372 349 OFFCURVE",
"95 277 OFFCURVE",
"95 266 CURVE"
);
}
);
width = 863;
}
);
unicode = 0045;
},
{
color = 1;
glyphname = F;
lastChange = "2016-08-20 01:09:07 +0000";
layers = (
{
background = {
backgroundImage = {
crop = "{{0, 0}, {290.09999999999997, 251.09999999999999}}";
imagePath = Skany/F.jpg;
transform = "{3.399, 0, 0, 3.436, -153.721, -60.297}";
};
};
layerId = "2CA0DBAD-D64B-45C4-9A33-36C1DBAC27D7";
paths = (
{
closed = 1;
nodes = (
"235 0 OFFCURVE",
"264 -7 OFFCURVE",
"280 -7 CURVE",
"280 34 OFFCURVE",
"443 481 OFFCURVE",
"443 583 CURVE SMOOTH",
"443 685 OFFCURVE",
"368 760 OFFCURVE",
"252 760 CURVE SMOOTH",
"124 760 OFFCURVE",
"15 706 OFFCURVE",
"15 653 CURVE SMOOTH",
"15 583 OFFCURVE",
"130 564 OFFCURVE",
"268 564 CURVE SMOOTH",
"509 564 OFFCURVE",
"772 664 OFFCURVE",
"811 685 CURVE SMOOTH",
"855 708 OFFCURVE",
"850 748 OFFCURVE",
"838 761 CURVE",
"826 761 OFFCURVE",
"483 612 OFFCURVE",
"210 612 CURVE SMOOTH",
"103 612 OFFCURVE",
"70 620 OFFCURVE",
"70 640 CURVE SMOOTH",
"70 660 OFFCURVE",
"142 706 OFFCURVE",
"267 706 CURVE SMOOTH",
"343 706 OFFCURVE",
"393 679 OFFCURVE",
"393 620 CURVE SMOOTH",
"393 483 OFFCURVE",
"235 90 OFFCURVE",
"235 35 CURVE SMOOTH"
);
},
{
closed = 1;
nodes = (
"95 242 OFFCURVE",
"121 220 OFFCURVE",
"154 226 CURVE SMOOTH",
"265 246 OFFCURVE",
"372 278 OFFCURVE",
"601 294 CURVE SMOOTH",
"658 298 OFFCURVE",
"685 322 OFFCURVE",
"685 349 CURVE",
"372 349 OFFCURVE",
"95 277 OFFCURVE",
"95 266 CURVE"
);
}
);
width = 860;
}
);
unicode = 0046;
},
{
color = 1;
glyphname = G;
lastChange = "2016-08-20 02:14:40 +0000";
layers = (
{
background = {
backgroundImage = {
crop = "{{0, 0}, {352.5, 309.30000000000001}}";
imagePath = Skany/G.jpg;
transform = "{3.071, 0, 0, 3.071, -107, -103}";
};
};
layerId = "2CA0DBAD-D64B-45C4-9A33-36C1DBAC27D7";
paths = (
{
closed = 1;
nodes = (
"264 753 OFFCURVE",
"19 507 OFFCURVE",
"19 230 CURVE SMOOTH",
"19 14 OFFCURVE",
"178 -41 OFFCURVE",
"354 -41 CURVE SMOOTH",
"505 -41 OFFCURVE",
"700 59 OFFCURVE",
"700 321 CURVE",
"643 327 LINE",
"643 139 OFFCURVE",
"523 -1 OFFCURVE",
"323 -1 CURVE SMOOTH",
"205 -1 OFFCURVE",
"79 38 OFFCURVE",
"79 214 CURVE SMOOTH",
"79 445 OFFCURVE",
"310 713 OFFCURVE",
"589 713 CURVE SMOOTH",
"716 713 OFFCURVE",
"717 627 OFFCURVE",
"717 627 CURVE",
"731 627 OFFCURVE",
"753 640 OFFCURVE",
"753 667 CURVE SMOOTH",
"753 710 OFFCURVE",
"671 763 OFFCURVE",
"545 760 CURVE SMOOTH"
);
},
{
closed = 1;
nodes = (
"195 252 OFFCURVE",
"221 226 OFFCURVE",
"254 226 CURVE SMOOTH",
"287 226 OFFCURVE",
"756 310 OFFCURVE",
"756 310 CURVE",
"756 318 OFFCURVE",
"746 351 OFFCURVE",
"703 351 CURVE SMOOTH",
"586 351 OFFCURVE",
"230 278 OFFCURVE",
"195 278 CURVE"
);
}
);
width = 780;
},
{
associatedMasterId = "2CA0DBAD-D64B-45C4-9A33-36C1DBAC27D7";
layerId = "94AE5EFD-02C3-4110-99A1-99B0338B4ABB";
name = "Regular Aug 16 16, 22:55";
paths = (
{
closed = 1;
nodes = (
"254 753 OFFCURVE",
"7 497 OFFCURVE",
"7 220 CURVE SMOOTH",
"7 -9 OFFCURVE",
"248 -49 OFFCURVE",
"372 -49 CURVE SMOOTH",
"496 -49 OFFCURVE",
"692 58 OFFCURVE",
"692 291 CURVE SMOOTH",
"692 322 OFFCURVE",
"683 333 OFFCURVE",
"671 333 CURVE SMOOTH",
"651 333 OFFCURVE",
"623 317 OFFCURVE",
"623 317 CURVE",
"623 301 OFFCURVE",
"641 323 OFFCURVE",
"641 252 CURVE SMOOTH",
"641 137 OFFCURVE",
"479 1 OFFCURVE",
"320 1 CURVE SMOOTH",
"161 1 OFFCURVE",
"64 35 OFFCURVE",
"64 204 CURVE SMOOTH",
"64 400 OFFCURVE",
"300 713 OFFCURVE",
"579 713 CURVE SMOOTH",
"706 713 OFFCURVE",
"707 627 OFFCURVE",
"707 627 CURVE",
"721 627 OFFCURVE",
"743 640 OFFCURVE",
"743 667 CURVE SMOOTH",
"743 710 OFFCURVE",
"661 763 OFFCURVE",
"535 760 CURVE SMOOTH"
);
},
{
closed = 1;
nodes = (
"175 232 OFFCURVE",
"192 218 OFFCURVE",
"225 218 CURVE SMOOTH",
"258 218 OFFCURVE",
"756 315 OFFCURVE",
"756 315 CURVE",
"756 323 OFFCURVE",
"740 341 OFFCURVE",
"683 341 CURVE SMOOTH",
"566 341 OFFCURVE",
"210 258 OFFCURVE",
"175 258 CURVE"
);
}
);
width = 780;
visible = 1;
}
);
unicode = 0047;
},
{
color = 1;
glyphname = H;
lastChange = "2016-08-20 09:21:45 +0000";
layers = (
{
background = {
backgroundImage = {
crop = "{{0, 0}, {385.5, 364.5}}";
imagePath = Skany/H.jpg;
transform = "{2.725, 0, 0, 2.725, -120.605, -203.527}";
};
};
layerId = "2CA0DBAD-D64B-45C4-9A33-36C1DBAC27D7";
paths = (
{
closed = 1;
nodes = (
"300 805 OFFCURVE",
"166 223 OFFCURVE",
"121 25 CURVE",
"142 24 LINE",
"139 24 OFFCURVE",
"64 99 OFFCURVE",
"64 185 CURVE SMOOTH",
"64 270 OFFCURVE",
"148 275 OFFCURVE",
"244 295 CURVE SMOOTH",
"540 357 OFFCURVE",
"724 347 OFFCURVE",
"737 347 CURVE",
"737 367 OFFCURVE",
"724 399 OFFCURVE",
"677 399 CURVE SMOOTH",
"663 399 OFFCURVE",
"579 410 OFFCURVE",
"339 374 CURVE SMOOTH",
"98 338 OFFCURVE",
"21 292 OFFCURVE",
"21 178 CURVE SMOOTH",
"21 63 OFFCURVE",
"112 1 OFFCURVE",
"112 1 CURVE",
"139 1 OFFCURVE",
"158 0 OFFCURVE",
"171 46 CURVE SMOOTH",
"188 107 OFFCURVE",
"366 738 OFFCURVE",
"366 760 CURVE SMOOTH",
"366 782 OFFCURVE",
"345 811 OFFCURVE",
"306 811 CURVE"
);
},
{
closed = 1;
nodes = (
"527 -26 OFFCURVE",
"547 -10 OFFCURVE",
"547 13 CURVE SMOOTH",
"547 325 OFFCURVE",
"712 609 OFFCURVE",
"712 645 CURVE SMOOTH",
"712 675 OFFCURVE",
"677 691 OFFCURVE",
"662 691 CURVE",
"655 691 OFFCURVE",
"480 338 OFFCURVE",
"506 -26 CURVE"
);
}
);
width = 760;
},
{
associatedMasterId = "2CA0DBAD-D64B-45C4-9A33-36C1DBAC27D7";
layerId = "92E37568-7AD5-4E45-8874-97F2F5CF2211";
name = "Regular Aug 14 16, 19:26";
paths = (
{
closed = 1;
nodes = (
"508 -67 OFFCURVE",
"528 -51 OFFCURVE",
"528 -28 CURVE SMOOTH",
"528 345 OFFCURVE",
"760 737 OFFCURVE",
"760 773 CURVE SMOOTH",
"760 803 OFFCURVE",
"725 819 OFFCURVE",
"710 819 CURVE",
"703 819 OFFCURVE",
"461 358 OFFCURVE",
"487 -67 CURVE"
);
},
{
closed = 1;
nodes = (
"240 705 OFFCURVE",
"144 269 OFFCURVE",
"90 71 CURVE",
"111 17 LINE",
"111 232 OFFCURVE",
"42 185 OFFCURVE",
"42 260 CURVE SMOOTH",
"42 315 OFFCURVE",
"150 338 OFFCURVE",
"310 338 CURVE SMOOTH",
"624 338 OFFCURVE",
"812 290 OFFCURVE",
"825 290 CURVE",
"825 310 OFFCURVE",
"821 350 OFFCURVE",
"796 350 CURVE SMOOTH",
"782 350 OFFCURVE",
"678 396 OFFCURVE",
"398 396 CURVE SMOOTH",
"61 396 OFFCURVE",
"7 345 OFFCURVE",
"7 257 CURVE SMOOTH",
"7 174 OFFCURVE",
"75 212 OFFCURVE",
"75 1 CURVE",
"102 1 OFFCURVE",
"137 11 OFFCURVE",
"137 46 CURVE SMOOTH",
"137 102 OFFCURVE",
"305 638 OFFCURVE",
"305 660 CURVE SMOOTH",
"305 682 OFFCURVE",
"285 711 OFFCURVE",
"246 711 CURVE"
);
}
);
width = 830;
},
{
associatedMasterId = "2CA0DBAD-D64B-45C4-9A33-36C1DBAC27D7";
layerId = "599C142E-8B0C-4F77-BC7B-0D29E306DADC";
name = "Regular Aug 16 16, 23:21";
paths = (
{
closed = 1;
nodes = (
"508 -67 OFFCURVE",
"528 -51 OFFCURVE",
"528 -28 CURVE SMOOTH",
"528 345 OFFCURVE",
"760 737 OFFCURVE",
"760 773 CURVE SMOOTH",
"760 803 OFFCURVE",
"725 819 OFFCURVE",
"710 819 CURVE",
"703 819 OFFCURVE",
"461 358 OFFCURVE",
"487 -67 CURVE"
);
},
{
closed = 1;
nodes = (
"240 705 OFFCURVE",
"144 269 OFFCURVE",
"90 71 CURVE",
"111 17 LINE",
"111 68 OFFCURVE",
"42 185 OFFCURVE",
"42 260 CURVE SMOOTH",
"42 315 OFFCURVE",
"150 338 OFFCURVE",
"310 338 CURVE SMOOTH",
"624 338 OFFCURVE",
"812 290 OFFCURVE",
"825 290 CURVE",
"825 310 OFFCURVE",
"821 350 OFFCURVE",
"796 350 CURVE SMOOTH",
"782 350 OFFCURVE",
"678 396 OFFCURVE",
"398 396 CURVE SMOOTH",
"61 396 OFFCURVE",
"7 345 OFFCURVE",
"7 257 CURVE SMOOTH",
"7 174 OFFCURVE",
"75 48 OFFCURVE",
"75 1 CURVE",
"102 1 OFFCURVE",
"137 11 OFFCURVE",
"137 46 CURVE SMOOTH",
"137 102 OFFCURVE",
"305 638 OFFCURVE",
"305 660 CURVE SMOOTH",
"305 682 OFFCURVE",
"285 711 OFFCURVE",
"246 711 CURVE"
);
}
);
width = 830;
},
{
associatedMasterId = "2CA0DBAD-D64B-45C4-9A33-36C1DBAC27D7";
layerId = "1E03B5EB-AAC4-4014-95D3-CEF3D00EDB2E";
name = "Regular Aug 16 16, 23:27";
paths = (
{
closed = 1;
nodes = (
"508 -67 OFFCURVE",
"528 -51 OFFCURVE",
"528 -28 CURVE SMOOTH",
"528 345 OFFCURVE",
"760 737 OFFCURVE",
"760 773 CURVE SMOOTH",
"760 803 OFFCURVE",
"725 819 OFFCURVE",
"710 819 CURVE",
"703 819 OFFCURVE",
"461 358 OFFCURVE",
"487 -67 CURVE"
);
},
{
closed = 1;
nodes = (
"240 705 OFFCURVE",
"136 228 OFFCURVE",
"91 30 CURVE",
"104 25 LINE",
"101 25 OFFCURVE",
"42 144 OFFCURVE",
"42 202 CURVE SMOOTH",
"42 294 OFFCURVE",
"150 338 OFFCURVE",
"310 338 CURVE SMOOTH",
"624 338 OFFCURVE",
"812 290 OFFCURVE",
"825 290 CURVE",
"825 310 OFFCURVE",
"821 350 OFFCURVE",
"796 350 CURVE SMOOTH",
"782 350 OFFCURVE",
"678 396 OFFCURVE",
"398 396 CURVE SMOOTH",
"61 396 OFFCURVE",
"7 301 OFFCURVE",
"7 199 CURVE SMOOTH",
"7 109 OFFCURVE",
"78 1 OFFCURVE",
"78 1 CURVE",
"105 1 OFFCURVE",
"124 0 OFFCURVE",
"137 46 CURVE SMOOTH",
"154 107 OFFCURVE",
"305 638 OFFCURVE",
"305 660 CURVE SMOOTH",
"305 682 OFFCURVE",
"285 711 OFFCURVE",
"246 711 CURVE"
);
},
{
closed = 1;
nodes = (
"101 338 OFFCURVE",
"127 316 OFFCURVE",
"160 316 CURVE SMOOTH",
"193 316 OFFCURVE",
"730 400 OFFCURVE",
"730 400 CURVE",
"730 408 OFFCURVE",
"720 437 OFFCURVE",
"677 437 CURVE SMOOTH",
"560 437 OFFCURVE",
"136 364 OFFCURVE",
"101 364 CURVE"
);
}
);
width = 830;
},
{
associatedMasterId = "2CA0DBAD-D64B-45C4-9A33-36C1DBAC27D7";
layerId = "30C4B004-C727-4FF3-8FBA-575461CB31EF";
name = "Regular Aug 17 16, 22:47";
paths = (
{
closed = 1;
nodes = (
"530 -27 OFFCURVE",
"554 -11 OFFCURVE",
"554 12 CURVE SMOOTH",
"554 385 OFFCURVE",
"778 737 OFFCURVE",
"778 773 CURVE SMOOTH",
"778 803 OFFCURVE",
"739 819 OFFCURVE",
"724 819 CURVE",
"717 819 OFFCURVE",
"483 398 OFFCURVE",
"509 -27 CURVE"
);
},
{
closed = 1;
nodes = (
"264 705 OFFCURVE",
"160 223 OFFCURVE",
"115 25 CURVE",
"132 24 LINE",
"129 24 OFFCURVE",
"54 86 OFFCURVE",
"54 172 CURVE SMOOTH",
"54 257 OFFCURVE",
"144 299 OFFCURVE",
"334 337 CURVE SMOOTH",
"631 396 OFFCURVE",
"800 407 OFFCURVE",
"813 407 CURVE",
"813 427 OFFCURVE",
"792 459 OFFCURVE",
"767 459 CURVE SMOOTH",
"753 459 OFFCURVE",
"685 460 OFFCURVE",
"419 416 CURVE SMOOTH",
"84 361 OFFCURVE",
"11 292 OFFCURVE",
"11 178 CURVE SMOOTH",
"11 63 OFFCURVE",
"102 1 OFFCURVE",
"102 1 CURVE",
"129 1 OFFCURVE",
"148 0 OFFCURVE",
"161 46 CURVE SMOOTH",
"178 107 OFFCURVE",
"329 638 OFFCURVE",
"329 660 CURVE SMOOTH",
"329 682 OFFCURVE",
"309 711 OFFCURVE",
"270 711 CURVE"
);
}
);
width = 830;
},
{
associatedMasterId = "2CA0DBAD-D64B-45C4-9A33-36C1DBAC27D7";
layerId = "6952BC33-621F-4832-ABFA-2C50DEDD429C";
name = "Regular Aug 18 16, 23:31";
paths = (
{
closed = 1;
nodes = (
"300 805 OFFCURVE",
"166 223 OFFCURVE",
"121 25 CURVE",
"142 24 LINE",
"139 24 OFFCURVE",
"64 86 OFFCURVE",
"64 172 CURVE SMOOTH",
"64 257 OFFCURVE",
"154 299 OFFCURVE",
"344 337 CURVE SMOOTH",
"641 396 OFFCURVE",
"810 407 OFFCURVE",
"823 407 CURVE",
"823 427 OFFCURVE",
"802 459 OFFCURVE",
"777 459 CURVE SMOOTH",
"763 459 OFFCURVE",
"695 460 OFFCURVE",
"429 416 CURVE SMOOTH",
"94 361 OFFCURVE",
"21 292 OFFCURVE",
"21 178 CURVE SMOOTH",
"21 63 OFFCURVE",
"112 1 OFFCURVE",
"112 1 CURVE",
"139 1 OFFCURVE",
"158 0 OFFCURVE",
"171 46 CURVE SMOOTH",
"188 107 OFFCURVE",
"366 738 OFFCURVE",
"366 760 CURVE SMOOTH",
"366 782 OFFCURVE",
"345 811 OFFCURVE",
"306 811 CURVE"
);
},
{
closed = 1;
nodes = (
"527 -26 OFFCURVE",
"547 -10 OFFCURVE",
"547 13 CURVE SMOOTH",
"547 325 OFFCURVE",
"712 609 OFFCURVE",
"712 645 CURVE SMOOTH",
"712 675 OFFCURVE",
"677 691 OFFCURVE",
"662 691 CURVE",
"655 691 OFFCURVE",
"480 338 OFFCURVE",
"506 -26 CURVE"
);
}
);
width = 840;
}
);
unicode = 0048;
},
{
color = 1;
glyphname = I;
lastChange = "2016-08-20 01:08:54 +0000";
layers = (
{
background = {
backgroundImage = {
crop = "{{0, 0}, {333, 355.5}}";
imagePath = Skany/I.jpg;
transform = "{3.656, 0, 0, 3.656, -293.517, -262.315}";
};
};
layerId = "2CA0DBAD-D64B-45C4-9A33-36C1DBAC27D7";
paths = (
{
closed = 1;
nodes = (
"129 673 OFFCURVE",
"155 653 OFFCURVE",
"186 657 CURVE SMOOTH",
"218 661 OFFCURVE",
"243 667 OFFCURVE",
"388 691 CURVE SMOOTH",
"573 722 OFFCURVE",
"633 718 OFFCURVE",
"633 718 CURVE",
"630 740 OFFCURVE",
"624 749 OFFCURVE",
"595 757 CURVE SMOOTH",
"571 764 OFFCURVE",
"520 768 OFFCURVE",
"324 738 CURVE SMOOTH",
"207 720 OFFCURVE",
"125 695 OFFCURVE",
"125 695 CURVE"
);
},
{
closed = 1;
nodes = (
"232 57 LINE",
"286 215 OFFCURVE",
"424 739 OFFCURVE",
"424 760 CURVE SMOOTH",
"424 782 OFFCURVE",
"403 811 OFFCURVE",
"364 811 CURVE",
"358 805 OFFCURVE",
"260 310 OFFCURVE",
"187 62 CURVE"
);
},
{
closed = 1;
nodes = (
"29 22 OFFCURVE",
"46 2 OFFCURVE",
"79 1 CURVE SMOOTH",
"112 0 OFFCURVE",
"500 62 OFFCURVE",
"500 62 CURVE",
"500 70 OFFCURVE",
"503 95 OFFCURVE",
"446 97 CURVE SMOOTH",
"329 101 OFFCURVE",
"65 47 OFFCURVE",
"30 48 CURVE"
);
}
);
width = 651;
},
{
associatedMasterId = "2CA0DBAD-D64B-45C4-9A33-36C1DBAC27D7";
layerId = "BC91A963-589B-4E89-BC20-EF8FD9BEC549";
name = "Regular Aug 19 16, 00:57";
paths = (
{
closed = 1;
nodes = (
"12 1 OFFCURVE",
"39 -9 OFFCURVE",
"54 -9 CURVE SMOOTH",
"75 -9 OFFCURVE",
"148 4 OFFCURVE",
"257 4 CURVE SMOOTH",
"389 4 OFFCURVE",
"509 -19 OFFCURVE",
"525 -19 CURVE",
"525 -9 OFFCURVE",
"521 6 OFFCURVE",
"499 20 CURVE SMOOTH",
"486 28 OFFCURVE",
"383 54 OFFCURVE",
"225 54 CURVE SMOOTH",
"98 54 OFFCURVE",
"12 39 OFFCURVE",
"12 34 CURVE"
);
},
{
closed = 1;
nodes = (
"139 718 OFFCURVE",
"164 699 OFFCURVE",
"193 699 CURVE SMOOTH",
"222 699 OFFCURVE",
"279 708 OFFCURVE",
"430 708 CURVE SMOOTH",
"618 708 OFFCURVE",
"721 682 OFFCURVE",
"721 682 CURVE",
"721 702 OFFCURVE",
"714 715 OFFCURVE",
"690 726 CURVE SMOOTH",
"669 736 OFFCURVE",
"573 760 OFFCURVE",
"375 760 CURVE SMOOTH",
"240 760 OFFCURVE",
"139 738 OFFCURVE",
"139 738 CURVE"
);
},
{
closed = 1;
nodes = (
"432 760 OFFCURVE",
"219 289 OFFCURVE",
"219 53 CURVE SMOOTH",
"219 -10 OFFCURVE",
"234 -25 OFFCURVE",
"271 -25 CURVE",
"271 -17 OFFCURVE",
"268 15 OFFCURVE",
"268 60 CURVE SMOOTH",
"268 208 OFFCURVE",
"494 727 OFFCURVE",
"494 760 CURVE SMOOTH",
"494 805 OFFCURVE",
"458 817 OFFCURVE",
"432 817 CURVE"
);
}
);
width = 730;
},
{
associatedMasterId = "2CA0DBAD-D64B-45C4-9A33-36C1DBAC27D7";
layerId = "82889467-F38E-4AAB-A440-496CFC4B9CE2";
name = "Regular Aug 19 16, 01:04";
paths = (
{
closed = 1;
nodes = (
"16 -6 OFFCURVE",
"49 -15 OFFCURVE",
"67 -13 CURVE SMOOTH",
"91 -10 OFFCURVE",
"173 16 OFFCURVE",
"300 33 CURVE SMOOTH",
"412 48 OFFCURVE",
"545 44 OFFCURVE",
"564 47 CURVE",
"563 59 OFFCURVE",
"556 78 OFFCURVE",
"529 89 CURVE SMOOTH",
"512 96 OFFCURVE",
"399 105 OFFCURVE",
"255 87 CURVE SMOOTH",
"108 69 OFFCURVE",
"10 37 OFFCURVE",
"12 31 CURVE"
);
},
{
closed = 1;
nodes = (
"111 688 OFFCURVE",
"141 664 OFFCURVE",
"172 668 CURVE SMOOTH",
"204 672 OFFCURVE",
"248 687 OFFCURVE",
"412 712 CURVE SMOOTH",
"617 743 OFFCURVE",
"698 736 OFFCURVE",
"698 736 CURVE",
"695 758 OFFCURVE",
"685 771 OFFCURVE",
"656 779 CURVE SMOOTH",
"632 786 OFFCURVE",
"560 795 OFFCURVE",
"344 763 CURVE SMOOTH",
"208 743 OFFCURVE",
"107 710 OFFCURVE",
"107 710 CURVE"
);
},
{
closed = 1;
nodes = (
"262 57 LINE",
"291 159 OFFCURVE",
"454 739 OFFCURVE",
"454 760 CURVE SMOOTH",
"454 782 OFFCURVE",
"433 811 OFFCURVE",
"394 811 CURVE",
"388 805 OFFCURVE",
"269 287 OFFCURVE",
"217 62 CURVE"
);
}
);
width = 731;
}
);
unicode = 0049;
},
{
color = 1;
glyphname = J;
lastChange = "2016-08-20 08:38:49 +0000";
layers = (
{
background = {
backgroundImage = {
crop = "{{0, 0}, {969.89999999999998, 363.30000000000001}}";
imagePath = Skany/J.jpg;
transform = "{3.171, 0, 0, 3.171, -260.708, -265.724}";
};
};
components = (
{
alignment = -1;
name = j_petelka;
transform = "{0.9496, -0.3136, 0.3136, 0.9496, 317, 378}";
}
);
layerId = "2CA0DBAD-D64B-45C4-9A33-36C1DBAC27D7";
paths = (
{
closed = 1;
nodes = (
"154 599 OFFCURVE",
"167 569 OFFCURVE",
"230 561 CURVE SMOOTH",
"313 550 OFFCURVE",
"617 624 OFFCURVE",
"622 668 CURVE",
"631 709 LINE",
"485 654 OFFCURVE",
"241 615 OFFCURVE",
"154 627 CURVE"
);
},
{
closed = 1;
nodes = (
"545 684 OFFCURVE",
"354 -173 OFFCURVE",
"275 -173 CURVE SMOOTH",
"167 -173 OFFCURVE",
"60 -109 OFFCURVE",
"60 -1 CURVE SMOOTH",
"60 226 OFFCURVE",
"428 400 OFFCURVE",
"683 400 CURVE",
"683 429 OFFCURVE",
"658 448 OFFCURVE",
"613 448 CURVE SMOOTH",
"383 448 OFFCURVE",
"6 264 OFFCURVE",
"6 29 CURVE SMOOTH",
"6 -160 OFFCURVE",
"175 -220 OFFCURVE",
"283 -220 CURVE SMOOTH",
"425 -220 OFFCURVE",
"597 681 OFFCURVE",
"629 681 CURVE",
"571 684 LINE"
);
}
);
width = 693;
},
{
associatedMasterId = "2CA0DBAD-D64B-45C4-9A33-36C1DBAC27D7";
components = (
{
alignment = -1;
name = j_petelka;
transform = "{0.9496, -0.3136, 0.3136, 0.9496, 317, 378}";
}
);
layerId = "81E85A7D-782B-4BF6-A221-0A7D12E9676C";
name = "Regular Aug 19 16, 00:49";
paths = (
{
closed = 1;
nodes = (
"176 558 OFFCURVE",
"195 530 OFFCURVE",
"259 530 CURVE SMOOTH",
"343 530 OFFCURVE",
"637 637 OFFCURVE",
"637 681 CURVE",
"638 729 LINE",
"418 618 OFFCURVE",
"264 579 OFFCURVE",
"176 579 CURVE"
);
},
{
closed = 1;
nodes = (
"545 684 OFFCURVE",
"364 -178 OFFCURVE",
"254 -178 CURVE SMOOTH",
"211 -178 OFFCURVE",
"52 -104 OFFCURVE",
"52 54 CURVE SMOOTH",
"52 236 OFFCURVE",
"428 412 OFFCURVE",
"683 412 CURVE",
"683 441 OFFCURVE",
"658 448 OFFCURVE",
"635 448 CURVE SMOOTH",
"375 448 OFFCURVE",
"9 252 OFFCURVE",
"9 73 CURVE SMOOTH",
"9 -168 OFFCURVE",
"175 -220 OFFCURVE",
"283 -220 CURVE SMOOTH",
"425 -220 OFFCURVE",
"613 681 OFFCURVE",
"645 681 CURVE",
"571 684 LINE"
);
}
);
width = 693;
}
);
unicode = 004A;
},
{
color = 1;
glyphname = K;
lastChange = "2016-08-20 01:09:12 +0000";
layers = (
{
background = {
backgroundImage = {
crop = "{{0, 0}, {627, 300.30000000000001}}";
imagePath = Skany/K3.jpg;
transform = "{3.291, -0.009, 0.009, 3.291, -1282, -108}";
};
};
layerId = "2CA0DBAD-D64B-45C4-9A33-36C1DBAC27D7";
paths = (
{
closed = 1;
nodes = (
"118 6 OFFCURVE",
"136 -14 OFFCURVE",
"160 -9 CURVE",
"200 385 OFFCURVE",
"352 689 OFFCURVE",
"351 725 CURVE SMOOTH",
"351 755 OFFCURVE",
"316 770 OFFCURVE",
"301 770 CURVE",
"294 770 OFFCURVE",
"142 405 OFFCURVE",
"120 45 CURVE SMOOTH"
);
},
{
closed = 1;
nodes = (
"118 204 LINE",
"289 204 OFFCURVE",
"554 -1 OFFCURVE",
"610 -1 CURVE SMOOTH",
"633 -1 OFFCURVE",
"641 6 OFFCURVE",
"641 16 CURVE",
"547 77 OFFCURVE",
"348 200 OFFCURVE",
"179 248 CURVE",
"132 264 OFFCURVE",
"86 272 OFFCURVE",
"46 272 CURVE SMOOTH",
"19 272 OFFCURVE",
"4 176 OFFCURVE",
"34 176 CURVE SMOOTH",
"316 176 OFFCURVE",
"759 643 OFFCURVE",
"794 700 CURVE SMOOTH",
"818 739 OFFCURVE",
"793 769 OFFCURVE",
"774 769 CURVE",
"768 764 OFFCURVE",
"392 346 OFFCURVE",
"136 238 CURVE"
);
}
);
width = 810;
},
{
associatedMasterId = "2CA0DBAD-D64B-45C4-9A33-36C1DBAC27D7";
layerId = "01095B2F-FAE0-4C26-BA97-F3BCADC85BDF";
name = "Regular Aug 19 16, 20:46";
paths = (
{
closed = 1;
nodes = (
"435 800 OFFCURVE",
"222 289 OFFCURVE",
"222 53 CURVE SMOOTH",
"222 -10 OFFCURVE",
"237 -25 OFFCURVE",
"274 -25 CURVE",
"274 -17 OFFCURVE",
"268 -8 OFFCURVE",
"268 37 CURVE SMOOTH",
"268 185 OFFCURVE",
"497 727 OFFCURVE",
"497 760 CURVE SMOOTH",
"497 805 OFFCURVE",
"461 817 OFFCURVE",
"435 817 CURVE"
);
},
{
closed = 1;
nodes = (
"818 700 OFFCURVE",
"420 241 OFFCURVE",
"104 241 CURVE SMOOTH",
"23 241 OFFCURVE",
"39 275 OFFCURVE",
"105 275 CURVE SMOOTH",
"167 275 OFFCURVE",
"674 147 OFFCURVE",
"745 147 CURVE SMOOTH",
"783 147 OFFCURVE",
"822 152 OFFCURVE",
"822 175 CURVE",
"822 175 OFFCURVE",
"204 315 OFFCURVE",
"131 315 CURVE SMOOTH",
"26 315 OFFCURVE",
"2 279 OFFCURVE",
"2 252 CURVE SMOOTH",
"2 225 OFFCURVE",
"23 200 OFFCURVE",
"94 200 CURVE SMOOTH",
"412 200 OFFCURVE",
"854 568 OFFCURVE",
"854 685 CURVE SMOOTH",
"854 720 OFFCURVE",
"837 739 OFFCURVE",
"818 739 CURVE"
);
}
);
width = 860;
},
{
associatedMasterId = "2CA0DBAD-D64B-45C4-9A33-36C1DBAC27D7";
layerId = "2555CE10-FD83-4F0E-9CB2-A02E1DCDCA57";
name = "Regular Aug 19 16, 21:25";
paths = (
{
closed = 1;
nodes = (
"842 810 OFFCURVE",
"420 241 OFFCURVE",
"104 241 CURVE SMOOTH",
"23 241 OFFCURVE",
"39 273 OFFCURVE",
"105 275 CURVE SMOOTH",
"220 278 OFFCURVE",
"586 3 OFFCURVE",
"678 3 CURVE SMOOTH",
"696 3 OFFCURVE",
"714 6 OFFCURVE",
"714 20 CURVE",
"714 20 OFFCURVE",
"239 315 OFFCURVE",
"106 315 CURVE SMOOTH",
"26 315 OFFCURVE",
"2 279 OFFCURVE",
"2 252 CURVE SMOOTH",
"2 225 OFFCURVE",
"23 200 OFFCURVE",
"94 200 CURVE SMOOTH",
"412 200 OFFCURVE",
"878 676 OFFCURVE",
"878 765 CURVE SMOOTH",
"878 800 OFFCURVE",
"861 819 OFFCURVE",
"842 819 CURVE"
);
},
{
closed = 1;
nodes = (
"192 6 OFFCURVE",
"209 -14 OFFCURVE",
"233 -9 CURVE",
"250 384 OFFCURVE",
"459 739 OFFCURVE",
"459 775 CURVE SMOOTH",
"459 805 OFFCURVE",
"424 821 OFFCURVE",
"409 821 CURVE",
"402 821 OFFCURVE",
"192 405 OFFCURVE",
"192 45 CURVE SMOOTH"
);
}
);
width = 860;
},
{
associatedMasterId = "2CA0DBAD-D64B-45C4-9A33-36C1DBAC27D7";
layerId = "83B50107-E5D9-4B84-9FC0-A646ADF46DAB";
name = "Regular Aug 19 16, 23:01";
paths = (
{
closed = 1;
nodes = (
"871 763 OFFCURVE",
"332 213 OFFCURVE",
"104 213 CURVE SMOOTH",
"88 213 OFFCURVE",
"72 222 OFFCURVE",
"72 226 CURVE SMOOTH",
"72 239 OFFCURVE",
"100 253 OFFCURVE",
"123 253 CURVE SMOOTH",
"276 253 OFFCURVE",
"563 61 OFFCURVE",
"671 10 CURVE SMOOTH",
"681 5 OFFCURVE",
"692 3 OFFCURVE",
"701 3 CURVE SMOOTH",
"724 3 OFFCURVE",
"741 15 OFFCURVE",
"741 25 CURVE",
"621 103 OFFCURVE",
"297 299 OFFCURVE",
"115 299 CURVE SMOOTH",
"59 299 OFFCURVE",
"16 267 OFFCURVE",
"16 231 CURVE SMOOTH",
"16 208 OFFCURVE",
"40 176 OFFCURVE",
"104 176 CURVE SMOOTH",
"351 176 OFFCURVE",
"901 652 OFFCURVE",
"914 715 CURVE SMOOTH",
"921 749 OFFCURVE",
"897 769 OFFCURVE",
"878 769 CURVE"
);
},
{
closed = 1;
nodes = (
"188 6 OFFCURVE",
"206 -14 OFFCURVE",
"230 -9 CURVE",
"270 385 OFFCURVE",
"422 689 OFFCURVE",
"421 725 CURVE SMOOTH",
"421 755 OFFCURVE",
"386 770 OFFCURVE",
"371 770 CURVE",
"364 770 OFFCURVE",
"212 405 OFFCURVE",
"190 45 CURVE SMOOTH"
);
}
);
width = 930;
}
);
unicode = 004B;
},
{
color = 1;
glyphname = L;
lastChange = "2016-08-20 01:09:14 +0000";
layers = (
{
background = {
backgroundImage = {
crop = "{{0, 0}, {268.19999999999999, 315.30000000000001}}";
imagePath = Skany/L2.jpg;
transform = "{3.044, 0, 0, 3.044, -128.075, -113.283}";
};
};
layerId = "2CA0DBAD-D64B-45C4-9A33-36C1DBAC27D7";
paths = (
{
closed = 1;
nodes = (
"244 801 OFFCURVE",
"91 290 OFFCURVE",
"91 107 CURVE SMOOTH",
"91 44 OFFCURVE",
"109 18 OFFCURVE",
"146 18 CURVE",
"146 26 OFFCURVE",
"140 46 OFFCURVE",
"140 91 CURVE SMOOTH",
"140 212 OFFCURVE",
"293 703 OFFCURVE",
"397 758 CURVE",
"414 758 OFFCURVE",
"432 735 OFFCURVE",
"432 669 CURVE SMOOTH",
"432 565 OFFCURVE",
"261 248 OFFCURVE",
"40 248 CURVE",
"40 229 OFFCURVE",
"56 216 OFFCURVE",
"85 216 CURVE SMOOTH",
"249 216 OFFCURVE",
"478 475 OFFCURVE",
"478 675 CURVE SMOOTH",
"478 781 OFFCURVE",
"413 801 OFFCURVE",
"387 801 CURVE SMOOTH"
);
},
{
closed = 1;
nodes = (
"28 -11 OFFCURVE",
"45 -31 OFFCURVE",
"78 -32 CURVE SMOOTH",
"111 -33 OFFCURVE",
"584 42 OFFCURVE",
"584 42 CURVE",
"584 50 OFFCURVE",
"587 75 OFFCURVE",
"530 77 CURVE SMOOTH",
"413 81 OFFCURVE",
"64 14 OFFCURVE",
"29 15 CURVE"
);
}
);
width = 640;
},
{
associatedMasterId = "2CA0DBAD-D64B-45C4-9A33-36C1DBAC27D7";
layerId = "FE640F6D-43EC-408E-8F09-BF79C5FCB164";
name = "Regular Aug 19 16, 20:28";
paths = (
{
closed = 1;
nodes = (
"215 760 OFFCURVE",
"82 340 OFFCURVE",
"82 77 CURVE SMOOTH",
"82 14 OFFCURVE",
"97 -1 OFFCURVE",
"134 -1 CURVE",
"134 7 OFFCURVE",
"128 16 OFFCURVE",
"128 61 CURVE SMOOTH",
"128 267 OFFCURVE",
"278 720 OFFCURVE",
"446 720 CURVE SMOOTH",
"496 720 OFFCURVE",
"262 218 OFFCURVE",
"21 218 CURVE",
"21 199 OFFCURVE",
"37 186 OFFCURVE",
"66 186 CURVE SMOOTH",
"257 186 OFFCURVE",
"494 563 OFFCURVE",
"494 694 CURVE SMOOTH",
"494 734 OFFCURVE",
"444 760 OFFCURVE",
"418 760 CURVE SMOOTH"
);
},
{
closed = 1;
nodes = (
"3 -27 OFFCURVE",
"20 -41 OFFCURVE",
"53 -41 CURVE SMOOTH",
"86 -41 OFFCURVE",
"614 56 OFFCURVE",
"614 56 CURVE",
"614 64 OFFCURVE",
"598 82 OFFCURVE",
"541 82 CURVE SMOOTH",
"424 82 OFFCURVE",
"38 -1 OFFCURVE",
"3 -1 CURVE"
);
}
);
width = 620;
}
);
unicode = 004C;
},
{
color = 1;
glyphname = M;
lastChange = "2016-08-18 23:14:08 +0000";
layers = (
{
background = {
backgroundImage = {
crop = "{{0, 0}, {361.19999999999999, 308.09999999999997}}";
imagePath = Skany/M2.jpg;
transform = "{3.479, 0, 0, 3.479, -285, -203}";
};
};
layerId = "2CA0DBAD-D64B-45C4-9A33-36C1DBAC27D7";
paths = (
{
closed = 1;
nodes = (
"424 812 OFFCURVE",
"463 785 OFFCURVE",
"463 762 CURVE SMOOTH",
"463 713 OFFCURVE",
"233 170 OFFCURVE",
"233 -9 CURVE",
"201 -9 OFFCURVE",
"195 13 OFFCURVE",
"195 37 CURVE SMOOTH",
"195 208 OFFCURVE",
"398 755 OFFCURVE",
"398 812 CURVE"
);
},
{
closed = 1;
nodes = (
"230 153 OFFCURVE",
"598 760 OFFCURVE",
"636 760 CURVE",
"637 670 LINE",
"604 670 OFFCURVE",
"233 90 OFFCURVE",
"233 -9 CURVE",
"230 78 LINE"
);
},
{
closed = 1;
nodes = (
"661 760 OFFCURVE",
"690 739 OFFCURVE",
"690 705 CURVE SMOOTH",
"690 642 OFFCURVE",
"536 95 OFFCURVE",
"536 -10 CURVE",
"528 -10 OFFCURVE",
"494 0 OFFCURVE",
"494 47 CURVE SMOOTH",
"494 129 OFFCURVE",
"636 746 OFFCURVE",
"636 760 CURVE"
);
},
{
closed = 1;
nodes = (
"898 599 OFFCURVE",
"924 575 OFFCURVE",
"924 541 CURVE SMOOTH",
"924 488 OFFCURVE",
"851 218 OFFCURVE",
"851 70 CURVE SMOOTH",
"851 -17 OFFCURVE",
"889 -47 OFFCURVE",
"897 -47 CURVE",
"897 -51 OFFCURVE",
"890 -63 OFFCURVE",
"870 -63 CURVE SMOOTH",
"835 -63 OFFCURVE",
"790 -10 OFFCURVE",
"790 81 CURVE SMOOTH",
"790 232 OFFCURVE",
"871 599 OFFCURVE",
"871 599 CURVE"
);
},
{
closed = 1;
nodes = (
"39 494 OFFCURVE",
"23 512 OFFCURVE",
"23 542 CURVE SMOOTH",
"23 685 OFFCURVE",
"322 812 OFFCURVE",
"398 812 CURVE",
"432 812 OFFCURVE",
"420 764 OFFCURVE",
"409 764 CURVE SMOOTH",
"322 764 OFFCURVE",
"65 601 OFFCURVE",
"65 494 CURVE"
);
},
{
closed = 1;
nodes = (
"517 67 OFFCURVE",
"840 599 OFFCURVE",
"871 599 CURVE",
"862 529 LINE",
"845 529 OFFCURVE",
"536 20 OFFCURVE",
"536 -10 CURVE",
"517 37 LINE"
);
}
);
width = 990;
},
{
associatedMasterId = "2CA0DBAD-D64B-45C4-9A33-36C1DBAC27D7";
layerId = "B7058C6C-1548-4559-AA31-D9079D117706";
name = "Regular Aug 14 16, 19:17";
paths = (
{
closed = 1;
nodes = (
"444 812 OFFCURVE",
"493 783 OFFCURVE",
"493 760 CURVE SMOOTH",
"493 711 OFFCURVE",
"217 168 OFFCURVE",
"217 -11 CURVE",
"175 -11 OFFCURVE",
"165 13 OFFCURVE",
"165 37 CURVE SMOOTH",
"165 208 OFFCURVE",
"418 755 OFFCURVE",
"418 812 CURVE"
);
},
{
closed = 1;
nodes = (
"216 196 OFFCURVE",
"603 760 OFFCURVE",
"641 760 CURVE",
"662 734 OFFCURVE",
"642 678 OFFCURVE",
"642 640 CURVE",
"609 640 OFFCURVE",
"219 116 OFFCURVE",
"219 17 CURVE",
"216 121 LINE"
);
},
{
closed = 1;
nodes = (
"663 760 OFFCURVE",
"693 752 OFFCURVE",
"693 689 CURVE SMOOTH",
"693 626 OFFCURVE",
"476 87 OFFCURVE",
"476 -18 CURVE",
"468 -18 OFFCURVE",
"426 1 OFFCURVE",
"426 48 CURVE SMOOTH",
"426 130 OFFCURVE",
"638 746 OFFCURVE",
"638 760 CURVE"
);
},
{
closed = 1;
nodes = (
"445 56 OFFCURVE",
"753 486 OFFCURVE",
"784 486 CURVE",
"784 452 OFFCURVE",
"792 406 OFFCURVE",
"775 406 CURVE",
"758 406 OFFCURVE",
"477 11 OFFCURVE",
"477 -19 CURVE",
"445 26 LINE"
);
},
{
closed = 1;
nodes = (
"811 486 OFFCURVE",
"844 470 OFFCURVE",
"844 446 CURVE SMOOTH",
"844 393 OFFCURVE",
"739 214 OFFCURVE",
"739 96 CURVE SMOOTH",
"739 9 OFFCURVE",
"772 -11 OFFCURVE",
"780 -11 CURVE",
"780 -21 OFFCURVE",
"768 -27 OFFCURVE",
"749 -27 CURVE SMOOTH",
"730 -27 OFFCURVE",
"685 16 OFFCURVE",
"685 107 CURVE SMOOTH",
"685 228 OFFCURVE",
"784 486 OFFCURVE",
"784 486 CURVE"
);
},
{
closed = 1;
nodes = (
"-175 297 OFFCURVE",
"-199 370 OFFCURVE",
"-199 421 CURVE SMOOTH",
"-199 636 OFFCURVE",
"409 729 OFFCURVE",
"421 800 CURVE",
"455 800 OFFCURVE",
"432 763 OFFCURVE",
"432 752 CURVE SMOOTH",
"432 683 OFFCURVE",
"-157 557 OFFCURVE",
"-157 422 CURVE SMOOTH",
"-157 361 OFFCURVE",
"-132 318 OFFCURVE",
"-117 318 CURVE",
"-117 301 OFFCURVE",
"-130 297 OFFCURVE",
"-146 297 CURVE SMOOTH"
);
}
);
width = 850;
},
{
associatedMasterId = "2CA0DBAD-D64B-45C4-9A33-36C1DBAC27D7";
layerId = "DBCE6DAC-EB05-4CC9-B3C1-0136A849DA2A";
name = "Regular Aug 14 16, 19:34";
paths = (
{
closed = 1;
nodes = (
"534 812 OFFCURVE",
"583 783 OFFCURVE",
"583 760 CURVE SMOOTH",
"583 711 OFFCURVE",
"307 168 OFFCURVE",
"307 -11 CURVE",
"265 -11 OFFCURVE",
"255 13 OFFCURVE",
"255 37 CURVE SMOOTH",
"255 208 OFFCURVE",
"508 755 OFFCURVE",
"508 812 CURVE"
);
},
{
closed = 1;
nodes = (
"306 173 OFFCURVE",
"693 760 OFFCURVE",
"731 760 CURVE",
"752 734 OFFCURVE",
"732 698 OFFCURVE",
"732 660 CURVE",
"699 660 OFFCURVE",
"309 116 OFFCURVE",
"309 17 CURVE",
"306 98 LINE"
);
},
{
closed = 1;
nodes = (
"753 760 OFFCURVE",
"787 742 OFFCURVE",
"787 699 CURVE SMOOTH",
"787 636 OFFCURVE",
"566 87 OFFCURVE",
"566 -18 CURVE",
"558 -18 OFFCURVE",
"516 1 OFFCURVE",
"516 48 CURVE SMOOTH",
"516 130 OFFCURVE",
"728 746 OFFCURVE",
"728 760 CURVE"
);
},
{
closed = 1;
nodes = (
"546 52 OFFCURVE",
"843 486 OFFCURVE",
"874 486 CURVE",
"874 452 OFFCURVE",
"882 406 OFFCURVE",
"865 406 CURVE",
"848 406 OFFCURVE",
"567 11 OFFCURVE",
"567 -19 CURVE",
"546 22 LINE"
);
},
{
closed = 1;
nodes = (
"901 486 OFFCURVE",
"927 460 OFFCURVE",
"927 426 CURVE SMOOTH",
"927 373 OFFCURVE",
"829 171 OFFCURVE",
"829 53 CURVE SMOOTH",
"829 -34 OFFCURVE",
"862 -54 OFFCURVE",
"870 -54 CURVE",
"870 -64 OFFCURVE",
"858 -70 OFFCURVE",
"839 -70 CURVE SMOOTH",
"820 -70 OFFCURVE",
"765 -27 OFFCURVE",
"765 64 CURVE SMOOTH",
"765 185 OFFCURVE",
"874 486 OFFCURVE",
"874 486 CURVE"
);
},
{
closed = 1;
nodes = (
"23 334 OFFCURVE",
"4 377 OFFCURVE",
"4 448 CURVE SMOOTH",
"4 643 OFFCURVE",
"432 812 OFFCURVE",
"508 812 CURVE",
"542 812 OFFCURVE",
"530 764 OFFCURVE",
"519 764 CURVE SMOOTH",
"432 764 OFFCURVE",
"46 562 OFFCURVE",
"46 427 CURVE SMOOTH",
"46 376 OFFCURVE",
"103 365 OFFCURVE",
"106 365 CURVE",
"106 365 OFFCURVE",
"92 334 OFFCURVE",
"77 334 CURVE SMOOTH"
);
}
);
width = 940;
},
{
associatedMasterId = "2CA0DBAD-D64B-45C4-9A33-36C1DBAC27D7";
layerId = "EFEC890C-7ACB-433F-A05C-2BE1D81617B1";
name = "Regular Aug 16 16, 22:26";
paths = (
{
closed = 1;
nodes = (
"534 812 OFFCURVE",
"583 783 OFFCURVE",
"583 760 CURVE SMOOTH",
"583 711 OFFCURVE",
"307 168 OFFCURVE",
"307 -11 CURVE",
"265 -11 OFFCURVE",
"255 13 OFFCURVE",
"255 37 CURVE SMOOTH",
"255 208 OFFCURVE",
"508 755 OFFCURVE",
"508 812 CURVE"
);
},
{
closed = 1;
nodes = (
"306 173 OFFCURVE",
"693 760 OFFCURVE",
"731 760 CURVE",
"752 734 OFFCURVE",
"732 698 OFFCURVE",
"732 660 CURVE",
"699 660 OFFCURVE",
"309 116 OFFCURVE",
"309 17 CURVE",
"306 98 LINE"
);
},
{
closed = 1;
nodes = (
"753 760 OFFCURVE",
"787 742 OFFCURVE",
"787 699 CURVE SMOOTH",
"787 636 OFFCURVE",
"566 87 OFFCURVE",
"566 -18 CURVE",
"558 -18 OFFCURVE",
"516 1 OFFCURVE",
"516 48 CURVE SMOOTH",
"516 130 OFFCURVE",
"728 746 OFFCURVE",
"728 760 CURVE"
);
},
{
closed = 1;
nodes = (
"546 52 OFFCURVE",
"843 486 OFFCURVE",
"874 486 CURVE",
"874 452 OFFCURVE",
"882 406 OFFCURVE",
"865 406 CURVE",
"848 406 OFFCURVE",
"567 11 OFFCURVE",
"567 -19 CURVE",
"546 22 LINE"
);
},
{
closed = 1;
nodes = (
"901 486 OFFCURVE",
"927 460 OFFCURVE",
"927 426 CURVE SMOOTH",
"927 373 OFFCURVE",
"829 171 OFFCURVE",
"829 53 CURVE SMOOTH",
"829 -34 OFFCURVE",
"862 -54 OFFCURVE",
"870 -54 CURVE",
"870 -64 OFFCURVE",
"858 -70 OFFCURVE",
"839 -70 CURVE SMOOTH",
"820 -70 OFFCURVE",
"765 -27 OFFCURVE",
"765 64 CURVE SMOOTH",
"765 185 OFFCURVE",
"874 486 OFFCURVE",
"874 486 CURVE"
);
},
{
closed = 1;
nodes = (
"4 418 OFFCURVE",
"4 448 CURVE SMOOTH",
"4 643 OFFCURVE",
"432 812 OFFCURVE",
"508 812 CURVE",
"542 812 OFFCURVE",
"530 764 OFFCURVE",
"519 764 CURVE SMOOTH",
"432 764 OFFCURVE",
"46 559 OFFCURVE",
"46 400 CURVE",
"20 400 OFFCURVE"
);
}
);
width = 940;
},
{
associatedMasterId = "2CA0DBAD-D64B-45C4-9A33-36C1DBAC27D7";
layerId = "526504CB-BAAF-4452-A537-7101715552CD";
name = "Regular Aug 17 16, 22:50";
paths = (
{
closed = 1;
nodes = (
"534 812 OFFCURVE",
"573 785 OFFCURVE",
"573 762 CURVE SMOOTH",
"573 713 OFFCURVE",
"293 170 OFFCURVE",
"293 -9 CURVE",
"261 -9 OFFCURVE",
"255 13 OFFCURVE",
"255 37 CURVE SMOOTH",
"255 208 OFFCURVE",
"508 755 OFFCURVE",
"508 812 CURVE"
);
},
{
closed = 1;
nodes = (
"290 147 OFFCURVE",
"688 760 OFFCURVE",
"726 760 CURVE",
"747 734 OFFCURVE",
"727 698 OFFCURVE",
"727 660 CURVE",
"694 660 OFFCURVE",
"293 90 OFFCURVE",
"293 -9 CURVE",
"290 72 LINE"
);
},
{
closed = 1;
nodes = (
"748 760 OFFCURVE",
"782 742 OFFCURVE",
"782 699 CURVE SMOOTH",
"782 636 OFFCURVE",
"561 87 OFFCURVE",
"561 -18 CURVE",
"553 -18 OFFCURVE",
"511 1 OFFCURVE",
"511 48 CURVE SMOOTH",
"511 130 OFFCURVE",
"723 746 OFFCURVE",
"723 760 CURVE"
);
},
{
closed = 1;
nodes = (
"541 52 OFFCURVE",
"917 598 OFFCURVE",
"948 598 CURVE",
"948 564 OFFCURVE",
"956 518 OFFCURVE",
"939 518 CURVE",
"922 518 OFFCURVE",
"562 11 OFFCURVE",
"562 -19 CURVE",
"541 22 LINE"
);
},
{
closed = 1;
nodes = (
"976 602 OFFCURVE",
"1002 576 OFFCURVE",
"1002 542 CURVE SMOOTH",
"1002 489 OFFCURVE",
"868 171 OFFCURVE",
"868 53 CURVE SMOOTH",
"868 -34 OFFCURVE",
"901 -54 OFFCURVE",
"909 -54 CURVE",
"909 -64 OFFCURVE",
"897 -70 OFFCURVE",
"878 -70 CURVE SMOOTH",
"859 -70 OFFCURVE",
"804 -27 OFFCURVE",
"804 64 CURVE SMOOTH",
"804 185 OFFCURVE",
"949 602 OFFCURVE",
"949 602 CURVE"
);
},
{
closed = 1;
nodes = (
"20 400 OFFCURVE",
"4 418 OFFCURVE",
"4 448 CURVE SMOOTH",
"4 643 OFFCURVE",
"432 812 OFFCURVE",
"508 812 CURVE",
"542 812 OFFCURVE",
"530 764 OFFCURVE",
"519 764 CURVE SMOOTH",
"432 764 OFFCURVE",
"46 559 OFFCURVE",
"46 400 CURVE"
);
}
);
width = 1010;
},
{
associatedMasterId = "2CA0DBAD-D64B-45C4-9A33-36C1DBAC27D7";
layerId = "B510C7B9-CDDC-41B2-8939-D9420B2AB1E8";
name = "Regular Aug 19 16, 01:11";
paths = (
{
closed = 1;
nodes = (
"544 812 OFFCURVE",
"583 785 OFFCURVE",
"583 762 CURVE SMOOTH",
"583 713 OFFCURVE",
"303 170 OFFCURVE",
"303 -9 CURVE",
"271 -9 OFFCURVE",
"265 13 OFFCURVE",
"265 37 CURVE SMOOTH",
"265 208 OFFCURVE",
"518 755 OFFCURVE",
"518 812 CURVE"
);
},
{
closed = 1;
nodes = (
"300 153 OFFCURVE",
"718 760 OFFCURVE",
"756 760 CURVE",
"757 670 LINE",
"724 670 OFFCURVE",
"303 90 OFFCURVE",
"303 -9 CURVE",
"300 78 LINE"
);
},
{
closed = 1;
nodes = (
"781 760 OFFCURVE",
"810 739 OFFCURVE",
"810 705 CURVE SMOOTH",
"810 642 OFFCURVE",
"566 95 OFFCURVE",
"566 -10 CURVE",
"558 -10 OFFCURVE",
"524 0 OFFCURVE",
"524 47 CURVE SMOOTH",
"524 129 OFFCURVE",
"756 746 OFFCURVE",
"756 760 CURVE"
);
},
{
closed = 1;
nodes = (
"978 599 OFFCURVE",
"1004 575 OFFCURVE",
"1004 541 CURVE SMOOTH",
"1004 488 OFFCURVE",
"861 218 OFFCURVE",
"861 70 CURVE SMOOTH",
"861 -17 OFFCURVE",
"899 -47 OFFCURVE",
"907 -47 CURVE",
"907 -51 OFFCURVE",
"900 -63 OFFCURVE",
"880 -63 CURVE SMOOTH",
"845 -63 OFFCURVE",
"800 -10 OFFCURVE",
"800 81 CURVE SMOOTH",
"800 232 OFFCURVE",
"951 599 OFFCURVE",
"951 599 CURVE"
);
},
{
closed = 1;
nodes = (
"30 400 OFFCURVE",
"14 418 OFFCURVE",
"14 448 CURVE SMOOTH",
"14 643 OFFCURVE",
"442 812 OFFCURVE",
"518 812 CURVE",
"552 812 OFFCURVE",
"540 764 OFFCURVE",
"529 764 CURVE SMOOTH",
"442 764 OFFCURVE",
"56 559 OFFCURVE",
"56 400 CURVE"
);
},
{
closed = 1;
nodes = (
"547 67 OFFCURVE",
"920 599 OFFCURVE",
"951 599 CURVE",
"942 529 LINE",
"925 529 OFFCURVE",
"566 20 OFFCURVE",
"566 -10 CURVE",
"547 37 LINE"
);
}
);
width = 1020;
}
);
unicode = 004D;
},
{
color = 1;
glyphname = N;
lastChange = "2016-08-20 02:19:15 +0000";
layers = (
{
background = {
backgroundImage = {
crop = "{{0, 0}, {396.30000000000001, 312.30000000000001}}";
imagePath = Skany/N4.jpg;
transform = "{2.903, 0, 0, 2.903, -142, -75}";
};
};
layerId = "2CA0DBAD-D64B-45C4-9A33-36C1DBAC27D7";
paths = (
{
closed = 1;
nodes = (
"238 629 OFFCURVE",
"296 1 OFFCURVE",
"397 1 CURVE SMOOTH",
"424 1 OFFCURVE",
"418 37 OFFCURVE",
"418 68 CURVE",
"387 68 OFFCURVE",
"310 408 OFFCURVE",
"310 767 CURVE SMOOTH",
"310 811 OFFCURVE",
"269 819 OFFCURVE",
"238 819 CURVE"
);
},
{
closed = 1;
nodes = (
"512 666 OFFCURVE",
"392 111 OFFCURVE",
"392 51 CURVE SMOOTH",
"392 -9 OFFCURVE",
"388 3 OFFCURVE",
"415 3 CURVE",
"442 3 OFFCURVE",
"555 646 OFFCURVE",
"578 646 CURVE",
"542 666 LINE"
);
},
{
closed = 1;
nodes = (
"560 631 LINE",
"593 631 OFFCURVE",
"906 689 OFFCURVE",
"906 689 CURVE",
"906 697 OFFCURVE",
"893 733 OFFCURVE",
"836 724 CURVE SMOOTH",
"717 706 OFFCURVE",
"602 680 OFFCURVE",
"541 666 CURVE"
);
},
{
closed = 1;
nodes = (
"45 15 OFFCURVE",
"59 -3 OFFCURVE",
"87 0 CURVE",
"87 312 OFFCURVE",
"270 737 OFFCURVE",
"270 773 CURVE SMOOTH",
"270 803 OFFCURVE",
"250 819 OFFCURVE",
"235 819 CURVE",
"228 819 OFFCURVE",
"45 382 OFFCURVE",
"45 51 CURVE SMOOTH"
);
}
);
width = 910;
}
);
unicode = 004E;
},
{
color = 1;
glyphname = O;
lastChange = "2016-08-20 08:43:59 +0000";
layers = (
{
background = {
backgroundImage = {
crop = "{{0, 0}, {306.30000000000001, 315.89999999999998}}";
imagePath = Skany/O3.jpg;
transform = "{2.882, 0, 0, 2.882, -49, -79}";
};
};
layerId = "2CA0DBAD-D64B-45C4-9A33-36C1DBAC27D7";
paths = (
{
closed = 1;
nodes = (
"401 574 OFFCURVE",
"282 368 OFFCURVE",
"282 199 CURVE SMOOTH",
"282 66 OFFCURVE",
"362 -36 OFFCURVE",
"425 -36 CURVE SMOOTH",
"501 -36 OFFCURVE",
"814 183 OFFCURVE",
"814 519 CURVE SMOOTH",
"814 704 OFFCURVE",
"689 770 OFFCURVE",
"554 770 CURVE SMOOTH",
"254 770 OFFCURVE",
"18 560 OFFCURVE",
"18 386 CURVE SMOOTH",
"18 218 OFFCURVE",
"162 137 OFFCURVE",
"283 137 CURVE SMOOTH",
"421 137 OFFCURVE",
"520 181 OFFCURVE",
"541 204 CURVE SMOOTH",
"562 227 OFFCURVE",
"560 248 OFFCURVE",
"549 258 CURVE",
"549 258 OFFCURVE",
"432 190 OFFCURVE",
"308 190 CURVE SMOOTH",
"173 190 OFFCURVE",
"72 240 OFFCURVE",
"72 356 CURVE SMOOTH",
"72 460 OFFCURVE",
"252 715 OFFCURVE",
"595 715 CURVE SMOOTH",
"708 715 OFFCURVE",
"760 657 OFFCURVE",
"760 552 CURVE SMOOTH",
"760 249 OFFCURVE",
"476 5 OFFCURVE",
"428 5 CURVE SMOOTH",
"390 5 OFFCURVE",
"342 71 OFFCURVE",
"342 143 CURVE SMOOTH",
"342 337 OFFCURVE",
"468 490 OFFCURVE",
"468 534 CURVE SMOOTH",
"468 559 OFFCURVE",
"430 574 OFFCURVE",
"414 574 CURVE"
);
}
);
width = 830;
},
{
associatedMasterId = "2CA0DBAD-D64B-45C4-9A33-36C1DBAC27D7";
layerId = "A58DD92A-5E58-4246-91F5-B399B032B656";
name = "Regular Aug 14 16, 19:47";
paths = (
{
closed = 1;
nodes = (
"391 578 OFFCURVE",
"272 332 OFFCURVE",
"272 203 CURVE SMOOTH",
"272 74 OFFCURVE",
"352 -28 OFFCURVE",
"415 -28 CURVE SMOOTH",
"491 -28 OFFCURVE",
"773 292 OFFCURVE",
"773 519 CURVE SMOOTH",
"773 700 OFFCURVE",
"659 766 OFFCURVE",
"544 766 CURVE SMOOTH",
"292 766 OFFCURVE",
"8 560 OFFCURVE",
"8 386 CURVE SMOOTH",
"8 218 OFFCURVE",
"152 147 OFFCURVE",
"273 147 CURVE SMOOTH",
"411 147 OFFCURVE",
"526 192 OFFCURVE",
"541 216 CURVE SMOOTH",
"550 231 OFFCURVE",
"548 247 OFFCURVE",
"537 257 CURVE",
"537 257 OFFCURVE",
"422 190 OFFCURVE",
"298 190 CURVE SMOOTH",
"163 190 OFFCURVE",
"65 250 OFFCURVE",
"65 366 CURVE SMOOTH",
"65 470 OFFCURVE",
"270 721 OFFCURVE",
"585 721 CURVE SMOOTH",
"671 721 OFFCURVE",
"729 653 OFFCURVE",
"729 552 CURVE SMOOTH",
"729 388 OFFCURVE",
"466 13 OFFCURVE",
"418 13 CURVE SMOOTH",
"380 13 OFFCURVE",
"332 79 OFFCURVE",
"332 147 CURVE SMOOTH",
"332 301 OFFCURVE",
"458 494 OFFCURVE",
"458 538 CURVE SMOOTH",
"458 563 OFFCURVE",
"420 578 OFFCURVE",
"404 578 CURVE"
);
}
);
width = 790;
},
{
associatedMasterId = "2CA0DBAD-D64B-45C4-9A33-36C1DBAC27D7";
layerId = "5EFA25A4-4F76-48EA-9F0E-C7925CE69B00";
name = "Regular Aug 16 16, 23:39";
paths = (
{
closed = 1;
nodes = (
"391 578 OFFCURVE",
"272 372 OFFCURVE",
"272 203 CURVE SMOOTH",
"272 74 OFFCURVE",
"352 -28 OFFCURVE",
"415 -28 CURVE SMOOTH",
"491 -28 OFFCURVE",
"794 247 OFFCURVE",
"794 519 CURVE SMOOTH",
"794 700 OFFCURVE",
"679 766 OFFCURVE",
"544 766 CURVE SMOOTH",
"244 766 OFFCURVE",
"8 560 OFFCURVE",
"8 386 CURVE SMOOTH",
"8 218 OFFCURVE",
"152 137 OFFCURVE",
"273 137 CURVE SMOOTH",
"411 137 OFFCURVE",
"526 182 OFFCURVE",
"541 206 CURVE SMOOTH",
"550 221 OFFCURVE",
"548 237 OFFCURVE",
"537 247 CURVE",
"537 247 OFFCURVE",
"422 190 OFFCURVE",
"298 190 CURVE SMOOTH",
"163 190 OFFCURVE",
"62 240 OFFCURVE",
"62 356 CURVE SMOOTH",
"62 460 OFFCURVE",
"242 721 OFFCURVE",
"585 721 CURVE SMOOTH",
"698 721 OFFCURVE",
"750 653 OFFCURVE",
"750 552 CURVE SMOOTH",
"750 313 OFFCURVE",
"466 13 OFFCURVE",
"418 13 CURVE SMOOTH",
"380 13 OFFCURVE",
"332 79 OFFCURVE",
"332 147 CURVE SMOOTH",
"332 341 OFFCURVE",
"458 494 OFFCURVE",
"458 538 CURVE SMOOTH",
"458 563 OFFCURVE",
"420 578 OFFCURVE",
"404 578 CURVE"
);
}
);
width = 790;
}
);
unicode = 004F;
},
{
color = 1;
glyphname = P;
lastChange = "2016-08-20 08:44:29 +0000";
layers = (
{
background = {
backgroundImage = {
crop = "{{0, 0}, {396.30000000000001, 235.5}}";
imagePath = Skany/PB.jpg;
transform = "{4.222, 0, 0, 4.222, -185, -153}";
};
};
layerId = "2CA0DBAD-D64B-45C4-9A33-36C1DBAC27D7";
paths = (
{
closed = 1;
nodes = (
"547 819 OFFCURVE",
"292 423 OFFCURVE",
"320 -21 CURVE",
"351 -21 OFFCURVE",
"365 -1 OFFCURVE",
"365 35 CURVE SMOOTH",
"365 390 OFFCURVE",
"596 734 OFFCURVE",
"596 773 CURVE SMOOTH",
"596 801 OFFCURVE",
"562 818 OFFCURVE",
"547 819 CURVE"
);
},
{
closed = 1;
nodes = (
"219 196 OFFCURVE",
"237 172 OFFCURVE",
"278 172 CURVE SMOOTH",
"536 172 OFFCURVE",
"897 310 OFFCURVE",
"897 581 CURVE SMOOTH",
"897 662 OFFCURVE",
"782 760 OFFCURVE",
"590 761 CURVE SMOOTH",
"293 763 OFFCURVE",
"16 564 OFFCURVE",
"16 331 CURVE SMOOTH",
"16 135 OFFCURVE",
"177 65 OFFCURVE",
"256 65 CURVE SMOOTH",
"280 65 OFFCURVE",
"298 76 OFFCURVE",
"298 93 CURVE",
"244 93 OFFCURVE",
"71 148 OFFCURVE",
"71 303 CURVE SMOOTH",
"71 518 OFFCURVE",
"350 706 OFFCURVE",
"607 706 CURVE SMOOTH",
"756 706 OFFCURVE",
"850 671 OFFCURVE",
"850 580 CURVE SMOOTH",
"850 338 OFFCURVE",
"443 230 OFFCURVE",
"219 230 CURVE"
);
}
);
width = 910;
},
{
associatedMasterId = "2CA0DBAD-D64B-45C4-9A33-36C1DBAC27D7";
layerId = "4C9D1DC1-5C33-423C-BE35-8D575DF60C9C";
name = "Regular Aug 10 16, 21:02";
paths = (
{
closed = 1;
nodes = (
"482 694 OFFCURVE",
"349 431 OFFCURVE",
"323 140 CURVE SMOOTH",
"315 51 OFFCURVE",
"318 -40 OFFCURVE",
"318 -40 CURVE",
"343 -40 OFFCURVE",
"359 -21 OFFCURVE",
"361 5 CURVE SMOOTH",
"365 60 OFFCURVE",
"369 112 OFFCURVE",
"373 161 CURVE SMOOTH",
"387 336 OFFCURVE",
"531 622 OFFCURVE",
"533 647 CURVE SMOOTH",
"535 675 OFFCURVE",
"508 692 OFFCURVE",
"493 693 CURVE"
);
},
{
closed = 1;
nodes = (
"238 257 OFFCURVE",
"246 227 OFFCURVE",
"287 223 CURVE SMOOTH",
"425 210 OFFCURVE",
"842 290 OFFCURVE",
"870 596 CURVE SMOOTH",
"878 681 OFFCURVE",
"777 748 OFFCURVE",
"672 757 CURVE SMOOTH",
"327 789 OFFCURVE",
"45 627 OFFCURVE",
"28 436 CURVE SMOOTH",
"10 236 OFFCURVE",
"174 158 OFFCURVE",
"267 149 CURVE SMOOTH",
"291 147 OFFCURVE",
"307 163 OFFCURVE",
"308 180 CURVE",
"231 187 OFFCURVE",
"63 258 OFFCURVE",
"77 409 CURVE SMOOTH",
"90 559 OFFCURVE",
"360 744 OFFCURVE",
"689 714 CURVE SMOOTH",
"771 706 OFFCURVE",
"820 688 OFFCURVE",
"811 593 CURVE SMOOTH",
"791 369 OFFCURVE",
"425 255 OFFCURVE",
"239 272 CURVE"
);
}
);
width = 790;
},
{
associatedMasterId = "2CA0DBAD-D64B-45C4-9A33-36C1DBAC27D7";
layerId = "37E212FE-F868-46E0-ACCB-6C18A4A03BD0";
name = "Regular Aug 10 16, 21:14";
paths = (
{
closed = 1;
nodes = (
"482 695 OFFCURVE",
"289 364 OFFCURVE",
"317 -40 CURVE",
"348 -40 OFFCURVE",
"362 -20 OFFCURVE",
"362 16 CURVE SMOOTH",
"362 331 OFFCURVE",
"531 610 OFFCURVE",
"531 649 CURVE SMOOTH",
"531 677 OFFCURVE",
"497 694 OFFCURVE",
"482 695 CURVE"
);
},
{
closed = 1;
nodes = (
"228 254 OFFCURVE",
"237 221 OFFCURVE",
"278 221 CURVE SMOOTH",
"536 221 OFFCURVE",
"858 359 OFFCURVE",
"858 599 CURVE SMOOTH",
"858 680 OFFCURVE",
"743 760 OFFCURVE",
"590 761 CURVE SMOOTH",
"293 763 OFFCURVE",
"16 602 OFFCURVE",
"16 369 CURVE SMOOTH",
"16 192 OFFCURVE",
"178 133 OFFCURVE",
"257 133 CURVE SMOOTH",
"281 133 OFFCURVE",
"298 147 OFFCURVE",
"298 164 CURVE",
"250 164 OFFCURVE",
"67 205 OFFCURVE",
"67 341 CURVE SMOOTH",
"67 556 OFFCURVE",
"350 715 OFFCURVE",
"607 715 CURVE SMOOTH",
"717 715 OFFCURVE",
"800 684 OFFCURVE",
"800 593 CURVE SMOOTH",
"800 382 OFFCURVE",
"453 269 OFFCURVE",
"229 269 CURVE"
);
}
);
width = 860;
},
{
associatedMasterId = "2CA0DBAD-D64B-45C4-9A33-36C1DBAC27D7";
layerId = "3AE5F6B6-1132-4B2D-96F0-DA95442D4F8A";
name = "Regular Aug 10 16, 21:27";
paths = (
{
closed = 1;
nodes = (
"463 674 OFFCURVE",
"290 343 OFFCURVE",
"318 -61 CURVE",
"349 -61 OFFCURVE",
"363 -41 OFFCURVE",
"363 -5 CURVE SMOOTH",
"363 310 OFFCURVE",
"512 589 OFFCURVE",
"512 628 CURVE SMOOTH",
"512 656 OFFCURVE",
"478 673 OFFCURVE",
"463 674 CURVE"
);
},
{
closed = 1;
nodes = (
"228 236 OFFCURVE",
"237 203 OFFCURVE",
"278 203 CURVE SMOOTH",
"536 203 OFFCURVE",
"897 341 OFFCURVE",
"897 581 CURVE SMOOTH",
"897 662 OFFCURVE",
"782 760 OFFCURVE",
"590 761 CURVE SMOOTH",
"293 763 OFFCURVE",
"16 584 OFFCURVE",
"16 351 CURVE SMOOTH",
"16 141 OFFCURVE",
"178 82 OFFCURVE",
"257 82 CURVE SMOOTH",
"281 82 OFFCURVE",
"298 96 OFFCURVE",
"298 113 CURVE",
"250 113 OFFCURVE",
"67 154 OFFCURVE",
"67 323 CURVE SMOOTH",
"67 538 OFFCURVE",
"350 715 OFFCURVE",
"607 715 CURVE SMOOTH",
"756 715 OFFCURVE",
"839 666 OFFCURVE",
"839 575 CURVE SMOOTH",
"839 364 OFFCURVE",
"453 251 OFFCURVE",
"229 251 CURVE"
);
}
);
width = 920;
},
{
associatedMasterId = "2CA0DBAD-D64B-45C4-9A33-36C1DBAC27D7";
layerId = "7358816A-C02B-4327-8CF6-354C0ECC3098";
name = "Regular Aug 10 16, 23:48";
paths = (
{
closed = 1;
nodes = (
"483 674 OFFCURVE",
"292 383 OFFCURVE",
"320 -21 CURVE",
"351 -21 OFFCURVE",
"365 -1 OFFCURVE",
"365 35 CURVE SMOOTH",
"365 350 OFFCURVE",
"532 589 OFFCURVE",
"532 628 CURVE SMOOTH",
"532 656 OFFCURVE",
"498 673 OFFCURVE",
"483 674 CURVE"
);
},
{
closed = 1;
nodes = (
"219 196 OFFCURVE",
"237 172 OFFCURVE",
"278 172 CURVE SMOOTH",
"536 172 OFFCURVE",
"897 310 OFFCURVE",
"897 581 CURVE SMOOTH",
"897 662 OFFCURVE",
"782 760 OFFCURVE",
"590 761 CURVE SMOOTH",
"293 763 OFFCURVE",
"16 564 OFFCURVE",
"16 331 CURVE SMOOTH",
"16 135 OFFCURVE",
"177 65 OFFCURVE",
"256 65 CURVE SMOOTH",
"280 65 OFFCURVE",
"298 76 OFFCURVE",
"298 93 CURVE",
"244 93 OFFCURVE",
"71 148 OFFCURVE",
"71 303 CURVE SMOOTH",
"71 518 OFFCURVE",
"350 706 OFFCURVE",
"607 706 CURVE SMOOTH",
"756 706 OFFCURVE",
"850 671 OFFCURVE",
"850 580 CURVE SMOOTH",
"850 338 OFFCURVE",
"443 230 OFFCURVE",
"219 230 CURVE"
);
}
);
width = 920;
visible = 1;
}
);
unicode = 0050;
},
{
color = 1;
glyphname = Q;
lastChange = "2016-08-20 02:45:15 +0000";
layers = (
{
associatedMasterId = "2CA0DBAD-D64B-45C4-9A33-36C1DBAC27D7";
layerId = "928F81FF-FC4E-4FA6-8FE2-A06133DC8CEE";
name = "Regular Aug 19 16, 20:59";
paths = (
{
closed = 1;
nodes = (
"374 606 OFFCURVE",
"248 391 OFFCURVE",
"248 203 CURVE SMOOTH",
"248 65 OFFCURVE",
"336 -31 OFFCURVE",
"390 -31 CURVE SMOOTH",
"444 -31 OFFCURVE",
"795 216 OFFCURVE",
"795 522 CURVE SMOOTH",
"795 748 OFFCURVE",
"580 800 OFFCURVE",
"490 800 CURVE SMOOTH",
"228 800 OFFCURVE",
"-7 584 OFFCURVE",
"-7 411 CURVE SMOOTH",
"-7 82 OFFCURVE",
"704 236 OFFCURVE",
"704 -22 CURVE SMOOTH",
"704 -125 OFFCURVE",
"641 -214 OFFCURVE",
"641 -225 CURVE",
"641 -236 OFFCURVE",
"658 -255 OFFCURVE",
"686 -255 CURVE SMOOTH",
"714 -255 OFFCURVE",
"765 -104 OFFCURVE",
"765 -31 CURVE SMOOTH",
"765 263 OFFCURVE",
"41 142 OFFCURVE",
"41 390 CURVE SMOOTH",
"41 503 OFFCURVE",
"282 754 OFFCURVE",
"521 754 CURVE SMOOTH",
"694 754 OFFCURVE",
"734 665 OFFCURVE",
"734 537 CURVE SMOOTH",
"734 260 OFFCURVE",
"457 12 OFFCURVE",
"389 12 CURVE SMOOTH",
"361 12 OFFCURVE",
"308 68 OFFCURVE",
"308 147 CURVE SMOOTH",
"308 321 OFFCURVE",
"447 544 OFFCURVE",
"447 566 CURVE SMOOTH",
"447 588 OFFCURVE",
"429 606 OFFCURVE",
"394 606 CURVE"
);
}
);
width = 810;
},
{
associatedMasterId = "2CA0DBAD-D64B-45C4-9A33-36C1DBAC27D7";
layerId = "CFBB9CC2-92D2-448E-BE9C-0CCFC41B74FC";
name = "Regular Aug 19 16, 21:04";
paths = (
{
closed = 1;
nodes = (
"73 556 OFFCURVE",
"376 715 OFFCURVE",
"595 715 CURVE SMOOTH",
"708 715 OFFCURVE",
"760 657 OFFCURVE",
"760 552 CURVE SMOOTH",
"760 249 OFFCURVE",
"476 5 OFFCURVE",
"428 5 CURVE SMOOTH",
"390 5 OFFCURVE",
"342 71 OFFCURVE",
"342 143 CURVE SMOOTH",
"342 337 OFFCURVE",
"468 490 OFFCURVE",
"468 534 CURVE SMOOTH",
"468 559 OFFCURVE",
"430 574 OFFCURVE",
"414 574 CURVE",
"401 574 OFFCURVE",
"282 368 OFFCURVE",
"282 199 CURVE SMOOTH",
"282 66 OFFCURVE",
"362 -36 OFFCURVE",
"425 -36 CURVE SMOOTH",
"501 -36 OFFCURVE",
"814 183 OFFCURVE",
"814 519 CURVE SMOOTH",
"814 704 OFFCURVE",
"689 770 OFFCURVE",
"554 770 CURVE SMOOTH",
"326 770 OFFCURVE",
"20 600 OFFCURVE",
"20 411 CURVE SMOOTH",
"20 82 OFFCURVE",
"737 239 OFFCURVE",
"737 -19 CURVE SMOOTH",
"737 -122 OFFCURVE",
"638 -215 OFFCURVE",
"638 -215 CURVE",
"638 -226 OFFCURVE",
"655 -255 OFFCURVE",
"683 -255 CURVE SMOOTH",
"711 -255 OFFCURVE",
"792 -139 OFFCURVE",
"792 -31 CURVE SMOOTH",
"792 298 OFFCURVE",
"73 142 OFFCURVE",
"73 390 CURVE SMOOTH"
);
}
);
width = 830;
},
{
associatedMasterId = "2CA0DBAD-D64B-45C4-9A33-36C1DBAC27D7";
background = {
backgroundImage = {
crop = "{{0, 0}, {287.69999999999999, 363.89999999999998}}";
imagePath = Skany/Q2.jpg;
transform = "{3.240, 0, 0, 3.224, -35, -336}";
};
};
layerId = "7A1C6CBD-E0F1-41D1-8CEB-08136E0F4696";
name = "Regular Aug 19 16, 21:22";
paths = (
{
closed = 1;
nodes = (
"58 676 OFFCURVE",
"321 770 OFFCURVE",
"484 770 CURVE SMOOTH",
"619 770 OFFCURVE",
"744 704 OFFCURVE",
"744 519 CURVE SMOOTH",
"744 183 OFFCURVE",
"431 -36 OFFCURVE",
"355 -36 CURVE SMOOTH",
"292 -36 OFFCURVE",
"212 66 OFFCURVE",
"212 199 CURVE SMOOTH",
"212 368 OFFCURVE",
"331 574 OFFCURVE",
"344 574 CURVE",
"360 574 OFFCURVE",
"398 559 OFFCURVE",
"398 534 CURVE SMOOTH",
"398 490 OFFCURVE",
"272 337 OFFCURVE",
"272 143 CURVE SMOOTH",
"272 71 OFFCURVE",
"320 5 OFFCURVE",
"358 5 CURVE SMOOTH",
"406 5 OFFCURVE",
"690 249 OFFCURVE",
"690 552 CURVE SMOOTH",
"690 657 OFFCURVE",
"638 715 OFFCURVE",
"525 715 CURVE SMOOTH",
"375 715 OFFCURVE",
"111 599 OFFCURVE",
"111 433 CURVE",
"111 240 OFFCURVE",
"605 -67 OFFCURVE",
"920 -67 CURVE",
"920 -92 OFFCURVE",
"884 -123 OFFCURVE",
"832 -123 CURVE SMOOTH",
"730 -123 OFFCURVE",
"58 111 OFFCURVE",
"58 444 CURVE SMOOTH"
);
}
);
width = 760;
},
{
layerId = "2CA0DBAD-D64B-45C4-9A33-36C1DBAC27D7";
paths = (
{
closed = 1;
nodes = (
"38 713 OFFCURVE",
"223 770 OFFCURVE",
"356 770 CURVE SMOOTH",
"549 770 OFFCURVE",
"674 704 OFFCURVE",
"674 519 CURVE SMOOTH",
"674 183 OFFCURVE",
"361 -36 OFFCURVE",
"285 -36 CURVE SMOOTH",
"222 -36 OFFCURVE",
"142 66 OFFCURVE",
"142 199 CURVE SMOOTH",
"142 368 OFFCURVE",
"261 574 OFFCURVE",
"274 574 CURVE",
"290 574 OFFCURVE",
"328 559 OFFCURVE",
"328 534 CURVE SMOOTH",
"328 490 OFFCURVE",
"202 337 OFFCURVE",
"202 143 CURVE SMOOTH",
"202 71 OFFCURVE",
"250 5 OFFCURVE",
"288 5 CURVE SMOOTH",
"336 5 OFFCURVE",
"620 249 OFFCURVE",
"620 552 CURVE SMOOTH",
"620 657 OFFCURVE",
"568 715 OFFCURVE",
"397 715 CURVE SMOOTH",
"257 715 OFFCURVE",
"91 648 OFFCURVE",
"91 508 CURVE SMOOTH",
"91 343 OFFCURVE",
"432 -83 OFFCURVE",
"892 -83 CURVE",
"895 -101 OFFCURVE",
"873 -131 OFFCURVE",
"819 -131 CURVE SMOOTH",
"504 -131 OFFCURVE",
"38 240 OFFCURVE",
"38 535 CURVE SMOOTH"
);
}
);
width = 900;
},
{
associatedMasterId = "2CA0DBAD-D64B-45C4-9A33-36C1DBAC27D7";
layerId = "0F924B6E-7D56-43FB-8CD2-FF87378BE2D7";
name = "Regular Aug 20 16, 02:52";
paths = (
{
closed = 1;
nodes = (
"79 546 OFFCURVE",
"336 715 OFFCURVE",
"555 715 CURVE SMOOTH",
"668 715 OFFCURVE",
"720 657 OFFCURVE",
"720 552 CURVE SMOOTH",
"720 249 OFFCURVE",
"436 5 OFFCURVE",
"388 5 CURVE SMOOTH",
"350 5 OFFCURVE",
"302 71 OFFCURVE",
"302 143 CURVE SMOOTH",
"302 337 OFFCURVE",
"428 490 OFFCURVE",
"428 534 CURVE SMOOTH",
"428 559 OFFCURVE",
"390 574 OFFCURVE",
"374 574 CURVE",
"361 574 OFFCURVE",
"242 368 OFFCURVE",
"242 199 CURVE SMOOTH",
"242 66 OFFCURVE",
"322 -36 OFFCURVE",
"385 -36 CURVE SMOOTH",
"461 -36 OFFCURVE",
"774 183 OFFCURVE",
"774 519 CURVE SMOOTH",
"774 704 OFFCURVE",
"649 770 OFFCURVE",
"514 770 CURVE SMOOTH",
"286 770 OFFCURVE",
"26 590 OFFCURVE",
"26 401 CURVE SMOOTH",
"26 72 OFFCURVE",
"697 239 OFFCURVE",
"697 -19 CURVE SMOOTH",
"697 -122 OFFCURVE",
"638 -215 OFFCURVE",
"638 -215 CURVE",
"638 -226 OFFCURVE",
"656 -252 OFFCURVE",
"684 -252 CURVE SMOOTH",
"712 -252 OFFCURVE",
"752 -139 OFFCURVE",
"752 -31 CURVE SMOOTH",
"752 298 OFFCURVE",
"79 132 OFFCURVE",
"79 380 CURVE SMOOTH"
);
}
);
width = 790;
}
);
unicode = 0051;
},
{
color = 1;
glyphname = R;
lastChange = "2016-08-20 01:07:37 +0000";
layers = (
{
background = {
backgroundImage = {
crop = "{{0, 0}, {328.19999999999999, 315.59999999999997}}";
imagePath = Skany/R.jpg;
transform = "{3.098, 0, 0, 3.098, -28, -90}";
};
};
layerId = "2CA0DBAD-D64B-45C4-9A33-36C1DBAC27D7";
paths = (
{
closed = 1;
nodes = (
"97 69 OFFCURVE",
"110 60 OFFCURVE",
"160 60 CURVE SMOOTH",
"418 60 OFFCURVE",
"840 248 OFFCURVE",
"840 560 CURVE SMOOTH",
"840 665 OFFCURVE",
"698 760 OFFCURVE",
"506 761 CURVE SMOOTH",
"227 763 OFFCURVE",
"13 545 OFFCURVE",
"13 354 CURVE SMOOTH",
"13 55 OFFCURVE",
"427 2 OFFCURVE",
"644 2 CURVE SMOOTH",
"686 2 OFFCURVE",
"717 19 OFFCURVE",
"717 50 CURVE",
"408 50 OFFCURVE",
"68 118 OFFCURVE",
"68 327 CURVE SMOOTH",
"68 500 OFFCURVE",
"284 707 OFFCURVE",
"523 707 CURVE SMOOTH",
"672 707 OFFCURVE",
"794 650 OFFCURVE",
"794 559 CURVE SMOOTH",
"794 299 OFFCURVE",
"321 96 OFFCURVE",
"97 96 CURVE"
);
},
{
closed = 1;
nodes = (
"452 819 OFFCURVE",
"197 423 OFFCURVE",
"225 -21 CURVE",
"256 -21 OFFCURVE",
"270 -1 OFFCURVE",
"270 35 CURVE SMOOTH",
"270 390 OFFCURVE",
"501 734 OFFCURVE",
"501 773 CURVE SMOOTH",
"501 801 OFFCURVE",
"467 818 OFFCURVE",
"452 819 CURVE"
);
}
);
width = 850;
},
{
associatedMasterId = "2CA0DBAD-D64B-45C4-9A33-36C1DBAC27D7";
backgroundImage = {
crop = "{{0, 0}, {328.19999999999999, 315.59999999999997}}";
imagePath = Skany/R.jpg;
transform = "{3.098, 0, 0, 3.098, -28, -90}";
};
layerId = "8FD485C8-A80D-46C7-A164-8CB1769EAB37";
name = "Regular Aug 14 16, 11:09";
paths = (
{
closed = 1;
nodes = (
"483 674 OFFCURVE",
"292 383 OFFCURVE",
"320 -21 CURVE",
"351 -21 OFFCURVE",
"365 -1 OFFCURVE",
"365 35 CURVE SMOOTH",
"365 350 OFFCURVE",
"532 589 OFFCURVE",
"532 628 CURVE SMOOTH",
"532 656 OFFCURVE",
"498 673 OFFCURVE",
"483 674 CURVE"
);
},
{
closed = 1;
nodes = (
"212 105 OFFCURVE",
"221 72 OFFCURVE",
"262 72 CURVE SMOOTH",
"520 72 OFFCURVE",
"922 269 OFFCURVE",
"922 581 CURVE SMOOTH",
"922 662 OFFCURVE",
"782 781 OFFCURVE",
"590 782 CURVE SMOOTH",
"293 784 OFFCURVE",
"27 597 OFFCURVE",
"27 375 CURVE SMOOTH",
"27 124 OFFCURVE",
"330 115 OFFCURVE",
"380 115 CURVE SMOOTH",
"807 115 OFFCURVE",
"918 45 OFFCURVE",
"918 45 CURVE",
"933 45 OFFCURVE",
"915 83 OFFCURVE",
"881 110 CURVE SMOOTH",
"869 120 OFFCURVE",
"810 154 OFFCURVE",
"365 154 CURVE SMOOTH",
"325 154 OFFCURVE",
"78 180 OFFCURVE",
"78 347 CURVE SMOOTH",
"78 551 OFFCURVE",
"350 736 OFFCURVE",
"607 736 CURVE SMOOTH",
"756 736 OFFCURVE",
"864 666 OFFCURVE",
"864 575 CURVE SMOOTH",
"864 292 OFFCURVE",
"437 120 OFFCURVE",
"213 120 CURVE"
);
}
);
width = 920;
},
{
associatedMasterId = "2CA0DBAD-D64B-45C4-9A33-36C1DBAC27D7";
layerId = "70DD5BAA-65ED-474A-AD10-394A1D38208E";
name = "Regular Aug 14 16, 17:15";
paths = (
{
closed = 1;
nodes = (
"428 668 OFFCURVE",
"261 387 OFFCURVE",
"275 -17 CURVE",
"305 -19 OFFCURVE",
"320 1 OFFCURVE",
"322 37 CURVE SMOOTH",
"334 351 OFFCURVE",
"474 581 OFFCURVE",
"475 620 CURVE SMOOTH",
"477 648 OFFCURVE",
"442 667 OFFCURVE",
"428 668 CURVE"
);
},
{
closed = 1;
nodes = (
"140 91 OFFCURVE",
"150 63 OFFCURVE",
"200 63 CURVE SMOOTH",
"458 63 OFFCURVE",
"852 248 OFFCURVE",
"852 560 CURVE SMOOTH",
"852 641 OFFCURVE",
"712 760 OFFCURVE",
"520 761 CURVE SMOOTH",
"223 763 OFFCURVE",
"7 582 OFFCURVE",
"7 339 CURVE SMOOTH",
"7 92 OFFCURVE",
"438 -3 OFFCURVE",
"750 -3 CURVE SMOOTH",
"792 -3 OFFCURVE",
"823 19 OFFCURVE",
"823 50 CURVE",
"419 50 OFFCURVE",
"62 155 OFFCURVE",
"62 312 CURVE SMOOTH",
"62 537 OFFCURVE",
"280 707 OFFCURVE",
"537 707 CURVE SMOOTH",
"686 707 OFFCURVE",
"806 650 OFFCURVE",
"806 559 CURVE SMOOTH",
"806 276 OFFCURVE",
"365 106 OFFCURVE",
"141 106 CURVE"
);
}
);
width = 860;
},
{
associatedMasterId = "2CA0DBAD-D64B-45C4-9A33-36C1DBAC27D7";
layerId = "AD1901FA-290E-4785-9893-9BE8A151BBBE";
name = "Regular Aug 16 16, 22:42";
paths = (
{
closed = 1;
nodes = (
"140 91 OFFCURVE",
"150 63 OFFCURVE",
"200 63 CURVE SMOOTH",
"458 63 OFFCURVE",
"852 248 OFFCURVE",
"852 560 CURVE SMOOTH",
"852 665 OFFCURVE",
"712 760 OFFCURVE",
"520 761 CURVE SMOOTH",
"223 763 OFFCURVE",
"7 524 OFFCURVE",
"7 365 CURVE SMOOTH",
"7 66 OFFCURVE",
"540 -3 OFFCURVE",
"852 -3 CURVE SMOOTH",
"894 -3 OFFCURVE",
"925 19 OFFCURVE",
"925 50 CURVE",
"521 50 OFFCURVE",
"62 129 OFFCURVE",
"62 338 CURVE SMOOTH",
"62 479 OFFCURVE",
"280 707 OFFCURVE",
"537 707 CURVE SMOOTH",
"686 707 OFFCURVE",
"806 650 OFFCURVE",
"806 559 CURVE SMOOTH",
"806 276 OFFCURVE",
"365 106 OFFCURVE",
"141 106 CURVE"
);
},
{
closed = 1;
nodes = (
"502 819 OFFCURVE",
"247 423 OFFCURVE",
"275 -21 CURVE",
"306 -21 OFFCURVE",
"320 -1 OFFCURVE",
"320 35 CURVE SMOOTH",
"320 390 OFFCURVE",
"551 734 OFFCURVE",
"551 773 CURVE SMOOTH",
"551 801 OFFCURVE",
"517 818 OFFCURVE",
"502 819 CURVE"
);
}
);
width = 860;
},
{
associatedMasterId = "2CA0DBAD-D64B-45C4-9A33-36C1DBAC27D7";
layerId = "C06F963B-CD74-4CBB-9B9B-4C4D5FB2F457";
name = "Regular Aug 16 16, 22:44";
paths = (
{
closed = 1;
nodes = (
"140 91 OFFCURVE",
"150 63 OFFCURVE",
"200 63 CURVE SMOOTH",
"458 63 OFFCURVE",
"852 248 OFFCURVE",
"852 560 CURVE SMOOTH",
"852 665 OFFCURVE",
"712 760 OFFCURVE",
"520 761 CURVE SMOOTH",
"223 763 OFFCURVE",
"7 524 OFFCURVE",
"7 365 CURVE SMOOTH",
"7 66 OFFCURVE",
"540 -3 OFFCURVE",
"852 -3 CURVE SMOOTH",
"894 -3 OFFCURVE",
"925 19 OFFCURVE",
"925 50 CURVE",
"521 50 OFFCURVE",
"62 129 OFFCURVE",
"62 338 CURVE SMOOTH",
"62 479 OFFCURVE",
"280 707 OFFCURVE",
"537 707 CURVE SMOOTH",
"686 707 OFFCURVE",
"806 650 OFFCURVE",
"806 559 CURVE SMOOTH",
"806 276 OFFCURVE",
"365 106 OFFCURVE",
"141 106 CURVE"
);
},
{
closed = 1;
nodes = (
"502 819 OFFCURVE",
"247 423 OFFCURVE",
"275 -21 CURVE",
"306 -21 OFFCURVE",
"320 -1 OFFCURVE",
"320 35 CURVE SMOOTH",
"320 390 OFFCURVE",
"551 734 OFFCURVE",
"551 773 CURVE SMOOTH",
"551 801 OFFCURVE",
"517 818 OFFCURVE",
"502 819 CURVE"
);
}
);
width = 900;
}
);
unicode = 0052;
},
{
color = 1;
glyphname = S;
lastChange = "2016-08-20 02:49:55 +0000";
layers = (
{
background = {
backgroundImage = {
crop = "{{0, 0}, {679.19999999999993, 309}}";
imagePath = Skany/S2.jpg;
transform = "{3.098, 0, 0, 3.098, -62, -124}";
};
};
layerId = "2CA0DBAD-D64B-45C4-9A33-36C1DBAC27D7";
paths = (
{
closed = 1;
nodes = (
"886 583 OFFCURVE",
"833 757 OFFCURVE",
"491 757 CURVE SMOOTH",
"249 757 OFFCURVE",
"97 618 OFFCURVE",
"97 453 CURVE SMOOTH",
"97 136 OFFCURVE",
"701 273 OFFCURVE",
"701 106 CURVE SMOOTH",
"701 72 OFFCURVE",
"607 48 OFFCURVE",
"508 48 CURVE SMOOTH",
"387 48 OFFCURVE",
"292 101 OFFCURVE",
"252 142 CURVE",
"244 142 OFFCURVE",
"234 128 OFFCURVE",
"250 106 CURVE SMOOTH",
"259 94 OFFCURVE",
"317 -5 OFFCURVE",
"504 -5 CURVE SMOOTH",
"673 -5 OFFCURVE",
"746 40 OFFCURVE",
"746 112 CURVE SMOOTH",
"746 365 OFFCURVE",
"143 211 OFFCURVE",
"143 445 CURVE SMOOTH",
"143 539 OFFCURVE",
"278 688 OFFCURVE",
"548 688 CURVE SMOOTH",
"685 688 OFFCURVE",
"859 612 OFFCURVE",
"859 499 CURVE",
"882 499 OFFCURVE",
"886 512 OFFCURVE",
"886 522 CURVE SMOOTH"
);
},
{
closed = 1;
nodes = (
"965 737 OFFCURVE",
"845 514 OFFCURVE",
"845 454 CURVE SMOOTH",
"845 422 OFFCURVE",
"862 413 OFFCURVE",
"873 413 CURVE",
"884 413 OFFCURVE",
"1006 681 OFFCURVE",
"1006 699 CURVE SMOOTH",
"1006 717 OFFCURVE",
"998 737 OFFCURVE",
"976 737 CURVE"
);
}
);
width = 1010;
},
{
associatedMasterId = "2CA0DBAD-D64B-45C4-9A33-36C1DBAC27D7";
layerId = "545B5760-35FC-417E-9D0F-DFE1B63D1571";
name = "Regular Aug 20 16, 04:20";
paths = (
{
closed = 1;
nodes = (
"886 583 OFFCURVE",
"833 757 OFFCURVE",
"491 757 CURVE SMOOTH",
"214 757 OFFCURVE",
"2 603 OFFCURVE",
"2 438 CURVE SMOOTH",
"2 121 OFFCURVE",
"704 273 OFFCURVE",
"704 106 CURVE SMOOTH",
"704 72 OFFCURVE",
"607 48 OFFCURVE",
"487 48 CURVE SMOOTH",
"386 48 OFFCURVE",
"192 112 OFFCURVE",
"192 142 CURVE",
"174 142 OFFCURVE",
"178 131 OFFCURVE",
"178 117 CURVE SMOOTH",
"178 103 OFFCURVE",
"293 -5 OFFCURVE",
"483 -5 CURVE SMOOTH",
"673 -5 OFFCURVE",
"746 40 OFFCURVE",
"746 112 CURVE SMOOTH",
"746 365 OFFCURVE",
"40 196 OFFCURVE",
"40 430 CURVE SMOOTH",
"40 524 OFFCURVE",
"243 688 OFFCURVE",
"548 688 CURVE SMOOTH",
"685 688 OFFCURVE",
"859 612 OFFCURVE",
"859 499 CURVE",
"882 499 OFFCURVE",
"886 512 OFFCURVE",
"886 522 CURVE SMOOTH"
);
},
{
closed = 1;
nodes = (
"965 737 OFFCURVE",
"845 514 OFFCURVE",
"845 454 CURVE SMOOTH",
"845 422 OFFCURVE",
"862 413 OFFCURVE",
"873 413 CURVE",
"884 413 OFFCURVE",
"1006 681 OFFCURVE",
"1006 699 CURVE SMOOTH",
"1006 717 OFFCURVE",
"998 737 OFFCURVE",
"976 737 CURVE"
);
}
);
width = 1010;
}
);
unicode = 0053;
},
{
color = 1;
glyphname = T;
lastChange = "2016-08-20 08:37:19 +0000";
layers = (
{
background = {
backgroundImage = {
crop = "{{0, 0}, {326.09999999999997, 344.39999999999998}}";
imagePath = Skany/T.jpg;
transform = "{3.219, 0, 0, 3.219, -80, -185}";
};
};
layerId = "2CA0DBAD-D64B-45C4-9A33-36C1DBAC27D7";
paths = (
{
closed = 1;
nodes = (
"235 0 OFFCURVE",
"264 -7 OFFCURVE",
"280 -7 CURVE",
"280 34 OFFCURVE",
"443 481 OFFCURVE",
"443 583 CURVE SMOOTH",
"443 685 OFFCURVE",
"368 760 OFFCURVE",
"252 760 CURVE SMOOTH",
"124 760 OFFCURVE",
"15 726 OFFCURVE",
"15 673 CURVE SMOOTH",
"15 603 OFFCURVE",
"130 594 OFFCURVE",
"268 594 CURVE SMOOTH",
"509 594 OFFCURVE",
"772 694 OFFCURVE",
"811 715 CURVE SMOOTH",
"855 739 OFFCURVE",
"850 778 OFFCURVE",
"838 791 CURVE",
"826 791 OFFCURVE",
"483 642 OFFCURVE",
"210 642 CURVE SMOOTH",
"103 642 OFFCURVE",
"70 640 OFFCURVE",
"70 660 CURVE SMOOTH",
"70 680 OFFCURVE",
"142 706 OFFCURVE",
"267 706 CURVE SMOOTH",
"343 706 OFFCURVE",
"393 679 OFFCURVE",
"393 620 CURVE SMOOTH",
"393 483 OFFCURVE",
"235 90 OFFCURVE",
"235 35 CURVE SMOOTH"
);
}
);
width = 850;
},
{
associatedMasterId = "2CA0DBAD-D64B-45C4-9A33-36C1DBAC27D7";
layerId = "D7ACC52C-583F-4197-9028-1A71D36D020E";
name = "Regular Aug 20 16, 04:24";
paths = (
{
closed = 1;
nodes = (
"247 8 OFFCURVE",
"275 -4 OFFCURVE",
"302 -4 CURVE",
"302 -4 OFFCURVE",
"477 692 OFFCURVE",
"477 716 CURVE SMOOTH",
"477 740 OFFCURVE",
"456 728 OFFCURVE",
"442 728 CURVE",
"428 728 OFFCURVE",
"247 60 OFFCURVE",
"247 37 CURVE"
);
},
{
closed = 1;
nodes = (
"436 660 OFFCURVE",
"344 598 OFFCURVE",
"220 598 CURVE SMOOTH",
"101 598 OFFCURVE",
"47 636 OFFCURVE",
"47 656 CURVE SMOOTH",
"47 706 OFFCURVE",
"438 718 OFFCURVE",
"842 718 CURVE",
"842 760 OFFCURVE",
"794 776 OFFCURVE",
"715 776 CURVE SMOOTH",
"246 776 OFFCURVE",
"4 735 OFFCURVE",
"4 682 CURVE SMOOTH",
"4 639 OFFCURVE",
"89 555 OFFCURVE",
"262 555 CURVE SMOOTH",
"394 555 OFFCURVE",
"469 651 OFFCURVE",
"469 687 CURVE SMOOTH",
"469 723 OFFCURVE",
"458 739 OFFCURVE",
"436 739 CURVE SMOOTH"
);
}
);
width = 850;
}
);
unicode = 0054;
},
{
color = 1;
glyphname = U;
lastChange = "2016-08-20 02:49:52 +0000";
layers = (
{
background = {
backgroundImage = {
crop = "{{0, 0}, {1009.1999999999999, 334.19999999999999}}";
imagePath = "Skany/U-kopia.jpg";
transform = "{3.057, 0, 0, 3.057, -69.855, -157.966}";
};
};
components = (
{
name = j_petelka;
transform = "{1.2143, -0.3056, 0.3056, 1.2143, 146, 161}";
}
);
layerId = "2CA0DBAD-D64B-45C4-9A33-36C1DBAC27D7";
paths = (
{
closed = 1;
nodes = (
"152 769 OFFCURVE",
"17 421 OFFCURVE",
"17 200 CURVE SMOOTH",
"17 30 OFFCURVE",
"113 -3 OFFCURVE",
"137 -3 CURVE SMOOTH",
"188 -3 OFFCURVE",
"444 485 OFFCURVE",
"469 538 CURVE SMOOTH",
"483 568 OFFCURVE",
"463 564 OFFCURVE",
"445 564 CURVE",
"445 564 OFFCURVE",
"143 47 OFFCURVE",
"134 47 CURVE SMOOTH",
"103 47 OFFCURVE",
"79 106 OFFCURVE",
"79 148 CURVE SMOOTH",
"79 380 OFFCURVE",
"216 668 OFFCURVE",
"216 700 CURVE SMOOTH",
"216 752 OFFCURVE",
"186 769 OFFCURVE",
"164 769 CURVE"
);
},
{
closed = 1;
nodes = (
"470 722 OFFCURVE",
"338 322 OFFCURVE",
"338 133 CURVE SMOOTH",
"338 34 OFFCURVE",
"380 -8 OFFCURVE",
"410 -8 CURVE SMOOTH",
"428 -8 OFFCURVE",
"437 3 OFFCURVE",
"437 7 CURVE",
"437 7 OFFCURVE",
"391 37 OFFCURVE",
"391 120 CURVE SMOOTH",
"391 260 OFFCURVE",
"531 648 OFFCURVE",
"552 648 CURVE",
"532 722 LINE"
);
}
);
width = 601;
}
);
unicode = 0055;
},
{
color = 1;
glyphname = V;
lastChange = "2016-08-20 08:37:10 +0000";
layers = (
{
background = {
backgroundImage = {
crop = "{{0, 0}, {509.69999999999999, 336}}";
imagePath = Skany/V3.jpg;
transform = "{2.704, 0, 0, 2.704, -87, -86}";
};
};
layerId = "2CA0DBAD-D64B-45C4-9A33-36C1DBAC27D7";
paths = (
{
closed = 1;
nodes = (
"392 799 OFFCURVE",
"302 431 OFFCURVE",
"302 263 CURVE SMOOTH",
"302 108 OFFCURVE",
"353 -11 OFFCURVE",
"434 -11 CURVE",
"464 -11 OFFCURVE",
"750 552 OFFCURVE",
"750 725 CURVE SMOOTH",
"750 760 OFFCURVE",
"716 768 OFFCURVE",
"701 768 CURVE",
"701 649 OFFCURVE",
"434 35 OFFCURVE",
"411 35 CURVE",
"411 35 OFFCURVE",
"362 108 OFFCURVE",
"362 216 CURVE SMOOTH",
"362 420 OFFCURVE",
"455 744 OFFCURVE",
"455 770 CURVE SMOOTH",
"455 802 OFFCURVE",
"428 809 OFFCURVE",
"392 809 CURVE"
);
},
{
closed = 1;
nodes = (
"56 617 OFFCURVE",
"316 770 OFFCURVE",
"403 770 CURVE SMOOTH",
"414 770 OFFCURVE",
"425 809 OFFCURVE",
"391 809 CURVE",
"284 809 OFFCURVE",
"16 668 OFFCURVE",
"16 539 CURVE SMOOTH",
"16 509 OFFCURVE",
"30 497 OFFCURVE",
"56 497 CURVE"
);
}
);
width = 760;
},
{
associatedMasterId = "2CA0DBAD-D64B-45C4-9A33-36C1DBAC27D7";
components = (
{
name = j_petelka;
transform = "{0.9814, -0.1922, 0.1922, 0.9814, 81, 304}";
}
);
layerId = "8E4E43DA-5212-4214-AB71-826679505DA2";
name = "Regular Aug 20 16, 04:28";
paths = (
{
closed = 1;
nodes = (
"291 627 OFFCURVE",
"222 381 OFFCURVE",
"222 213 CURVE SMOOTH",
"222 58 OFFCURVE",
"293 -23 OFFCURVE",
"374 -23 CURVE",
"404 -23 OFFCURVE",
"690 552 OFFCURVE",
"690 725 CURVE SMOOTH",
"690 760 OFFCURVE",
"656 768 OFFCURVE",
"641 768 CURVE",
"641 649 OFFCURVE",
"374 23 OFFCURVE",
"351 23 CURVE",
"351 23 OFFCURVE",
"282 58 OFFCURVE",
"282 166 CURVE SMOOTH",
"282 370 OFFCURVE",
"374 663 OFFCURVE",
"374 689 CURVE SMOOTH",
"374 721 OFFCURVE",
"327 637 OFFCURVE",
"291 637 CURVE"
);
},
{
closed = 1;
nodes = (
"11 405 OFFCURVE",
"28 387 OFFCURVE",
"56 387 CURVE SMOOTH",
"114 387 OFFCURVE",
"346 602 OFFCURVE",
"346 661 CURVE SMOOTH",
"346 720 OFFCURVE",
"326 711 OFFCURVE",
"326 698 CURVE",
"326 655 OFFCURVE",
"49 422 OFFCURVE",
"11 422 CURVE"
);
}
);
width = 700;
}
);
unicode = 0056;
},
{
color = 1;
glyphname = W;
lastChange = "2016-08-20 02:45:56 +0000";
layers = (
{
background = {
backgroundImage = {
crop = "{{0, 0}, {264.59999999999997, 335.39999999999998}}";
imagePath = "Skany/W-kopia.jpg";
transform = "{3.057, 0, 0, 3.057, 40, -72}";
};
};
layerId = "2CA0DBAD-D64B-45C4-9A33-36C1DBAC27D7";
paths = (
{
closed = 1;
nodes = (
"434 812 OFFCURVE",
"473 785 OFFCURVE",
"473 762 CURVE SMOOTH",
"473 713 OFFCURVE",
"293 170 OFFCURVE",
"293 -9 CURVE",
"261 -9 OFFCURVE",
"255 13 OFFCURVE",
"255 37 CURVE SMOOTH",
"255 208 OFFCURVE",
"408 755 OFFCURVE",
"408 812 CURVE"
);
},
{
closed = 1;
nodes = (
"49 494 OFFCURVE",
"33 512 OFFCURVE",
"33 542 CURVE SMOOTH",
"33 685 OFFCURVE",
"332 812 OFFCURVE",
"408 812 CURVE",
"442 812 OFFCURVE",
"430 764 OFFCURVE",
"419 764 CURVE SMOOTH",
"332 764 OFFCURVE",
"75 601 OFFCURVE",
"75 494 CURVE"
);
},
{
closed = 1;
nodes = (
"588 502 OFFCURVE",
"595 521 OFFCURVE",
"604 621 CURVE",
"658 611 LINE",
"652 528 OFFCURVE",
"649 464 OFFCURVE",
"649 414 CURVE SMOOTH",
"649 238 OFFCURVE",
"682 34 OFFCURVE",
"713 34 CURVE SMOOTH",
"779 34 OFFCURVE",
"868 253 OFFCURVE",
"868 427 CURVE SMOOTH",
"868 652 OFFCURVE",
"826 689 OFFCURVE",
"826 700 CURVE",
"826 707 OFFCURVE",
"836 714 OFFCURVE",
"851 714 CURVE SMOOTH",
"882 714 OFFCURVE",
"928 662 OFFCURVE",
"928 433 CURVE SMOOTH",
"928 228 OFFCURVE",
"810 -6 OFFCURVE",
"725 -6 CURVE SMOOTH",
"621 -6 OFFCURVE",
"588 226 OFFCURVE",
"588 432 CURVE SMOOTH"
);
},
{
closed = 1;
nodes = (
"676 775 OFFCURVE",
"727 754 OFFCURVE",
"731 722 CURVE",
"734 689 OFFCURVE",
"655 586 OFFCURVE",
"620 510 CURVE",
"590 510 LINE",
"582 588 OFFCURVE",
"635 770 OFFCURVE",
"652 772 CURVE"
);
},
{
closed = 1;
nodes = (
"650 587 LINE",
"293 -9 LINE",
"278 41 LINE",
"314 115 OFFCURVE",
"626 663 OFFCURVE",
"655 663 CURVE"
);
}
);
width = 970;
},
{
associatedMasterId = "2CA0DBAD-D64B-45C4-9A33-36C1DBAC27D7";
components = (
{
name = j_petelka;
transform = "{0.9814, -0.1922, 0.1922, 0.9814, 81, 304}";
}
);
layerId = "D6639A8B-69F4-455B-9E02-4B2B4869E20E";
name = "Regular Aug 20 16, 04:35";
paths = (
{
closed = 1;
nodes = (
"11 405 OFFCURVE",
"28 387 OFFCURVE",
"56 387 CURVE SMOOTH",
"114 387 OFFCURVE",
"346 602 OFFCURVE",
"346 661 CURVE SMOOTH",
"346 720 OFFCURVE",
"326 711 OFFCURVE",
"326 698 CURVE",
"326 655 OFFCURVE",
"49 422 OFFCURVE",
"11 422 CURVE"
);
},
{
closed = 1;
nodes = (
"687 769 OFFCURVE",
"657 801 OFFCURVE",
"607 801 CURVE SMOOTH",
"557 801 OFFCURVE",
"471 582 OFFCURVE",
"469 230 CURVE SMOOTH",
"468 -23 OFFCURVE",
"552 -24 OFFCURVE",
"590 -24 CURVE",
"628 -24 OFFCURVE",
"879 324 OFFCURVE",
"879 700 CURVE SMOOTH",
"879 724 OFFCURVE",
"863 733 OFFCURVE",
"828 733 CURVE",
"828 364 OFFCURVE",
"598 17 OFFCURVE",
"573 17 CURVE",
"573 17 OFFCURVE",
"529 17 OFFCURVE",
"529 205 CURVE SMOOTH",
"529 528 OFFCURVE",
"604 754 OFFCURVE",
"629 754 CURVE SMOOTH",
"634 754 OFFCURVE",
"643 748 OFFCURVE",
"642 740 CURVE",
"642 718 OFFCURVE",
"374 23 OFFCURVE",
"351 23 CURVE",
"351 23 OFFCURVE",
"282 58 OFFCURVE",
"282 166 CURVE SMOOTH",
"282 370 OFFCURVE",
"374 663 OFFCURVE",
"374 689 CURVE SMOOTH",
"374 721 OFFCURVE",
"327 637 OFFCURVE",
"291 637 CURVE",
"291 627 OFFCURVE",
"222 381 OFFCURVE",
"222 213 CURVE SMOOTH",
"222 58 OFFCURVE",
"293 -23 OFFCURVE",
"374 -23 CURVE",
"404 -23 OFFCURVE",
"687 643 OFFCURVE",
"687 744 CURVE SMOOTH"
);
}
);
width = 880;
}
);
unicode = 0057;
},
{
color = 1;
glyphname = X;
lastChange = "2016-08-20 01:10:05 +0000";
layers = (
{
background = {
backgroundImage = {
crop = "{{0, 0}, {279.89999999999998, 351.89999999999998}}";
imagePath = Skany/X2.jpg;
transform = "{2.950, 0.488, -0.488, 2.950, -36, -207}";
};
};
layerId = "2CA0DBAD-D64B-45C4-9A33-36C1DBAC27D7";
paths = (
{
closed = 1;
nodes = (
"117 455 OFFCURVE",
"302 41 OFFCURVE",
"331 20 CURVE SMOOTH",
"349 7 OFFCURVE",
"359 9 OFFCURVE",
"372 9 CURVE",
"329 117 OFFCURVE",
"203 434 OFFCURVE",
"203 760 CURVE SMOOTH",
"203 800 OFFCURVE",
"155 796 OFFCURVE",
"132 787 CURVE"
);
},
{
closed = 1;
nodes = (
"452 724 OFFCURVE",
"31 131 OFFCURVE",
"26 0 CURVE SMOOTH",
"25 -28 OFFCURVE",
"29 -35 OFFCURVE",
"52 -36 CURVE",
"87 33 OFFCURVE",
"245 406 OFFCURVE",
"622 692 CURVE",
"623 704 OFFCURVE",
"609 714 OFFCURVE",
"603 715 CURVE"
);
}
);
width = 590;
}
);
unicode = 0058;
},
{
color = 1;
glyphname = Y;
lastChange = "2016-08-20 02:58:25 +0000";
layers = (
{
components = (
{
name = j_petelka;
transform = "{1.0482, -0.1614, 0.1614, 1.0482, 456, 279}";
}
);
layerId = "2CA0DBAD-D64B-45C4-9A33-36C1DBAC27D7";
paths = (
{
closed = 1;
nodes = (
"75 601 OFFCURVE",
"332 764 OFFCURVE",
"419 764 CURVE SMOOTH",
"430 764 OFFCURVE",
"442 812 OFFCURVE",
"408 812 CURVE",
"332 812 OFFCURVE",
"33 685 OFFCURVE",
"33 542 CURVE SMOOTH",
"33 512 OFFCURVE",
"49 494 OFFCURVE",
"75 494 CURVE"
);
},
{
closed = 1;
nodes = (
"401 812 OFFCURVE",
"315 452 OFFCURVE",
"315 330 CURVE SMOOTH",
"315 201 OFFCURVE",
"409 133 OFFCURVE",
"460 133 CURVE",
"479 133 OFFCURVE",
"728 711 OFFCURVE",
"746 738 CURVE",
"714 767 LINE",
"449 185 LINE SMOOTH",
"446 179 OFFCURVE",
"374 210 OFFCURVE",
"374 306 CURVE SMOOTH",
"374 414 OFFCURVE",
"467 745 OFFCURVE",
"467 771 CURVE SMOOTH",
"467 800 OFFCURVE",
"424 812 OFFCURVE",
"407 812 CURVE"
);
},
{
closed = 1;
nodes = (
"241 193 OFFCURVE",
"215 218 OFFCURVE",
"197 218 CURVE",
"146 161 OFFCURVE",
"124 97 OFFCURVE",
"124 29 CURVE SMOOTH",
"124 -160 OFFCURVE",
"293 -220 OFFCURVE",
"401 -220 CURVE SMOOTH",
"686 -220 OFFCURVE",
"644 431 OFFCURVE",
"709 614 CURVE SMOOTH",
"719 642 OFFCURVE",
"685 646 OFFCURVE",
"669 646 CURVE",
"603 500 OFFCURVE",
"613 -173 OFFCURVE",
"377 -173 CURVE SMOOTH",
"285 -173 OFFCURVE",
"178 -109 OFFCURVE",
"178 -1 CURVE SMOOTH",
"178 101 OFFCURVE",
"241 141 OFFCURVE",
"241 173 CURVE SMOOTH"
);
}
);
width = 750;
}
);
unicode = 0059;
},
{
color = 1;
glyphname = Z;
lastChange = "2016-08-20 02:50:25 +0000";
layers = (
{
background = {
backgroundImage = {
crop = "{{0, 0}, {601.19999999999993, 324.59999999999997}}";
imagePath = Skany/Z1.jpg;
transform = "{3.080, 0, 0, 3.080, -960, -132}";
};
};
components = (
{
name = j_petelka;
transform = "{0.6622, -0.7493, 0.7493, 0.6622, 360, 521}";
}
);
layerId = "2CA0DBAD-D64B-45C4-9A33-36C1DBAC27D7";
paths = (
{
closed = 1;
nodes = (
"163 741 OFFCURVE",
"165 718 OFFCURVE",
"179 698 CURVE SMOOTH",
"240 611 OFFCURVE",
"516 569 OFFCURVE",
"781 620 CURVE",
"798 681 LINE",
"453 623 OFFCURVE",
"244 698 OFFCURVE",
"169 764 CURVE"
);
},
{
closed = 1;
nodes = (
"138 -9 OFFCURVE",
"562 419 OFFCURVE",
"792 633 CURVE",
"732 645 LINE",
"102 53 LINE SMOOTH",
"76 28 OFFCURVE",
"48 82 OFFCURVE",
"48 140 CURVE SMOOTH",
"48 201 OFFCURVE",
"83 253 OFFCURVE",
"126 253 CURVE SMOOTH",
"187 253 OFFCURVE",
"453 -98 OFFCURVE",
"583 -98 CURVE SMOOTH",
"631 -98 OFFCURVE",
"649 -79 OFFCURVE",
"649 -71 CURVE",
"459 0 OFFCURVE",
"232 299 OFFCURVE",
"133 299 CURVE SMOOTH",
"49 299 OFFCURVE",
"4 228 OFFCURVE",
"4 157 CURVE SMOOTH",
"4 70 OFFCURVE",
"53 -9 OFFCURVE",
"102 -9 CURVE SMOOTH"
);
}
);
width = 880;
}
);
unicode = 005A;
},
{
color = 3;
glyphname = a;
lastChange = "2016-08-20 08:23:30 +0000";
layers = (
{
background = {
backgroundImage = {
crop = "{{0, 0}, {152.09999999999999, 187.5}}";
imagePath = Skany/a.jpg;
transform = "{4.187, 0, 0, 4.187, -12, -157}";
};
};
layerId = "2CA0DBAD-D64B-45C4-9A33-36C1DBAC27D7";
paths = (
{
closed = 1;
nodes = (
"125 600 OFFCURVE",
"10 473 OFFCURVE",
"10 374 CURVE SMOOTH",
"10 103 OFFCURVE",
"390 339 OFFCURVE",
"390 350 CURVE",
"384 384 LINE",
"376 384 OFFCURVE",
"69 185 OFFCURVE",
"69 355 CURVE SMOOTH",
"69 447 OFFCURVE",
"182 559 OFFCURVE",
"339 559 CURVE SMOOTH",
"451 559 OFFCURVE",
"376 393 OFFCURVE",
"376 379 CURVE",
"422 369 LINE",
"422 399 OFFCURVE",
"524 600 OFFCURVE",
"306 600 CURVE"
);
},
{
closed = 1;
nodes = (
"148 400 OFFCURVE",
"76 295 OFFCURVE",
"76 146 CURVE SMOOTH",
"76 54 OFFCURVE",
"144 -9 OFFCURVE",
"207 -9 CURVE",
"230 -9 OFFCURVE",
"397 305 OFFCURVE",
"412 343 CURVE",
"378 355 LINE",
"378 355 OFFCURVE",
"200 34 OFFCURVE",
"193 34 CURVE",
"192 34 OFFCURVE",
"131 45 OFFCURVE",
"131 135 CURVE SMOOTH",
"131 222 OFFCURVE",
"207 352 OFFCURVE",
"207 362 CURVE",
"207 384 OFFCURVE",
"169 400 OFFCURVE",
"148 400 CURVE"
);
},
{
closed = 1;
nodes = (
"453 373 OFFCURVE",
"417 391 OFFCURVE",
"382 391 CURVE",
"376 391 OFFCURVE",
"334 203 OFFCURVE",
"334 131 CURVE SMOOTH",
"334 48 OFFCURVE",
"369 0 OFFCURVE",
"439 0 CURVE SMOOTH",
"488 0 OFFCURVE",
"714 341 OFFCURVE",
"722 365 CURVE SMOOTH",
"730 389 OFFCURVE",
"717 400 OFFCURVE",
"702 400 CURVE",
"702 400 OFFCURVE",
"446 37 OFFCURVE",
"430 37 CURVE SMOOTH",
"414 37 OFFCURVE",
"388 48 OFFCURVE",
"388 90 CURVE SMOOTH",
"388 226 OFFCURVE",
"453 341 OFFCURVE",
"453 355 CURVE SMOOTH"
);
}
);
width = 573;
},
{
associatedMasterId = "2CA0DBAD-D64B-45C4-9A33-36C1DBAC27D7";
layerId = "95F50A80-B59E-40B1-88B9-3278C1F74B66";
name = "Regular Aug 6 16, 01:41";
paths = (
{
closed = 1;
nodes = (
"443 373 OFFCURVE",
"407 391 OFFCURVE",
"372 391 CURVE",
"365 391 OFFCURVE",
"324 203 OFFCURVE",
"324 131 CURVE SMOOTH",
"324 48 OFFCURVE",
"356 0 OFFCURVE",
"426 0 CURVE SMOOTH",
"475 0 OFFCURVE",
"716 369 OFFCURVE",
"716 383 CURVE SMOOTH",
"716 397 OFFCURVE",
"695 401 OFFCURVE",
"695 398 CURVE SMOOTH",
"695 395 OFFCURVE",
"435 25 OFFCURVE",
"419 25 CURVE SMOOTH",
"403 25 OFFCURVE",
"375 42 OFFCURVE",
"375 83 CURVE SMOOTH",
"375 219 OFFCURVE",
"443 341 OFFCURVE",
"443 355 CURVE SMOOTH"
);
},
{
closed = 1;
nodes = (
"145 626 OFFCURVE",
"10 457 OFFCURVE",
"10 358 CURVE SMOOTH",
"10 157 OFFCURVE",
"382 358 OFFCURVE",
"379 369 CURVE SMOOTH",
"373 391 LINE",
"365 391 OFFCURVE",
"52 239 OFFCURVE",
"52 339 CURVE SMOOTH",
"52 426 OFFCURVE",
"189 595 OFFCURVE",
"361 595 CURVE SMOOTH",
"462 595 OFFCURVE",
"371 393 OFFCURVE",
"371 379 CURVE",
"406 369 LINE",
"406 399 OFFCURVE",
"539 626 OFFCURVE",
"326 626 CURVE"
);
},
{
closed = 1;
nodes = (
"148 399 OFFCURVE",
"76 316 OFFCURVE",
"76 143 CURVE SMOOTH",
"76 61 OFFCURVE",
"144 -13 OFFCURVE",
"207 -13 CURVE",
"230 -13 OFFCURVE",
"377 305 OFFCURVE",
"392 343 CURVE",
"361 355 LINE",
"189 21 LINE",
"188 21 OFFCURVE",
"128 45 OFFCURVE",
"128 131 CURVE SMOOTH",
"128 218 OFFCURVE",
"197 357 OFFCURVE",
"197 367 CURVE",
"197 389 OFFCURVE",
"169 399 OFFCURVE",
"148 399 CURVE"
);
}
);
width = 569;
},
{
associatedMasterId = "2CA0DBAD-D64B-45C4-9A33-36C1DBAC27D7";
layerId = "EBE1F4AF-3987-4A0F-B608-7733F3F263D3";
name = "Regular Aug 9 16, 20:48";
paths = (
{
closed = 1;
nodes = (
"443 373 OFFCURVE",
"407 391 OFFCURVE",
"372 391 CURVE",
"365 391 OFFCURVE",
"324 203 OFFCURVE",
"324 131 CURVE SMOOTH",
"324 48 OFFCURVE",
"356 0 OFFCURVE",
"426 0 CURVE SMOOTH",
"475 0 OFFCURVE",
"707 365 OFFCURVE",
"707 379 CURVE SMOOTH",
"707 393 OFFCURVE",
"705 400 OFFCURVE",
"690 400 CURVE",
"690 400 OFFCURVE",
"435 27 OFFCURVE",
"419 27 CURVE SMOOTH",
"403 27 OFFCURVE",
"375 44 OFFCURVE",
"375 83 CURVE SMOOTH",
"375 219 OFFCURVE",
"443 341 OFFCURVE",
"443 355 CURVE SMOOTH"
);
},
{
closed = 1;
nodes = (
"125 600 OFFCURVE",
"10 473 OFFCURVE",
"10 374 CURVE SMOOTH",
"10 103 OFFCURVE",
"376 343 OFFCURVE",
"373 354 CURVE SMOOTH",
"367 380 LINE",
"359 380 OFFCURVE",
"58 185 OFFCURVE",
"58 355 CURVE SMOOTH",
"58 442 OFFCURVE",
"182 560 OFFCURVE",
"341 560 CURVE SMOOTH",
"422 560 OFFCURVE",
"368 393 OFFCURVE",
"368 379 CURVE",
"416 369 LINE",
"416 399 OFFCURVE",
"479 600 OFFCURVE",
"306 600 CURVE"
);
},
{
closed = 1;
nodes = (
"148 400 OFFCURVE",
"76 319 OFFCURVE",
"76 146 CURVE SMOOTH",
"76 64 OFFCURVE",
"144 -9 OFFCURVE",
"207 -9 CURVE",
"230 -9 OFFCURVE",
"377 305 OFFCURVE",
"392 343 CURVE",
"361 355 LINE",
"189 25 LINE",
"188 25 OFFCURVE",
"128 48 OFFCURVE",
"128 134 CURVE SMOOTH",
"128 221 OFFCURVE",
"197 357 OFFCURVE",
"197 367 CURVE",
"197 389 OFFCURVE",
"169 400 OFFCURVE",
"148 400 CURVE"
);
}
);
width = 563;
}
);
unicode = 0061;
},
{
color = 3;
glyphname = b;
lastChange = "2016-08-20 01:55:41 +0000";
layers = (
{
background = {
backgroundImage = {
crop = "{{0, 0}, {155.09999999999999, 220.79999999999998}}";
imagePath = Skany/b.jpg;
transform = "{3.956, 0, 0, 3.956, 19, -101}";
};
};
guideLines = (
{
angle = 90;
position = "{372, 585}";
},
{
angle = 90;
position = "{583, 677}";
}
);
layerId = "2CA0DBAD-D64B-45C4-9A33-36C1DBAC27D7";
paths = (
{
closed = 1;
nodes = (
"311 498 OFFCURVE",
"281 471 OFFCURVE",
"281 460 CURVE SMOOTH",
"281 367 OFFCURVE",
"367 233 OFFCURVE",
"476 233 CURVE SMOOTH",
"587 233 OFFCURVE",
"680 355 OFFCURVE",
"680 382 CURVE SMOOTH",
"680 385 OFFCURVE",
"675 400 OFFCURVE",
"659 400 CURVE",
"659 400 OFFCURVE",
"555 270 OFFCURVE",
"489 270 CURVE SMOOTH",
"368 270 OFFCURVE",
"369 398 OFFCURVE",
"369 414 CURVE",
"344 329 LINE",
"376 287 LINE",
"394 287 OFFCURVE",
"394 498 OFFCURVE",
"349 498 CURVE SMOOTH"
);
},
{
closed = 1;
nodes = (
"160 783 OFFCURVE",
"34 412 OFFCURVE",
"34 207 CURVE SMOOTH",
"34 49 OFFCURVE",
"112 -9 OFFCURVE",
"174 -9 CURVE SMOOTH",
"237 -9 OFFCURVE",
"384 151 OFFCURVE",
"384 332 CURVE SMOOTH",
"384 355 OFFCURVE",
"351 364 OFFCURVE",
"339 364 CURVE",
"339 282 OFFCURVE",
"244 31 OFFCURVE",
"160 31 CURVE SMOOTH",
"160 31 OFFCURVE",
"95 40 OFFCURVE",
"95 148 CURVE SMOOTH",
"95 408 OFFCURVE",
"227 740 OFFCURVE",
"245 740 CURVE SMOOTH",
"258 740 OFFCURVE",
"279 722 OFFCURVE",
"279 672 CURVE SMOOTH",
"279 566 OFFCURVE",
"145 399 OFFCURVE",
"84 399 CURVE",
"75 345 LINE",
"152 344 OFFCURVE",
"325 516 OFFCURVE",
"325 664 CURVE SMOOTH",
"325 740 OFFCURVE",
"262 783 OFFCURVE",
"218 783 CURVE SMOOTH"
);
}
);
width = 523;
},
{
associatedMasterId = "2CA0DBAD-D64B-45C4-9A33-36C1DBAC27D7";
guideLines = (
{
angle = 90;
position = "{372, 585}";
},
{
angle = 90;
position = "{583, 677}";
}
);
layerId = "36E9B91B-D13A-4BFE-A7C2-D1C44AAD283C";
name = "Regular Aug 7 16, 21:16";
paths = (
{
closed = 1;
nodes = (
"150 700 OFFCURVE",
"-132 -9 OFFCURVE",
"142 -9 CURVE SMOOTH",
"204 -9 OFFCURVE",
"354 174 OFFCURVE",
"354 311 CURVE SMOOTH",
"354 325 OFFCURVE",
"318 351 OFFCURVE",
"318 349 CURVE SMOOTH",
"318 156 OFFCURVE",
"148 18 OFFCURVE",
"134 18 CURVE SMOOTH",
"119 18 OFFCURVE",
"79 45 OFFCURVE",
"79 95 CURVE SMOOTH",
"79 381 OFFCURVE",
"234 665 OFFCURVE",
"234 679 CURVE SMOOTH",
"234 693 OFFCURVE",
"219 700 OFFCURVE",
"185 700 CURVE"
);
},
{
closed = 1;
nodes = (
"297 471 OFFCURVE",
"266 456 OFFCURVE",
"266 445 CURVE SMOOTH",
"266 352 OFFCURVE",
"347 235 OFFCURVE",
"456 235 CURVE SMOOTH",
"567 235 OFFCURVE",
"647 359 OFFCURVE",
"647 386 CURVE SMOOTH",
"647 389 OFFCURVE",
"645 400 OFFCURVE",
"629 400 CURVE",
"629 400 OFFCURVE",
"538 265 OFFCURVE",
"478 265 CURVE SMOOTH",
"351 265 OFFCURVE",
"339 406 OFFCURVE",
"339 422 CURVE",
"346 287 LINE",
"364 287 OFFCURVE",
"370 471 OFFCURVE",
"325 471 CURVE SMOOTH"
);
},
{
closed = 1;
nodes = (
"223 654 LINE",
"243 700 OFFCURVE",
"260 728 OFFCURVE",
"264 728 CURVE SMOOTH",
"283 728 OFFCURVE",
"300 702 OFFCURVE",
"300 663 CURVE SMOOTH",
"300 602 OFFCURVE",
"194 402 OFFCURVE",
"94 402 CURVE",
"90 361 LINE",
"194 361 OFFCURVE",
"331 552 OFFCURVE",
"331 651 CURVE SMOOTH",
"331 750 OFFCURVE",
"270 763 OFFCURVE",
"233 763 CURVE SMOOTH",
"219 763 OFFCURVE",
"197 734 OFFCURVE",
"172 686 CURVE"
);
}
);
width = 483;
},
{
associatedMasterId = "2CA0DBAD-D64B-45C4-9A33-36C1DBAC27D7";
guideLines = (
{
angle = 90;
position = "{372, 585}";
},
{
angle = 90;
position = "{583, 677}";
}
);
layerId = "8BB13CC8-8311-4077-8FD1-2014DB16A721";
name = "Regular Aug 7 16, 21:24";
paths = (
{
closed = 1;
nodes = (
"327 471 OFFCURVE",
"296 456 OFFCURVE",
"296 445 CURVE SMOOTH",
"296 352 OFFCURVE",
"377 235 OFFCURVE",
"486 235 CURVE SMOOTH",
"597 235 OFFCURVE",
"680 355 OFFCURVE",
"680 382 CURVE SMOOTH",
"680 385 OFFCURVE",
"675 400 OFFCURVE",
"659 400 CURVE",
"659 400 OFFCURVE",
"568 267 OFFCURVE",
"508 267 CURVE SMOOTH",
"381 267 OFFCURVE",
"369 398 OFFCURVE",
"369 414 CURVE",
"376 287 LINE",
"394 287 OFFCURVE",
"400 471 OFFCURVE",
"355 471 CURVE SMOOTH"
);
},
{
closed = 1;
nodes = (
"190 783 OFFCURVE",
"34 484 OFFCURVE",
"34 224 CURVE SMOOTH",
"34 49 OFFCURVE",
"112 -9 OFFCURVE",
"174 -9 CURVE SMOOTH",
"269 -9 OFFCURVE",
"384 151 OFFCURVE",
"384 332 CURVE SMOOTH",
"384 355 OFFCURVE",
"339 364 OFFCURVE",
"327 364 CURVE",
"327 282 OFFCURVE",
"281 25 OFFCURVE",
"172 25 CURVE SMOOTH",
"157 25 OFFCURVE",
"95 45 OFFCURVE",
"95 165 CURVE SMOOTH",
"95 441 OFFCURVE",
"246 745 OFFCURVE",
"268 745 CURVE SMOOTH",
"281 745 OFFCURVE",
"306 741 OFFCURVE",
"306 680 CURVE SMOOTH",
"306 607 OFFCURVE",
"172 407 OFFCURVE",
"84 407 CURVE",
"75 360 LINE",
"179 359 OFFCURVE",
"345 549 OFFCURVE",
"345 664 CURVE SMOOTH",
"345 763 OFFCURVE",
"282 783 OFFCURVE",
"238 783 CURVE SMOOTH"
);
}
);
width = 523;
},
{
associatedMasterId = "2CA0DBAD-D64B-45C4-9A33-36C1DBAC27D7";
guideLines = (
{
angle = 90;
position = "{372, 585}";
},
{
angle = 90;
position = "{583, 677}";
}
);
layerId = "EB2C74B3-9F70-487B-A479-3D98C8AE529F";
name = "Regular Aug 19 16, 23:57";
paths = (
{
closed = 1;
nodes = (
"311 498 OFFCURVE",
"281 471 OFFCURVE",
"281 460 CURVE SMOOTH",
"281 367 OFFCURVE",
"367 233 OFFCURVE",
"476 233 CURVE SMOOTH",
"587 233 OFFCURVE",
"680 355 OFFCURVE",
"680 382 CURVE SMOOTH",
"680 385 OFFCURVE",
"675 400 OFFCURVE",
"659 400 CURVE",
"659 400 OFFCURVE",
"555 270 OFFCURVE",
"489 270 CURVE SMOOTH",
"368 270 OFFCURVE",
"369 398 OFFCURVE",
"369 414 CURVE",
"344 329 LINE",
"376 287 LINE",
"394 287 OFFCURVE",
"394 498 OFFCURVE",
"349 498 CURVE SMOOTH"
);
},
{
closed = 1;
nodes = (
"190 783 OFFCURVE",
"34 484 OFFCURVE",
"34 224 CURVE SMOOTH",
"34 49 OFFCURVE",
"112 -9 OFFCURVE",
"174 -9 CURVE SMOOTH",
"269 -9 OFFCURVE",
"384 151 OFFCURVE",
"384 332 CURVE SMOOTH",
"384 355 OFFCURVE",
"351 364 OFFCURVE",
"339 364 CURVE",
"339 282 OFFCURVE",
"276 33 OFFCURVE",
"175 33 CURVE SMOOTH",
"160 33 OFFCURVE",
"98 54 OFFCURVE",
"98 165 CURVE SMOOTH",
"98 478 OFFCURVE",
"243 740 OFFCURVE",
"265 740 CURVE SMOOTH",
"278 740 OFFCURVE",
"299 722 OFFCURVE",
"299 672 CURVE SMOOTH",
"299 576 OFFCURVE",
"145 399 OFFCURVE",
"84 399 CURVE",
"75 345 LINE",
"152 344 OFFCURVE",
"345 526 OFFCURVE",
"345 664 CURVE SMOOTH",
"345 763 OFFCURVE",
"282 783 OFFCURVE",
"238 783 CURVE SMOOTH"
);
}
);
width = 523;
}
);
unicode = 0062;
},
{
color = 3;
glyphname = c;
lastChange = "2016-08-20 02:06:16 +0000";
layers = (
{
associatedMasterId = "2CA0DBAD-D64B-45C4-9A33-36C1DBAC27D7";
background = {
backgroundImage = {
crop = "{{0, 0}, {305.39999999999998, 181.5}}";
imagePath = Skany/cc.jpg;
transform = "{4.323, 0, 0, 4.323, -687, -127}";
};
};
layerId = "C4CD4326-88ED-4C5B-B452-F3A946A9AF98";
name = "Regular Aug 6 16, 12:43";
paths = (
{
closed = 1;
nodes = (
"132 600 OFFCURVE",
"6 345 OFFCURVE",
"6 201 CURVE SMOOTH",
"6 66 OFFCURVE",
"67 -10 OFFCURVE",
"182 -10 CURVE SMOOTH",
"365 -10 OFFCURVE",
"578 347 OFFCURVE",
"578 368 CURVE SMOOTH",
"578 400 OFFCURVE",
"558 400 OFFCURVE",
"549 400 CURVE",
"535 400 OFFCURVE",
"333 22 OFFCURVE",
"165 22 CURVE SMOOTH",
"114 22 OFFCURVE",
"64 50 OFFCURVE",
"64 169 CURVE SMOOTH",
"64 333 OFFCURVE",
"197 570 OFFCURVE",
"277 570 CURVE SMOOTH",
"298 570 OFFCURVE",
"346 555 OFFCURVE",
"346 541 CURVE SMOOTH",
"346 447 OFFCURVE",
"275 350 OFFCURVE",
"275 342 CURVE",
"275 331 OFFCURVE",
"290 317 OFFCURVE",
"314 317 CURVE SMOOTH",
"340 317 OFFCURVE",
"387 436 OFFCURVE",
"387 527 CURVE SMOOTH",
"387 561 OFFCURVE",
"323 600 OFFCURVE",
"269 600 CURVE SMOOTH"
);
}
);
width = 410;
},
{
layerId = "2CA0DBAD-D64B-45C4-9A33-36C1DBAC27D7";
paths = (
{
closed = 1;
nodes = (
"155 599 OFFCURVE",
"6 400 OFFCURVE",
"6 201 CURVE SMOOTH",
"6 66 OFFCURVE",
"96 -10 OFFCURVE",
"180 -10 CURVE SMOOTH",
"363 -10 OFFCURVE",
"586 348 OFFCURVE",
"591 368 CURVE SMOOTH",
"597 393 OFFCURVE",
"584 400 OFFCURVE",
"575 400 CURVE",
"573 400 OFFCURVE",
"331 31 OFFCURVE",
"163 31 CURVE SMOOTH",
"127 31 OFFCURVE",
"64 79 OFFCURVE",
"64 178 CURVE SMOOTH",
"64 337 OFFCURVE",
"206 561 OFFCURVE",
"279 561 CURVE",
"298 561 OFFCURVE",
"310 540 OFFCURVE",
"310 487 CURVE SMOOTH",
"310 440 OFFCURVE",
"283 387 OFFCURVE",
"283 384 CURVE",
"283 373 OFFCURVE",
"308 354 OFFCURVE",
"332 354 CURVE SMOOTH",
"347 354 OFFCURVE",
"369 402 OFFCURVE",
"369 487 CURVE SMOOTH",
"369 554 OFFCURVE",
"332 599 OFFCURVE",
"260 599 CURVE SMOOTH"
);
}
);
width = 429;
},
{
associatedMasterId = "2CA0DBAD-D64B-45C4-9A33-36C1DBAC27D7";
layerId = "D18D6210-1634-4AB6-A500-9E3262039242";
name = "Regular Aug 7 16, 14:36";
paths = (
{
closed = 1;
nodes = (
"132 600 OFFCURVE",
"6 345 OFFCURVE",
"6 201 CURVE SMOOTH",
"6 66 OFFCURVE",
"67 -10 OFFCURVE",
"182 -10 CURVE SMOOTH",
"365 -10 OFFCURVE",
"578 347 OFFCURVE",
"578 368 CURVE SMOOTH",
"578 400 OFFCURVE",
"558 400 OFFCURVE",
"549 400 CURVE",
"535 400 OFFCURVE",
"333 22 OFFCURVE",
"165 22 CURVE SMOOTH",
"114 22 OFFCURVE",
"64 50 OFFCURVE",
"64 169 CURVE SMOOTH",
"64 333 OFFCURVE",
"197 570 OFFCURVE",
"277 570 CURVE SMOOTH",
"298 570 OFFCURVE",
"326 555 OFFCURVE",
"326 542 CURVE SMOOTH",
"326 472 OFFCURVE",
"264 380 OFFCURVE",
"264 372 CURVE SMOOTH",
"264 361 OFFCURVE",
"277 341 OFFCURVE",
"301 341 CURVE SMOOTH",
"316 341 OFFCURVE",
"367 437 OFFCURVE",
"367 527 CURVE SMOOTH",
"367 547 OFFCURVE",
"323 600 OFFCURVE",
"269 600 CURVE SMOOTH"
);
}
);
width = 410;
},
{
associatedMasterId = "2CA0DBAD-D64B-45C4-9A33-36C1DBAC27D7";
layerId = "2F523003-BFB2-4494-9A46-6E94AAC37D21";
name = "Regular Aug 7 16, 23:45";
paths = (
{
closed = 1;
nodes = (
"132 600 OFFCURVE",
"6 345 OFFCURVE",
"6 201 CURVE SMOOTH",
"6 66 OFFCURVE",
"67 -10 OFFCURVE",
"182 -10 CURVE SMOOTH",
"365 -10 OFFCURVE",
"578 347 OFFCURVE",
"578 368 CURVE SMOOTH",
"578 400 OFFCURVE",
"558 400 OFFCURVE",
"549 400 CURVE",
"535 400 OFFCURVE",
"333 22 OFFCURVE",
"165 22 CURVE SMOOTH",
"114 22 OFFCURVE",
"64 50 OFFCURVE",
"64 169 CURVE SMOOTH",
"64 333 OFFCURVE",
"197 570 OFFCURVE",
"277 570 CURVE SMOOTH",
"298 570 OFFCURVE",
"326 555 OFFCURVE",
"326 542 CURVE SMOOTH",
"326 472 OFFCURVE",
"251 358 OFFCURVE",
"251 350 CURVE SMOOTH",
"251 339 OFFCURVE",
"264 319 OFFCURVE",
"288 319 CURVE SMOOTH",
"303 319 OFFCURVE",
"367 437 OFFCURVE",
"367 527 CURVE SMOOTH",
"367 547 OFFCURVE",
"323 600 OFFCURVE",
"269 600 CURVE SMOOTH"
);
}
);
width = 410;
},
{
associatedMasterId = "2CA0DBAD-D64B-45C4-9A33-36C1DBAC27D7";
layerId = "B2A0A1A9-1056-4E47-947D-CEAADC93AC7A";
name = "Regular Aug 19 16, 22:50";
paths = (
{
closed = 1;
nodes = (
"155 599 OFFCURVE",
"6 400 OFFCURVE",
"6 201 CURVE SMOOTH",
"6 66 OFFCURVE",
"96 -10 OFFCURVE",
"180 -10 CURVE SMOOTH",
"363 -10 OFFCURVE",
"586 348 OFFCURVE",
"591 368 CURVE SMOOTH",
"597 393 OFFCURVE",
"584 400 OFFCURVE",
"575 400 CURVE",
"573 400 OFFCURVE",
"331 31 OFFCURVE",
"163 31 CURVE SMOOTH",
"127 31 OFFCURVE",
"64 79 OFFCURVE",
"64 178 CURVE SMOOTH",
"64 337 OFFCURVE",
"206 561 OFFCURVE",
"279 561 CURVE",
"298 561 OFFCURVE",
"314 542 OFFCURVE",
"314 500 CURVE SMOOTH",
"314 445 OFFCURVE",
"260 344 OFFCURVE",
"260 338 CURVE SMOOTH",
"260 327 OFFCURVE",
"282 308 OFFCURVE",
"306 308 CURVE SMOOTH",
"321 308 OFFCURVE",
"368 400 OFFCURVE",
"368 485 CURVE SMOOTH",
"368 529 OFFCURVE",
"332 599 OFFCURVE",
"260 599 CURVE SMOOTH"
);
}
);
width = 429;
}
);
leftKerningGroup = c;
rightKerningGroup = c;
unicode = 0063;
},
{
color = 3;
glyphname = d;
lastChange = "2016-08-20 08:22:59 +0000";
layers = (
{
background = {
backgroundImage = {
crop = "{{0, 0}, {397.80000000000001, 226.5}}";
imagePath = Skany/daa.jpg;
transform = "{4.474, 0, 0, 4.474, -35.162, -284.166}";
};
};
layerId = "2CA0DBAD-D64B-45C4-9A33-36C1DBAC27D7";
paths = (
{
closed = 1;
nodes = (
"175 400 OFFCURVE",
"99 303 OFFCURVE",
"99 152 CURVE SMOOTH",
"99 55 OFFCURVE",
"167 -9 OFFCURVE",
"240 -9 CURVE",
"263 -9 OFFCURVE",
"440 315 OFFCURVE",
"455 353 CURVE",
"414 365 LINE",
"357 254 OFFCURVE",
"236 31 OFFCURVE",
"221 31 CURVE",
"220 31 OFFCURVE",
"153 40 OFFCURVE",
"153 137 CURVE SMOOTH",
"153 232 OFFCURVE",
"229 353 OFFCURVE",
"229 363 CURVE",
"229 385 OFFCURVE",
"198 399 OFFCURVE",
"175 400 CURVE"
);
},
{
closed = 1;
nodes = (
"429 400 LINE",
"358 253 OFFCURVE",
"320 0 OFFCURVE",
"481 0 CURVE SMOOTH",
"530 0 OFFCURVE",
"753 338 OFFCURVE",
"766 362 CURVE SMOOTH",
"776 380 OFFCURVE",
"760 398 OFFCURVE",
"748 398 CURVE",
"748 398 OFFCURVE",
"488 37 OFFCURVE",
"472 37 CURVE SMOOTH",
"456 37 OFFCURVE",
"425 50 OFFCURVE",
"425 107 CURVE SMOOTH",
"425 235 OFFCURVE",
"469 351 OFFCURVE",
"505 447 CURVE"
);
},
{
closed = 1;
nodes = (
"460 362 LINE",
"517 459 OFFCURVE",
"595 623 OFFCURVE",
"595 662 CURVE SMOOTH",
"595 688 OFFCURVE",
"573 706 OFFCURVE",
"539 706 CURVE",
"523 706 OFFCURVE",
"425 446 OFFCURVE",
"425 377 CURVE"
);
},
{
closed = 1;
nodes = (
"144 599 OFFCURVE",
"28 451 OFFCURVE",
"28 313 CURVE SMOOTH",
"28 239 OFFCURVE",
"84 146 OFFCURVE",
"170 146 CURVE SMOOTH",
"293 146 OFFCURVE",
"433 350 OFFCURVE",
"488 422 CURVE",
"469 448 LINE",
"455 414 OFFCURVE",
"257 188 OFFCURVE",
"172 188 CURVE SMOOTH",
"117 188 OFFCURVE",
"85 223 OFFCURVE",
"85 313 CURVE SMOOTH",
"85 416 OFFCURVE",
"182 558 OFFCURVE",
"320 558 CURVE SMOOTH",
"425 558 OFFCURVE",
"379 332 OFFCURVE",
"379 289 CURVE",
"414 289 LINE",
"430 396 OFFCURVE",
"483 599 OFFCURVE",
"295 599 CURVE SMOOTH"
);
}
);
width = 612;
},
{
associatedMasterId = "2CA0DBAD-D64B-45C4-9A33-36C1DBAC27D7";
layerId = "E46D6B0D-A891-4073-A311-5298168D6570";
name = "Regular Aug 17 16, 23:57";
paths = (
{
closed = 1;
nodes = (
"-27 597 OFFCURVE",
"-80 136 OFFCURVE",
"120 136 CURVE SMOOTH",
"243 136 OFFCURVE",
"373 347 OFFCURVE",
"428 419 CURVE",
"404 435 LINE",
"390 401 OFFCURVE",
"207 173 OFFCURVE",
"122 173 CURVE SMOOTH",
"-19 173 OFFCURVE",
"39 561 OFFCURVE",
"292 561 CURVE SMOOTH",
"401 561 OFFCURVE",
"331 332 OFFCURVE",
"331 289 CURVE",
"364 289 LINE",
"380 396 OFFCURVE",
"469 597 OFFCURVE",
"255 597 CURVE"
);
},
{
closed = 1;
nodes = (
"388 493 OFFCURVE",
"221 4 OFFCURVE",
"436 0 CURVE SMOOTH",
"485 -1 OFFCURVE",
"726 369 OFFCURVE",
"726 383 CURVE SMOOTH",
"726 397 OFFCURVE",
"705 401 OFFCURVE",
"705 398 CURVE SMOOTH",
"705 395 OFFCURVE",
"445 30 OFFCURVE",
"429 30 CURVE SMOOTH",
"413 30 OFFCURVE",
"385 55 OFFCURVE",
"385 88 CURVE SMOOTH",
"385 331 OFFCURVE",
"574 639 OFFCURVE",
"574 653 CURVE SMOOTH",
"574 667 OFFCURVE",
"563 696 OFFCURVE",
"529 696 CURVE"
);
},
{
closed = 1;
nodes = (
"131 400 OFFCURVE",
"69 315 OFFCURVE",
"69 142 CURVE SMOOTH",
"69 46 OFFCURVE",
"147 -9 OFFCURVE",
"210 -9 CURVE",
"233 -9 OFFCURVE",
"390 305 OFFCURVE",
"405 343 CURVE",
"364 355 LINE",
"307 244 OFFCURVE",
"207 28 OFFCURVE",
"192 28 CURVE",
"191 28 OFFCURVE",
"121 44 OFFCURVE",
"121 134 CURVE SMOOTH",
"121 209 OFFCURVE",
"185 353 OFFCURVE",
"185 363 CURVE",
"185 385 OFFCURVE",
"160 399 OFFCURVE",
"131 400 CURVE"
);
}
);
width = 582;
},
{
associatedMasterId = "2CA0DBAD-D64B-45C4-9A33-36C1DBAC27D7";
layerId = "E52BEAE8-A2D7-41F3-BC67-ECB0F61316B2";
name = "Regular Aug 18 16, 00:41";
paths = (
{
closed = 1;
nodes = (
"175 400 OFFCURVE",
"99 303 OFFCURVE",
"99 152 CURVE SMOOTH",
"99 55 OFFCURVE",
"167 -9 OFFCURVE",
"240 -9 CURVE",
"263 -9 OFFCURVE",
"440 315 OFFCURVE",
"455 353 CURVE",
"414 365 LINE",
"357 254 OFFCURVE",
"236 31 OFFCURVE",
"221 31 CURVE",
"220 31 OFFCURVE",
"153 40 OFFCURVE",
"153 137 CURVE SMOOTH",
"153 232 OFFCURVE",
"229 353 OFFCURVE",
"229 363 CURVE",
"229 385 OFFCURVE",
"198 399 OFFCURVE",
"175 400 CURVE"
);
},
{
closed = 1;
nodes = (
"429 400 LINE",
"358 253 OFFCURVE",
"320 0 OFFCURVE",
"481 0 CURVE SMOOTH",
"530 0 OFFCURVE",
"753 338 OFFCURVE",
"766 362 CURVE SMOOTH",
"776 380 OFFCURVE",
"760 398 OFFCURVE",
"748 398 CURVE",
"748 398 OFFCURVE",
"488 37 OFFCURVE",
"472 37 CURVE SMOOTH",
"456 37 OFFCURVE",
"425 50 OFFCURVE",
"425 107 CURVE SMOOTH",
"425 235 OFFCURVE",
"462 332 OFFCURVE",
"498 428 CURVE"
);
},
{
closed = 1;
nodes = (
"460 362 LINE",
"517 459 OFFCURVE",
"604 599 OFFCURVE",
"604 654 CURVE SMOOTH",
"604 680 OFFCURVE",
"573 706 OFFCURVE",
"539 706 CURVE",
"523 706 OFFCURVE",
"425 446 OFFCURVE",
"425 377 CURVE"
);
},
{
closed = 1;
nodes = (
"144 599 OFFCURVE",
"20 458 OFFCURVE",
"20 331 CURVE SMOOTH",
"20 249 OFFCURVE",
"84 166 OFFCURVE",
"170 166 CURVE SMOOTH",
"293 166 OFFCURVE",
"433 347 OFFCURVE",
"488 419 CURVE",
"469 435 LINE",
"455 401 OFFCURVE",
"257 208 OFFCURVE",
"172 208 CURVE SMOOTH",
"117 208 OFFCURVE",
"79 236 OFFCURVE",
"79 334 CURVE SMOOTH",
"79 426 OFFCURVE",
"196 558 OFFCURVE",
"320 558 CURVE SMOOTH",
"425 558 OFFCURVE",
"379 332 OFFCURVE",
"379 289 CURVE",
"414 289 LINE",
"430 396 OFFCURVE",
"483 599 OFFCURVE",
"295 599 CURVE SMOOTH"
);
}
);
width = 612;
}
);
unicode = 0064;
},
{
color = 3;
glyphname = e;
lastChange = "2016-08-20 09:27:01 +0000";
layers = (
{
associatedMasterId = "2CA0DBAD-D64B-45C4-9A33-36C1DBAC27D7";
layerId = "FDD46F99-7D19-4D5D-B3BB-FFAEEB1F8C75";
name = "Regular Aug 6 16, 12:49";
paths = (
{
closed = 1;
nodes = (
"132 600 OFFCURVE",
"6 345 OFFCURVE",
"6 201 CURVE SMOOTH",
"6 66 OFFCURVE",
"67 -10 OFFCURVE",
"182 -10 CURVE SMOOTH",
"365 -10 OFFCURVE",
"578 347 OFFCURVE",
"578 368 CURVE SMOOTH",
"578 400 OFFCURVE",
"558 400 OFFCURVE",
"549 400 CURVE",
"535 400 OFFCURVE",
"333 22 OFFCURVE",
"165 22 CURVE SMOOTH",
"114 22 OFFCURVE",
"64 50 OFFCURVE",
"64 169 CURVE SMOOTH",
"64 333 OFFCURVE",
"197 570 OFFCURVE",
"277 570 CURVE SMOOTH",
"298 570 OFFCURVE",
"345 565 OFFCURVE",
"345 505 CURVE SMOOTH",
"345 435 OFFCURVE",
"250 181 OFFCURVE",
"78 181 CURVE",
"78 166 OFFCURVE",
"88 150 OFFCURVE",
"111 150 CURVE SMOOTH",
"274 150 OFFCURVE",
"380 383 OFFCURVE",
"380 495 CURVE SMOOTH",
"380 555 OFFCURVE",
"323 600 OFFCURVE",
"269 600 CURVE SMOOTH"
);
}
);
width = 410;
},
{
associatedMasterId = "2CA0DBAD-D64B-45C4-9A33-36C1DBAC27D7";
layerId = "5164ABC1-CFDD-42F4-9F7E-E325612E4102";
name = "Regular Aug 6 16, 22:22";
paths = (
{
closed = 1;
nodes = (
"132 600 OFFCURVE",
"6 345 OFFCURVE",
"6 201 CURVE SMOOTH",
"6 66 OFFCURVE",
"67 -10 OFFCURVE",
"182 -10 CURVE SMOOTH",
"365 -10 OFFCURVE",
"571 355 OFFCURVE",
"571 376 CURVE SMOOTH",
"571 400 OFFCURVE",
"558 400 OFFCURVE",
"549 400 CURVE",
"535 400 OFFCURVE",
"333 22 OFFCURVE",
"165 22 CURVE SMOOTH",
"114 22 OFFCURVE",
"64 50 OFFCURVE",
"64 169 CURVE SMOOTH",
"64 333 OFFCURVE",
"198 567 OFFCURVE",
"278 567 CURVE SMOOTH",
"312 567 OFFCURVE",
"345 546 OFFCURVE",
"345 505 CURVE SMOOTH",
"345 435 OFFCURVE",
"265 268 OFFCURVE",
"93 268 CURVE",
"93 253 OFFCURVE",
"109 230 OFFCURVE",
"132 230 CURVE SMOOTH",
"295 230 OFFCURVE",
"380 383 OFFCURVE",
"380 495 CURVE SMOOTH",
"380 555 OFFCURVE",
"323 600 OFFCURVE",
"269 600 CURVE SMOOTH"
);
}
);
width = 410;
},
{
associatedMasterId = "2CA0DBAD-D64B-45C4-9A33-36C1DBAC27D7";
layerId = "979B2168-4254-485A-9148-B36738C988DB";
name = "Regular Aug 7 16, 14:21";
paths = (
{
closed = 1;
nodes = (
"132 600 OFFCURVE",
"6 412 OFFCURVE",
"6 201 CURVE SMOOTH",
"6 66 OFFCURVE",
"67 -10 OFFCURVE",
"182 -10 CURVE SMOOTH",
"365 -10 OFFCURVE",
"571 355 OFFCURVE",
"571 376 CURVE SMOOTH",
"571 400 OFFCURVE",
"558 400 OFFCURVE",
"549 400 CURVE",
"535 400 OFFCURVE",
"333 26 OFFCURVE",
"165 26 CURVE SMOOTH",
"114 26 OFFCURVE",
"64 50 OFFCURVE",
"64 169 CURVE SMOOTH",
"64 400 OFFCURVE",
"217 567 OFFCURVE",
"265 567 CURVE SMOOTH",
"275 567 OFFCURVE",
"301 549 OFFCURVE",
"301 508 CURVE SMOOTH",
"301 438 OFFCURVE",
"235 268 OFFCURVE",
"93 268 CURVE",
"93 253 OFFCURVE",
"109 230 OFFCURVE",
"132 230 CURVE SMOOTH",
"265 230 OFFCURVE",
"336 386 OFFCURVE",
"336 498 CURVE SMOOTH",
"336 558 OFFCURVE",
"291 600 OFFCURVE",
"256 600 CURVE SMOOTH"
);
}
);
width = 403;
},
{
associatedMasterId = "2CA0DBAD-D64B-45C4-9A33-36C1DBAC27D7";
layerId = "E6BE62DC-99FC-4C9D-AC9C-2CBCAB57CF20";
name = "Regular Aug 19 16, 22:38";
paths = (
{
closed = 1;
nodes = (
"148 599 OFFCURVE",
"6 382 OFFCURVE",
"6 201 CURVE SMOOTH",
"6 66 OFFCURVE",
"93 -10 OFFCURVE",
"167 -10 CURVE SMOOTH",
"350 -10 OFFCURVE",
"571 355 OFFCURVE",
"571 376 CURVE SMOOTH",
"571 392 OFFCURVE",
"558 400 OFFCURVE",
"549 400 CURVE",
"545 400 OFFCURVE",
"318 25 OFFCURVE",
"150 25 CURVE SMOOTH",
"148 25 OFFCURVE",
"64 50 OFFCURVE",
"64 169 CURVE SMOOTH",
"64 370 OFFCURVE",
"210 561 OFFCURVE",
"258 561 CURVE SMOOTH",
"268 561 OFFCURVE",
"313 539 OFFCURVE",
"313 504 CURVE SMOOTH",
"313 402 OFFCURVE",
"180 259 OFFCURVE",
"84 259 CURVE",
"84 244 OFFCURVE",
"100 221 OFFCURVE",
"123 221 CURVE SMOOTH",
"210 221 OFFCURVE",
"365 320 OFFCURVE",
"365 502 CURVE SMOOTH",
"365 551 OFFCURVE",
"266 599 OFFCURVE",
"231 599 CURVE SMOOTH"
);
}
);
width = 408;
},
{
associatedMasterId = "2CA0DBAD-D64B-45C4-9A33-36C1DBAC27D7";
background = {
backgroundImage = {
crop = "{{0, 0}, {158.09999999999999, 191.09999999999999}}";
imagePath = Skany/e.jpg;
transform = "{4.250, 0, 0, 4.250, -41.416, -174.676}";
};
};
layerId = "CAB9C0F0-2393-4FE5-8B51-532FDD9B8F04";
name = "Regular Aug 20 16, 01:06";
paths = (
{
closed = 1;
nodes = (
"148 599 OFFCURVE",
"6 382 OFFCURVE",
"6 201 CURVE SMOOTH",
"6 66 OFFCURVE",
"93 -10 OFFCURVE",
"167 -10 CURVE SMOOTH",
"373 -10 OFFCURVE",
"595 355 OFFCURVE",
"595 376 CURVE SMOOTH",
"595 392 OFFCURVE",
"582 400 OFFCURVE",
"573 400 CURVE",
"569 400 OFFCURVE",
"335 33 OFFCURVE",
"167 33 CURVE SMOOTH",
"139 33 OFFCURVE",
"64 50 OFFCURVE",
"64 169 CURVE SMOOTH",
"64 370 OFFCURVE",
"210 561 OFFCURVE",
"258 561 CURVE SMOOTH",
"288 561 OFFCURVE",
"313 539 OFFCURVE",
"313 504 CURVE SMOOTH",
"313 409 OFFCURVE",
"246 282 OFFCURVE",
"138 282 CURVE SMOOTH",
"105 282 OFFCURVE",
"74 320 OFFCURVE",
"74 342 CURVE",
"50 323 LINE",
"50 306 OFFCURVE",
"82 234 OFFCURVE",
"155 234 CURVE SMOOTH",
"251 234 OFFCURVE",
"365 346 OFFCURVE",
"365 502 CURVE SMOOTH",
"365 551 OFFCURVE",
"321 599 OFFCURVE",
"231 599 CURVE SMOOTH"
);
}
);
width = 428;
},
{
layerId = "2CA0DBAD-D64B-45C4-9A33-36C1DBAC27D7";
paths = (
{
closed = 1;
nodes = (
"148 599 OFFCURVE",
"6 382 OFFCURVE",
"6 201 CURVE SMOOTH",
"6 66 OFFCURVE",
"93 -10 OFFCURVE",
"167 -10 CURVE SMOOTH",
"373 -10 OFFCURVE",
"595 355 OFFCURVE",
"595 376 CURVE SMOOTH",
"595 392 OFFCURVE",
"582 400 OFFCURVE",
"573 400 CURVE",
"569 400 OFFCURVE",
"335 33 OFFCURVE",
"167 33 CURVE SMOOTH",
"139 33 OFFCURVE",
"64 50 OFFCURVE",
"64 169 CURVE SMOOTH",
"64 370 OFFCURVE",
"225 561 OFFCURVE",
"258 561 CURVE SMOOTH",
"288 561 OFFCURVE",
"309 539 OFFCURVE",
"309 504 CURVE SMOOTH",
"309 382 OFFCURVE",
"184 233 OFFCURVE",
"9 233 CURVE",
"9 218 OFFCURVE",
"25 196 OFFCURVE",
"48 196 CURVE SMOOTH",
"214 196 OFFCURVE",
"365 320 OFFCURVE",
"365 502 CURVE SMOOTH",
"365 551 OFFCURVE",
"321 599 OFFCURVE",
"231 599 CURVE SMOOTH"
);
}
);
width = 428;
}
);
leftKerningGroup = c;
leftMetricsKey = c;
rightKerningGroup = c;
unicode = 0065;
},
{
color = 3;
glyphname = f;
lastChange = "2016-08-20 08:40:56 +0000";
layers = (
{
background = {
backgroundImage = {
crop = "{{0, 0}, {225.90000000000001, 322.80000000000001}}";
imagePath = Skany/ff.jpg;
transform = "{4.326, 0, 0, 4.326, -548, -446}";
};
};
layerId = "2CA0DBAD-D64B-45C4-9A33-36C1DBAC27D7";
paths = (
{
closed = 1;
nodes = (
"326 569 OFFCURVE",
"307 587 OFFCURVE",
"307 598 CURVE SMOOTH",
"307 606 OFFCURVE",
"340 677 OFFCURVE",
"340 721 CURVE SMOOTH",
"340 769 OFFCURVE",
"327 781 OFFCURVE",
"314 781 CURVE SMOOTH",
"247 781 OFFCURVE",
"83 139 OFFCURVE",
"83 -108 CURVE",
"46 -108 OFFCURVE",
"42 -81 OFFCURVE",
"42 -27 CURVE SMOOTH",
"42 273 OFFCURVE",
"188 822 OFFCURVE",
"284 822 CURVE SMOOTH",
"350 822 OFFCURVE",
"400 791 OFFCURVE",
"394 692 CURVE SMOOTH",
"391 648 OFFCURVE",
"380 607 OFFCURVE",
"350 569 CURVE"
);
},
{
closed = 1;
nodes = (
"14 437 OFFCURVE",
"144 494 OFFCURVE",
"402 503 CURVE",
"402 481 OFFCURVE",
"380 465 OFFCURVE",
"334 458 CURVE SMOOTH",
"247 445 OFFCURVE",
"137 421 OFFCURVE",
"62 405 CURVE SMOOTH",
"34 399 OFFCURVE",
"14 426 OFFCURVE",
"14 437 CURVE"
);
}
);
width = 344;
},
{
associatedMasterId = "2CA0DBAD-D64B-45C4-9A33-36C1DBAC27D7";
layerId = "2015543E-4AA3-4500-B281-F7A00A741D12";
name = "Regular Aug 20 16, 02:01";
paths = (
{
closed = 1;
nodes = (
"177 808 OFFCURVE",
"53 -207 OFFCURVE",
"53 -271 CURVE",
"100 -271 OFFCURVE",
"119 -214 OFFCURVE",
"119 -196 CURVE SMOOTH",
"119 -178 OFFCURVE",
"248 772 OFFCURVE",
"343 772 CURVE SMOOTH",
"349 772 OFFCURVE",
"364 753 OFFCURVE",
"364 712 CURVE SMOOTH",
"364 536 OFFCURVE",
"263 417 OFFCURVE",
"55 400 CURVE",
"55 383 OFFCURVE",
"62 365 OFFCURVE",
"86 364 CURVE SMOOTH",
"236 358 OFFCURVE",
"397 500 OFFCURVE",
"397 687 CURVE SMOOTH",
"397 797 OFFCURVE",
"359 808 OFFCURVE",
"321 808 CURVE SMOOTH"
);
},
{
closed = 1;
nodes = (
"2 194 OFFCURVE",
"8 174 OFFCURVE",
"38 174 CURVE SMOOTH",
"68 174 OFFCURVE",
"392 300 OFFCURVE",
"419 316 CURVE SMOOTH",
"445 332 OFFCURVE",
"451 332 OFFCURVE",
"451 363 CURVE",
"2 211 LINE"
);
}
);
width = 374;
},
{
associatedMasterId = "2CA0DBAD-D64B-45C4-9A33-36C1DBAC27D7";
layerId = "278FDCC8-51DE-4703-AFE9-1932D6E8B3AB";
name = "Regular Aug 20 16, 02:16";
paths = (
{
closed = 1;
nodes = (
"76 -108 OFFCURVE",
"72 -81 OFFCURVE",
"72 -27 CURVE SMOOTH",
"72 273 OFFCURVE",
"218 822 OFFCURVE",
"314 822 CURVE SMOOTH",
"358 822 OFFCURVE",
"420 791 OFFCURVE",
"414 692 CURVE SMOOTH",
"403 511 OFFCURVE",
"205 368 OFFCURVE",
"179 369 CURVE",
"193 425 LINE",
"216 425 OFFCURVE",
"370 582 OFFCURVE",
"370 708 CURVE SMOOTH",
"370 769 OFFCURVE",
"357 781 OFFCURVE",
"344 781 CURVE SMOOTH",
"277 781 OFFCURVE",
"113 139 OFFCURVE",
"113 -108 CURVE"
);
},
{
closed = 1;
nodes = (
"24 267 OFFCURVE",
"154 324 OFFCURVE",
"412 333 CURVE",
"412 311 OFFCURVE",
"390 295 OFFCURVE",
"344 288 CURVE SMOOTH",
"257 275 OFFCURVE",
"147 251 OFFCURVE",
"72 235 CURVE SMOOTH",
"44 229 OFFCURVE",
"24 256 OFFCURVE",
"24 267 CURVE"
);
}
);
width = 374;
},
{
associatedMasterId = "2CA0DBAD-D64B-45C4-9A33-36C1DBAC27D7";
layerId = "F8F1A27D-13CE-4F08-84AB-95AEF5AA88CB";
name = "Regular Aug 20 16, 02:18";
paths = (
{
closed = 1;
nodes = (
"76 -108 OFFCURVE",
"72 -81 OFFCURVE",
"72 -27 CURVE SMOOTH",
"72 273 OFFCURVE",
"218 822 OFFCURVE",
"314 822 CURVE SMOOTH",
"358 822 OFFCURVE",
"419 791 OFFCURVE",
"414 692 CURVE SMOOTH",
"403 487 OFFCURVE",
"205 344 OFFCURVE",
"179 345 CURVE",
"193 401 LINE",
"216 401 OFFCURVE",
"370 558 OFFCURVE",
"370 708 CURVE SMOOTH",
"370 769 OFFCURVE",
"357 781 OFFCURVE",
"344 781 CURVE SMOOTH",
"277 781 OFFCURVE",
"113 139 OFFCURVE",
"113 -108 CURVE"
);
},
{
closed = 1;
nodes = (
"92 165 OFFCURVE",
"305 176 OFFCURVE",
"614 390 CURVE",
"614 368 OFFCURVE",
"611 357 OFFCURVE",
"587 335 CURVE SMOOTH",
"426 181 OFFCURVE",
"215 133 OFFCURVE",
"140 133 CURVE SMOOTH",
"111 133 OFFCURVE",
"92 154 OFFCURVE",
"92 165 CURVE"
);
}
);
width = 374;
}
);
unicode = 0066;
},
{
color = 3;
glyphname = g;
lastChange = "2016-08-20 02:49:39 +0000";
layers = (
{
associatedMasterId = "2CA0DBAD-D64B-45C4-9A33-36C1DBAC27D7";
layerId = "0C914B90-F062-4A97-A40B-FD3A07C649F7";
name = "Regular Aug 16 16, 23:14";
paths = (
{
closed = 1;
nodes = (
"461 323 OFFCURVE",
"247 22 OFFCURVE",
"239 22 CURVE",
"238 22 OFFCURVE",
"178 45 OFFCURVE",
"178 131 CURVE SMOOTH",
"178 218 OFFCURVE",
"247 358 OFFCURVE",
"247 368 CURVE",
"247 390 OFFCURVE",
"219 400 OFFCURVE",
"198 400 CURVE",
"198 400 OFFCURVE",
"126 316 OFFCURVE",
"126 143 CURVE SMOOTH",
"126 61 OFFCURVE",
"194 -12 OFFCURVE",
"257 -12 CURVE",
"317 -12 OFFCURVE",
"506 332 OFFCURVE",
"506 455 CURVE SMOOTH",
"506 548 OFFCURVE",
"452 614 OFFCURVE",
"374 614 CURVE SMOOTH",
"207 614 OFFCURVE",
"75 491 OFFCURVE",
"75 411 CURVE SMOOTH",
"75 139 OFFCURVE",
"446 180 OFFCURVE",
"446 44 CURVE SMOOTH",
"446 -41 OFFCURVE",
"280 -236 OFFCURVE",
"128 -236 CURVE SMOOTH",
"75 -236 OFFCURVE",
"49 -200 OFFCURVE",
"49 -160 CURVE SMOOTH",
"49 -77 OFFCURVE",
"122 -34 OFFCURVE",
"122 -18 CURVE SMOOTH",
"122 -2 OFFCURVE",
"100 19 OFFCURVE",
"82 19 CURVE",
"77 19 OFFCURVE",
"1 -54 OFFCURVE",
"1 -140 CURVE SMOOTH",
"1 -212 OFFCURVE",
"39 -271 OFFCURVE",
"158 -271 CURVE SMOOTH",
"312 -271 OFFCURVE",
"487 -108 OFFCURVE",
"487 14 CURVE SMOOTH",
"487 256 OFFCURVE",
"130 185 OFFCURVE",
"130 387 CURVE SMOOTH",
"130 445 OFFCURVE",
"246 572 OFFCURVE",
"389 572 CURVE SMOOTH",
"434 572 OFFCURVE",
"461 537 OFFCURVE",
"461 500 CURVE SMOOTH"
);
}
);
width = 520;
},
{
associatedMasterId = "2CA0DBAD-D64B-45C4-9A33-36C1DBAC27D7";
layerId = "0832E601-3DFA-4FA3-9E0D-7EEDF73C0BB6";
name = "Regular Aug 18 16, 00:42";
paths = (
{
closed = 1;
nodes = (
"471 323 OFFCURVE",
"257 22 OFFCURVE",
"249 22 CURVE",
"248 22 OFFCURVE",
"188 45 OFFCURVE",
"188 131 CURVE SMOOTH",
"188 218 OFFCURVE",
"257 358 OFFCURVE",
"257 368 CURVE",
"257 390 OFFCURVE",
"229 400 OFFCURVE",
"208 400 CURVE",
"208 400 OFFCURVE",
"136 316 OFFCURVE",
"136 143 CURVE SMOOTH",
"136 61 OFFCURVE",
"204 -12 OFFCURVE",
"267 -12 CURVE",
"327 -12 OFFCURVE",
"516 332 OFFCURVE",
"516 455 CURVE SMOOTH",
"516 548 OFFCURVE",
"462 614 OFFCURVE",
"384 614 CURVE SMOOTH",
"217 614 OFFCURVE",
"85 491 OFFCURVE",
"85 411 CURVE SMOOTH",
"85 139 OFFCURVE",
"456 180 OFFCURVE",
"456 44 CURVE SMOOTH",
"456 -41 OFFCURVE",
"290 -236 OFFCURVE",
"138 -236 CURVE SMOOTH",
"85 -236 OFFCURVE",
"59 -200 OFFCURVE",
"59 -160 CURVE SMOOTH",
"59 -77 OFFCURVE",
"132 -34 OFFCURVE",
"132 -18 CURVE SMOOTH",
"132 -2 OFFCURVE",
"110 19 OFFCURVE",
"92 19 CURVE",
"87 19 OFFCURVE",
"11 -54 OFFCURVE",
"11 -140 CURVE SMOOTH",
"11 -212 OFFCURVE",
"49 -271 OFFCURVE",
"168 -271 CURVE SMOOTH",
"322 -271 OFFCURVE",
"497 -108 OFFCURVE",
"497 14 CURVE SMOOTH",
"497 256 OFFCURVE",
"140 185 OFFCURVE",
"140 387 CURVE SMOOTH",
"140 445 OFFCURVE",
"256 572 OFFCURVE",
"399 572 CURVE SMOOTH",
"444 572 OFFCURVE",
"471 537 OFFCURVE",
"471 500 CURVE SMOOTH"
);
}
);
width = 530;
},
{
associatedMasterId = "2CA0DBAD-D64B-45C4-9A33-36C1DBAC27D7";
background = {
backgroundImage = {
crop = "{{0, 0}, {244.19999999999999, 240}}";
imagePath = Skany/gg.jpg;
transform = "{4.281, 0, 0, 4.281, -544, -307}";
};
};
layerId = "E6D725F3-17B1-4E3B-B9B5-EC8253E68A7A";
name = "Regular Aug 18 16, 00:49";
paths = (
{
closed = 1;
nodes = (
"461 277 OFFCURVE",
"263 43 OFFCURVE",
"255 43 CURVE",
"254 43 OFFCURVE",
"198 40 OFFCURVE",
"198 131 CURVE SMOOTH",
"198 218 OFFCURVE",
"275 352 OFFCURVE",
"275 362 CURVE",
"275 384 OFFCURVE",
"239 400 OFFCURVE",
"218 400 CURVE",
"218 400 OFFCURVE",
"146 316 OFFCURVE",
"146 143 CURVE SMOOTH",
"146 61 OFFCURVE",
"199 0 OFFCURVE",
"262 0 CURVE",
"306 0 OFFCURVE",
"512 236 OFFCURVE",
"512 413 CURVE SMOOTH",
"512 515 OFFCURVE",
"468 600 OFFCURVE",
"354 600 CURVE SMOOTH",
"187 600 OFFCURVE",
"95 491 OFFCURVE",
"95 411 CURVE SMOOTH",
"95 139 OFFCURVE",
"466 180 OFFCURVE",
"466 44 CURVE SMOOTH",
"466 -41 OFFCURVE",
"300 -232 OFFCURVE",
"148 -232 CURVE SMOOTH",
"95 -232 OFFCURVE",
"75 -200 OFFCURVE",
"75 -160 CURVE SMOOTH",
"75 -95 OFFCURVE",
"144 -47 OFFCURVE",
"146 -31 CURVE SMOOTH",
"150 -3 OFFCURVE",
"120 19 OFFCURVE",
"102 19 CURVE",
"97 19 OFFCURVE",
"21 -54 OFFCURVE",
"21 -140 CURVE SMOOTH",
"21 -212 OFFCURVE",
"59 -271 OFFCURVE",
"178 -271 CURVE SMOOTH",
"332 -271 OFFCURVE",
"507 -108 OFFCURVE",
"507 14 CURVE SMOOTH",
"507 256 OFFCURVE",
"150 185 OFFCURVE",
"150 387 CURVE SMOOTH",
"150 457 OFFCURVE",
"242 555 OFFCURVE",
"385 555 CURVE SMOOTH",
"452 555 OFFCURVE",
"461 488 OFFCURVE",
"461 454 CURVE SMOOTH"
);
}
);
width = 530;
},
{
layerId = "2CA0DBAD-D64B-45C4-9A33-36C1DBAC27D7";
paths = (
{
closed = 1;
nodes = (
"466 265 OFFCURVE",
"268 31 OFFCURVE",
"260 31 CURVE",
"259 31 OFFCURVE",
"188 40 OFFCURVE",
"188 131 CURVE SMOOTH",
"188 218 OFFCURVE",
"265 352 OFFCURVE",
"265 362 CURVE",
"265 384 OFFCURVE",
"229 400 OFFCURVE",
"208 400 CURVE",
"208 400 OFFCURVE",
"136 316 OFFCURVE",
"136 143 CURVE SMOOTH",
"136 61 OFFCURVE",
"204 -12 OFFCURVE",
"267 -12 CURVE",
"311 -12 OFFCURVE",
"517 224 OFFCURVE",
"517 401 CURVE SMOOTH",
"517 519 OFFCURVE",
"468 600 OFFCURVE",
"344 600 CURVE SMOOTH",
"177 600 OFFCURVE",
"85 491 OFFCURVE",
"85 411 CURVE SMOOTH",
"85 139 OFFCURVE",
"456 180 OFFCURVE",
"456 44 CURVE SMOOTH",
"456 -41 OFFCURVE",
"290 -232 OFFCURVE",
"138 -232 CURVE SMOOTH",
"85 -232 OFFCURVE",
"65 -200 OFFCURVE",
"65 -160 CURVE SMOOTH",
"65 -95 OFFCURVE",
"134 -47 OFFCURVE",
"136 -31 CURVE SMOOTH",
"140 -3 OFFCURVE",
"110 19 OFFCURVE",
"92 19 CURVE",
"87 19 OFFCURVE",
"11 -54 OFFCURVE",
"11 -140 CURVE SMOOTH",
"11 -212 OFFCURVE",
"49 -271 OFFCURVE",
"168 -271 CURVE SMOOTH",
"322 -271 OFFCURVE",
"497 -108 OFFCURVE",
"497 14 CURVE SMOOTH",
"497 256 OFFCURVE",
"140 185 OFFCURVE",
"140 387 CURVE SMOOTH",
"140 457 OFFCURVE",
"232 555 OFFCURVE",
"375 555 CURVE SMOOTH",
"452 555 OFFCURVE",
"466 492 OFFCURVE",
"466 442 CURVE SMOOTH"
);
}
);
width = 540;
}
);
unicode = 0067;
},
{
color = 3;
glyphname = h;
lastChange = "2016-08-20 08:37:31 +0000";
layers = (
{
background = {
backgroundImage = {
crop = "{{0, 0}, {168, 230.69999999999999}}";
imagePath = Skany/h2.jpg;
transform = "{4.226, -0.350, 0.350, 4.226, 2, -78}";
};
};
layerId = "2CA0DBAD-D64B-45C4-9A33-36C1DBAC27D7";
paths = (
{
closed = 1;
nodes = (
"304 593 OFFCURVE",
"42 35 OFFCURVE",
"65 93 CURVE",
"64 55 LINE",
"46 145 OFFCURVE",
"249 692 OFFCURVE",
"249 721 CURVE SMOOTH",
"249 754 OFFCURVE",
"217 766 OFFCURVE",
"191 766 CURVE",
"183 766 OFFCURVE",
"14 231 OFFCURVE",
"14 66 CURVE SMOOTH",
"14 18 OFFCURVE",
"53 0 OFFCURVE",
"64 0 CURVE",
"64 0 OFFCURVE",
"264 386 OFFCURVE",
"344 511 CURVE",
"341 593 LINE"
);
},
{
closed = 1;
nodes = (
"341 593 OFFCURVE",
"286 209 OFFCURVE",
"357 73 CURVE SMOOTH",
"380 29 OFFCURVE",
"415 1 OFFCURVE",
"465 1 CURVE",
"511 1 OFFCURVE",
"753 356 OFFCURVE",
"753 375 CURVE SMOOTH",
"753 398 OFFCURVE",
"741 400 OFFCURVE",
"728 400 CURVE",
"728 400 OFFCURVE",
"474 42 OFFCURVE",
"453 42 CURVE SMOOTH",
"434 42 OFFCURVE",
"416 60 OFFCURVE",
"406 95 CURVE SMOOTH",
"369 225 OFFCURVE",
"405 454 OFFCURVE",
"405 543 CURVE SMOOTH",
"405 575 OFFCURVE",
"369 593 OFFCURVE",
"341 593 CURVE"
);
}
);
width = 550;
},
{
associatedMasterId = "2CA0DBAD-D64B-45C4-9A33-36C1DBAC27D7";
layerId = "62436ADB-12D0-4516-96AA-234F9AD526D8";
name = "Regular Aug 7 16, 02:16";
paths = (
{
closed = 1;
nodes = (
"227 801 OFFCURVE",
"44 306 OFFCURVE",
"44 92 CURVE SMOOTH",
"44 37 OFFCURVE",
"77 0 OFFCURVE",
"111 0 CURVE SMOOTH",
"120 0 OFFCURVE",
"357 461 OFFCURVE",
"351 471 CURVE SMOOTH",
"332 505 LINE",
"312 505 OFFCURVE",
"108 48 OFFCURVE",
"108 48 CURVE",
"108 48 OFFCURVE",
"93 50 OFFCURVE",
"93 87 CURVE SMOOTH",
"93 243 OFFCURVE",
"297 766 OFFCURVE",
"317 766 CURVE SMOOTH",
"336 766 OFFCURVE",
"355 730 OFFCURVE",
"355 711 CURVE SMOOTH",
"355 631 OFFCURVE",
"249 440 OFFCURVE",
"149 440 CURVE",
"145 399 LINE",
"249 399 OFFCURVE",
"386 590 OFFCURVE",
"386 689 CURVE SMOOTH",
"386 788 OFFCURVE",
"325 801 OFFCURVE",
"288 801 CURVE SMOOTH"
);
},
{
closed = 1;
nodes = (
"332 470 OFFCURVE",
"297 187 OFFCURVE",
"368 51 CURVE SMOOTH",
"391 7 OFFCURVE",
"426 -21 OFFCURVE",
"476 -21 CURVE",
"522 -21 OFFCURVE",
"742 358 OFFCURVE",
"742 377 CURVE SMOOTH",
"742 400 OFFCURVE",
"734 402 OFFCURVE",
"721 402 CURVE",
"721 402 OFFCURVE",
"490 4 OFFCURVE",
"469 4 CURVE SMOOTH",
"450 4 OFFCURVE",
"431 16 OFFCURVE",
"419 60 CURVE SMOOTH",
"402 118 OFFCURVE",
"393 234 OFFCURVE",
"393 455 CURVE SMOOTH",
"393 487 OFFCURVE",
"360 505 OFFCURVE",
"332 505 CURVE"
);
}
);
width = 600;
},
{
associatedMasterId = "2CA0DBAD-D64B-45C4-9A33-36C1DBAC27D7";
layerId = "205F0890-9AA1-4A82-BC30-2C700B0A231C";
name = "Regular Aug 7 16, 21:57";
paths = (
{
closed = 1;
nodes = (
"227 861 OFFCURVE",
"14 306 OFFCURVE",
"14 92 CURVE SMOOTH",
"14 37 OFFCURVE",
"47 0 OFFCURVE",
"81 0 CURVE SMOOTH",
"90 0 OFFCURVE",
"364 502 OFFCURVE",
"358 512 CURVE SMOOTH",
"339 546 LINE",
"319 546 OFFCURVE",
"73 44 OFFCURVE",
"68 44 CURVE",
"68 44 OFFCURVE",
"58 47 OFFCURVE",
"58 67 CURVE SMOOTH",
"58 223 OFFCURVE",
"297 826 OFFCURVE",
"317 826 CURVE SMOOTH",
"336 826 OFFCURVE",
"340 800 OFFCURVE",
"340 761 CURVE SMOOTH",
"340 700 OFFCURVE",
"244 505 OFFCURVE",
"144 505 CURVE",
"145 459 LINE",
"249 459 OFFCURVE",
"386 650 OFFCURVE",
"386 749 CURVE SMOOTH",
"386 848 OFFCURVE",
"325 861 OFFCURVE",
"288 861 CURVE SMOOTH"
);
},
{
closed = 1;
nodes = (
"328 547 OFFCURVE",
"310 187 OFFCURVE",
"381 51 CURVE SMOOTH",
"404 7 OFFCURVE",
"439 -21 OFFCURVE",
"489 -21 CURVE",
"535 -21 OFFCURVE",
"755 358 OFFCURVE",
"755 377 CURVE SMOOTH",
"755 400 OFFCURVE",
"747 402 OFFCURVE",
"734 402 CURVE",
"734 402 OFFCURVE",
"503 4 OFFCURVE",
"482 4 CURVE SMOOTH",
"463 4 OFFCURVE",
"444 16 OFFCURVE",
"432 60 CURVE SMOOTH",
"385 232 OFFCURVE",
"404 408 OFFCURVE",
"404 497 CURVE SMOOTH",
"404 529 OFFCURVE",
"368 547 OFFCURVE",
"340 547 CURVE"
);
}
);
width = 570;
},
{
associatedMasterId = "2CA0DBAD-D64B-45C4-9A33-36C1DBAC27D7";
layerId = "A4B7F9BD-E006-4119-8C77-070D333C1D9F";
name = "Regular Aug 19 16, 00:09";
paths = (
{
closed = 1;
nodes = (
"237 894 OFFCURVE",
"17 306 OFFCURVE",
"17 92 CURVE SMOOTH",
"17 37 OFFCURVE",
"50 0 OFFCURVE",
"84 0 CURVE SMOOTH",
"93 0 OFFCURVE",
"361 482 OFFCURVE",
"361 483 CURVE",
"342 546 LINE",
"322 546 OFFCURVE",
"76 44 OFFCURVE",
"71 44 CURVE",
"71 44 OFFCURVE",
"65 47 OFFCURVE",
"65 67 CURVE SMOOTH",
"65 223 OFFCURVE",
"305 853 OFFCURVE",
"333 853 CURVE SMOOTH",
"361 853 OFFCURVE",
"391 820 OFFCURVE",
"391 768 CURVE SMOOTH",
"391 687 OFFCURVE",
"253 534 OFFCURVE",
"153 534 CURVE",
"154 493 LINE",
"258 493 OFFCURVE",
"436 642 OFFCURVE",
"437 741 CURVE SMOOTH",
"438 871 OFFCURVE",
"335 894 OFFCURVE",
"298 894 CURVE SMOOTH"
);
},
{
closed = 1;
nodes = (
"331 547 OFFCURVE",
"313 187 OFFCURVE",
"384 51 CURVE SMOOTH",
"407 7 OFFCURVE",
"440 -21 OFFCURVE",
"490 -21 CURVE",
"545 -21 OFFCURVE",
"790 351 OFFCURVE",
"790 370 CURVE SMOOTH",
"790 397 OFFCURVE",
"774 400 OFFCURVE",
"767 400 CURVE",
"767 400 OFFCURVE",
"504 13 OFFCURVE",
"483 13 CURVE SMOOTH",
"464 13 OFFCURVE",
"445 25 OFFCURVE",
"433 69 CURVE SMOOTH",
"386 241 OFFCURVE",
"405 410 OFFCURVE",
"405 499 CURVE SMOOTH",
"405 531 OFFCURVE",
"371 547 OFFCURVE",
"343 547 CURVE"
);
}
);
width = 570;
},
{
associatedMasterId = "2CA0DBAD-D64B-45C4-9A33-36C1DBAC27D7";
layerId = "AF29ACEA-5C3E-4518-B4EC-76BA2045F117";
name = "Regular Aug 19 16, 00:32";
paths = (
{
closed = 1;
nodes = (
"711 382 OFFCURVE",
"694 400 OFFCURVE",
"683 400 CURVE",
"591 281 OFFCURVE",
"423 37 OFFCURVE",
"407 37 CURVE SMOOTH",
"390 37 OFFCURVE",
"362 68 OFFCURVE",
"362 153 CURVE SMOOTH",
"362 281 OFFCURVE",
"391 452 OFFCURVE",
"400 548 CURVE SMOOTH",
"403 581 OFFCURVE",
"361 599 OFFCURVE",
"336 599 CURVE SMOOTH",
"336 599 OFFCURVE",
"295 394 OFFCURVE",
"295 193 CURVE SMOOTH",
"295 136 OFFCURVE",
"312 0 OFFCURVE",
"416 0 CURVE",
"457 0 OFFCURVE",
"621 235 OFFCURVE",
"700 364 CURVE SMOOTH"
);
},
{
closed = 1;
nodes = (
"301 599 OFFCURVE",
"66 69 OFFCURVE",
"63 69 CURVE",
"63 190 OFFCURVE",
"249 693 OFFCURVE",
"249 721 CURVE SMOOTH",
"249 754 OFFCURVE",
"217 766 OFFCURVE",
"191 766 CURVE",
"183 766 OFFCURVE",
"14 231 OFFCURVE",
"14 66 CURVE SMOOTH",
"14 35 OFFCURVE",
"37 0 OFFCURVE",
"71 0 CURVE SMOOTH",
"80 0 OFFCURVE",
"274 412 OFFCURVE",
"338 524 CURVE",
"336 599 LINE"
);
}
);
width = 510;
}
);
unicode = 0068;
},
{
color = 3;
glyphname = i;
lastChange = "2016-08-20 08:37:44 +0000";
layers = (
{
background = {
backgroundImage = {
crop = "{{0, 0}, {311.39999999999998, 275.39999999999998}}";
imagePath = Skany/ijjj.jpg;
transform = "{4.367, 0, 0, 4.367, -32, -389}";
};
};
layerId = "2CA0DBAD-D64B-45C4-9A33-36C1DBAC27D7";
paths = (
{
closed = 1;
nodes = (
"88 500 OFFCURVE",
"16 286 OFFCURVE",
"16 137 CURVE SMOOTH",
"16 32 OFFCURVE",
"79 -1 OFFCURVE",
"129 -1 CURVE",
"178 0 OFFCURVE",
"403 337 OFFCURVE",
"415 363 CURVE SMOOTH",
"423 380 OFFCURVE",
"406 400 OFFCURVE",
"397 400 CURVE",
"397 400 OFFCURVE",
"136 37 OFFCURVE",
"120 37 CURVE SMOOTH",
"108 37 OFFCURVE",
"73 49 OFFCURVE",
"73 107 CURVE SMOOTH",
"73 246 OFFCURVE",
"153 437 OFFCURVE",
"153 462 CURVE SMOOTH",
"153 489 OFFCURVE",
"118 500 OFFCURVE",
"95 500 CURVE"
);
},
{
closed = 1;
nodes = (
"42 639 OFFCURVE",
"52 608 OFFCURVE",
"74 594 CURVE SMOOTH",
"100 577 OFFCURVE",
"220 591 OFFCURVE",
"241 662 CURVE SMOOTH",
"245 676 OFFCURVE",
"229 700 OFFCURVE",
"221 702 CURVE",
"210 654 OFFCURVE",
"91 620 OFFCURVE",
"91 633 CURVE",
"91 665 OFFCURVE",
"197 700 OFFCURVE",
"227 672 CURVE",
"231 688 OFFCURVE",
"231 702 OFFCURVE",
"217 716 CURVE SMOOTH",
"190 743 OFFCURVE",
"52 707 OFFCURVE",
"45 652 CURVE"
);
}
);
width = 229;
},
{
associatedMasterId = "2CA0DBAD-D64B-45C4-9A33-36C1DBAC27D7";
components = (
{
name = j_petelka;
transform = "{1, 0, 0, 1, -81, 0}";
}
);
layerId = "C62D32F0-C1EE-472F-8DCA-6E9FF6CBC175";
name = "Regular Aug 19 16, 23:16";
paths = (
{
closed = 1;
nodes = (
"77 500 OFFCURVE",
"16 270 OFFCURVE",
"16 121 CURVE SMOOTH",
"16 40 OFFCURVE",
"65 -8 OFFCURVE",
"97 -8 CURVE",
"151 -8 OFFCURVE",
"391 365 OFFCURVE",
"391 377 CURVE SMOOTH",
"391 389 OFFCURVE",
"384 400 OFFCURVE",
"375 400 CURVE",
"366 400 OFFCURVE",
"106 22 OFFCURVE",
"94 22 CURVE",
"82 22 OFFCURVE",
"63 57 OFFCURVE",
"64 97 CURVE SMOOTH",
"68 218 OFFCURVE",
"138 440 OFFCURVE",
"138 465 CURVE SMOOTH",
"138 479 OFFCURVE",
"107 500 OFFCURVE",
"84 500 CURVE"
);
},
{
closed = 1;
nodes = (
"42 639 OFFCURVE",
"52 608 OFFCURVE",
"74 594 CURVE SMOOTH",
"120 565 OFFCURVE",
"220 591 OFFCURVE",
"241 662 CURVE SMOOTH",
"245 676 OFFCURVE",
"229 700 OFFCURVE",
"221 702 CURVE",
"210 654 OFFCURVE",
"91 620 OFFCURVE",
"91 633 CURVE",
"91 665 OFFCURVE",
"197 700 OFFCURVE",
"227 672 CURVE",
"231 688 OFFCURVE",
"231 702 OFFCURVE",
"217 716 CURVE SMOOTH",
"179 754 OFFCURVE",
"52 707 OFFCURVE",
"45 652 CURVE"
);
}
);
width = 229;
}
);
leftKerningGroup = i;
unicode = 0069;
},
{
color = 3;
glyphname = j;
lastChange = "2016-08-20 08:52:58 +0000";
layers = (
{
background = {
backgroundImage = {
crop = "{{0, 0}, {311.39999999999998, 275.39999999999998}}";
imagePath = Skany/ijjj.jpg;
transform = "{4.367, 0, 0, 4.367, -425, -389}";
};
};
layerId = "2CA0DBAD-D64B-45C4-9A33-36C1DBAC27D7";
paths = (
{
closed = 1;
nodes = (
"64 -57 OFFCURVE",
"231 82 OFFCURVE",
"229 78 CURVE SMOOTH",
"227 74 OFFCURVE",
"226 142 OFFCURVE",
"224 138 CURVE SMOOTH",
"216 122 OFFCURVE",
"26 -23 OFFCURVE",
"26 -184 CURVE SMOOTH",
"26 -272 OFFCURVE",
"93 -290 OFFCURVE",
"112 -271 CURVE SMOOTH",
"257 -132 OFFCURVE",
"346 443 OFFCURVE",
"346 462 CURVE SMOOTH",
"346 489 OFFCURVE",
"311 500 OFFCURVE",
"288 500 CURVE",
"271 462 OFFCURVE",
"203 -99 OFFCURVE",
"80 -232 CURVE",
"69 -232 OFFCURVE",
"64 -211 OFFCURVE",
"64 -179 CURVE SMOOTH"
);
},
{
closed = 1;
nodes = (
"221 639 OFFCURVE",
"231 608 OFFCURVE",
"253 594 CURVE SMOOTH",
"259 590 OFFCURVE",
"272 587 OFFCURVE",
"287 587 CURVE SMOOTH",
"333 587 OFFCURVE",
"405 609 OFFCURVE",
"420 662 CURVE SMOOTH",
"424 676 OFFCURVE",
"408 700 OFFCURVE",
"400 702 CURVE",
"389 654 OFFCURVE",
"270 620 OFFCURVE",
"270 633 CURVE",
"270 657 OFFCURVE",
"329 682 OFFCURVE",
"371 682 CURVE SMOOTH",
"386 682 OFFCURVE",
"398 679 OFFCURVE",
"406 672 CURVE",
"407 678 OFFCURVE",
"408 683 OFFCURVE",
"408 688 CURVE SMOOTH",
"408 698 OFFCURVE",
"405 707 OFFCURVE",
"396 716 CURVE SMOOTH",
"390 722 OFFCURVE",
"377 725 OFFCURVE",
"362 725 CURVE SMOOTH",
"312 725 OFFCURVE",
"229 694 OFFCURVE",
"224 652 CURVE"
);
}
);
width = 430;
},
{
associatedMasterId = "2CA0DBAD-D64B-45C4-9A33-36C1DBAC27D7";
layerId = "082E6A45-0765-49F3-8DA0-F22C54A298DD";
name = "Regular Aug 6 16, 14:05";
paths = (
{
closed = 1;
nodes = (
"132 -201 OFFCURVE",
"218 443 OFFCURVE",
"218 465 CURVE SMOOTH",
"218 479 OFFCURVE",
"187 500 OFFCURVE",
"164 500 CURVE",
"141 500 OFFCURVE",
"89 -170 OFFCURVE",
"63 -170 CURVE",
"46 -174 OFFCURVE",
"27 -142 OFFCURVE",
"27 -96 CURVE SMOOTH",
"27 25 OFFCURVE",
"122 101 OFFCURVE",
"141 101 CURVE",
"128 132 LINE",
"114 132 OFFCURVE",
"-7 34 OFFCURVE",
"-7 -79 CURVE SMOOTH",
"-7 -189 OFFCURVE",
"40 -201 OFFCURVE",
"81 -201 CURVE SMOOTH"
);
},
{
closed = 1;
nodes = (
"203 357 OFFCURVE",
"236 428 OFFCURVE",
"236 465 CURVE",
"236 502 OFFCURVE",
"195 522 OFFCURVE",
"174 522 CURVE",
"153 522 OFFCURVE",
"140 353 OFFCURVE",
"140 317 CURVE",
"182 312 LINE"
);
},
{
closed = 1;
nodes = (
"89 616 OFFCURVE",
"102 593 OFFCURVE",
"124 593 CURVE",
"146 593 OFFCURVE",
"308 691 OFFCURVE",
"308 724 CURVE SMOOTH",
"308 735 OFFCURVE",
"303 744 OFFCURVE",
"295 744 CURVE",
"295 721 OFFCURVE",
"151 629 OFFCURVE",
"138 629 CURVE",
"138 639 OFFCURVE",
"261 726 OFFCURVE",
"292 726 CURVE",
"292 742 OFFCURVE",
"280 752 OFFCURVE",
"268 752 CURVE SMOOTH",
"228 752 OFFCURVE",
"89 658 OFFCURVE",
"89 630 CURVE"
);
}
);
width = 320;
},
{
associatedMasterId = "2CA0DBAD-D64B-45C4-9A33-36C1DBAC27D7";
components = (
{
name = j_petelka;
transform = "{0.9982, -0.0594, 0.0594, 0.9982, 89, 14}";
}
);
layerId = "09ECE69A-15E2-4224-B725-C2A8F43AF3DC";
name = "Regular Aug 20 16, 00:40";
paths = (
{
closed = 1;
nodes = (
"159 -295 OFFCURVE",
"338 443 OFFCURVE",
"338 465 CURVE SMOOTH",
"338 479 OFFCURVE",
"307 500 OFFCURVE",
"284 500 CURVE",
"261 500 OFFCURVE",
"118 -255 OFFCURVE",
"92 -254 CURVE",
"73 -253 OFFCURVE",
"52 -234 OFFCURVE",
"52 -169 CURVE SMOOTH",
"52 -58 OFFCURVE",
"196 85 OFFCURVE",
"215 84 CURVE",
"200 126 LINE",
"186 126 OFFCURVE",
"15 -29 OFFCURVE",
"8 -142 CURVE SMOOTH",
"2 -251 OFFCURVE",
"49 -288 OFFCURVE",
"108 -292 CURVE SMOOTH"
);
},
{
closed = 1;
nodes = (
"245 639 OFFCURVE",
"255 608 OFFCURVE",
"277 594 CURVE SMOOTH",
"321 566 OFFCURVE",
"423 590 OFFCURVE",
"444 662 CURVE SMOOTH",
"448 676 OFFCURVE",
"432 700 OFFCURVE",
"424 702 CURVE",
"413 654 OFFCURVE",
"294 620 OFFCURVE",
"294 633 CURVE",
"294 665 OFFCURVE",
"400 700 OFFCURVE",
"430 672 CURVE",
"434 688 OFFCURVE",
"434 702 OFFCURVE",
"420 716 CURVE SMOOTH",
"382 754 OFFCURVE",
"255 707 OFFCURVE",
"248 652 CURVE"
);
}
);
width = 450;
},
{
associatedMasterId = "2CA0DBAD-D64B-45C4-9A33-36C1DBAC27D7";
layerId = "5D761C97-F320-47C3-B046-BE5DBBA1A335";
name = "Regular Aug 20 16, 01:09";
paths = (
{
closed = 1;
nodes = (
"-18 -278 OFFCURVE",
"11 -299 OFFCURVE",
"35 -299 CURVE SMOOTH",
"74 -299 OFFCURVE",
"93 -290 OFFCURVE",
"112 -271 CURVE SMOOTH",
"257 -132 OFFCURVE",
"346 443 OFFCURVE",
"346 462 CURVE SMOOTH",
"346 489 OFFCURVE",
"311 500 OFFCURVE",
"288 500 CURVE",
"271 462 OFFCURVE",
"203 -99 OFFCURVE",
"80 -232 CURVE SMOOTH",
"62 -252 OFFCURVE",
"42 -254 OFFCURVE",
"0 -241 CURVE"
);
},
{
closed = 1;
nodes = (
"221 639 OFFCURVE",
"231 608 OFFCURVE",
"253 594 CURVE SMOOTH",
"259 590 OFFCURVE",
"272 587 OFFCURVE",
"287 587 CURVE SMOOTH",
"333 587 OFFCURVE",
"405 609 OFFCURVE",
"420 662 CURVE SMOOTH",
"424 676 OFFCURVE",
"408 700 OFFCURVE",
"400 702 CURVE",
"389 654 OFFCURVE",
"270 620 OFFCURVE",
"270 633 CURVE",
"270 657 OFFCURVE",
"329 682 OFFCURVE",
"371 682 CURVE SMOOTH",
"386 682 OFFCURVE",
"398 679 OFFCURVE",
"406 672 CURVE",
"407 678 OFFCURVE",
"408 683 OFFCURVE",
"408 688 CURVE SMOOTH",
"408 698 OFFCURVE",
"405 707 OFFCURVE",
"396 716 CURVE SMOOTH",
"390 722 OFFCURVE",
"377 725 OFFCURVE",
"362 725 CURVE SMOOTH",
"312 725 OFFCURVE",
"229 694 OFFCURVE",
"224 652 CURVE"
);
}
);
width = 430;
},
{
associatedMasterId = "2CA0DBAD-D64B-45C4-9A33-36C1DBAC27D7";
layerId = "F120D305-9AFA-412F-8F7D-A33ECF9026E4";
name = "Regular Aug 20 16, 01:14";
paths = (
{
closed = 1;
nodes = (
"64 -57 OFFCURVE",
"231 82 OFFCURVE",
"229 78 CURVE SMOOTH",
"227 74 OFFCURVE",
"226 142 OFFCURVE",
"224 138 CURVE SMOOTH",
"216 122 OFFCURVE",
"26 -23 OFFCURVE",
"26 -184 CURVE SMOOTH",
"26 -272 OFFCURVE",
"93 -290 OFFCURVE",
"112 -271 CURVE SMOOTH",
"257 -132 OFFCURVE",
"346 443 OFFCURVE",
"346 462 CURVE SMOOTH",
"346 489 OFFCURVE",
"311 500 OFFCURVE",
"288 500 CURVE",
"271 462 OFFCURVE",
"203 -99 OFFCURVE",
"80 -232 CURVE",
"69 -232 OFFCURVE",
"64 -211 OFFCURVE",
"64 -179 CURVE SMOOTH"
);
},
{
closed = 1;
nodes = (
"221 639 OFFCURVE",
"231 608 OFFCURVE",
"253 594 CURVE SMOOTH",
"259 590 OFFCURVE",
"272 587 OFFCURVE",
"287 587 CURVE SMOOTH",
"333 587 OFFCURVE",
"405 609 OFFCURVE",
"420 662 CURVE SMOOTH",
"424 676 OFFCURVE",
"408 700 OFFCURVE",
"400 702 CURVE",
"389 654 OFFCURVE",
"270 620 OFFCURVE",
"270 633 CURVE",
"270 657 OFFCURVE",
"329 682 OFFCURVE",
"371 682 CURVE SMOOTH",
"386 682 OFFCURVE",
"398 679 OFFCURVE",
"406 672 CURVE",
"407 678 OFFCURVE",
"408 683 OFFCURVE",
"408 688 CURVE SMOOTH",
"408 698 OFFCURVE",
"405 707 OFFCURVE",
"396 716 CURVE SMOOTH",
"390 722 OFFCURVE",
"377 725 OFFCURVE",
"362 725 CURVE SMOOTH",
"312 725 OFFCURVE",
"229 694 OFFCURVE",
"224 652 CURVE"
);
}
);
width = 430;
}
);
unicode = 006A;
},
{
color = 3;
glyphname = k;
lastChange = "2016-08-20 02:06:15 +0000";
layers = (
{
background = {
backgroundImage = {
crop = "{{0, 0}, {164.09999999999999, 204.29999999999998}}";
imagePath = Skany/k2.jpg;
transform = "{4.357, -0.307, 0.307, 4.357, -28, -46}";
};
};
guideLines = (
{
position = "{532, 549}";
}
);
layerId = "2CA0DBAD-D64B-45C4-9A33-36C1DBAC27D7";
paths = (
{
closed = 1;
nodes = (
"327 28 OFFCURVE",
"263 203 OFFCURVE",
"263 320 CURVE",
"208 275 LINE",
"213 254 LINE",
"213 145 OFFCURVE",
"297 -10 OFFCURVE",
"404 -10 CURVE SMOOTH",
"458 -10 OFFCURVE",
"673 327 OFFCURVE",
"686 358 CURVE SMOOTH",
"698 387 OFFCURVE",
"686 401 OFFCURVE",
"673 401 CURVE",
"673 401 OFFCURVE",
"414 28 OFFCURVE",
"393 28 CURVE SMOOTH"
);
},
{
closed = 1;
nodes = (
"156 222 OFFCURVE",
"69 61 OFFCURVE",
"66 61 CURVE",
"66 182 OFFCURVE",
"249 693 OFFCURVE",
"249 721 CURVE SMOOTH",
"249 754 OFFCURVE",
"219 766 OFFCURVE",
"193 766 CURVE",
"185 766 OFFCURVE",
"16 231 OFFCURVE",
"16 66 CURVE SMOOTH",
"16 35 OFFCURVE",
"37 0 OFFCURVE",
"71 0 CURVE SMOOTH",
"85 0 OFFCURVE",
"211 223 OFFCURVE",
"327 379 CURVE",
"297 401 LINE"
);
},
{
closed = 1;
nodes = (
"293 327 OFFCURVE",
"427 488 OFFCURVE",
"427 494 CURVE",
"429 511 OFFCURVE",
"401 550 OFFCURVE",
"365 550 CURVE SMOOTH",
"315 550 OFFCURVE",
"217 379 OFFCURVE",
"208 275 CURVE",
"238 249 LINE"
);
}
);
width = 520;
},
{
associatedMasterId = "2CA0DBAD-D64B-45C4-9A33-36C1DBAC27D7";
components = (
{
name = j_petelka;
transform = "{1.3373, -0.3855, 0.3855, 1.3373, -118, -95}";
}
);
layerId = "38644915-1BD5-4A06-8CA0-629AADB4F697";
name = "Regular Aug 7 16, 21:56";
paths = (
{
closed = 1;
nodes = (
"249 390 LINE",
"174 246 OFFCURVE",
"72 41 OFFCURVE",
"69 41 CURVE",
"69 41 OFFCURVE",
"54 45 OFFCURVE",
"54 66 CURVE SMOOTH",
"54 188 OFFCURVE",
"275 712 OFFCURVE",
"275 737 CURVE SMOOTH",
"275 760 OFFCURVE",
"243 784 OFFCURVE",
"227 784 CURVE",
"219 784 OFFCURVE",
"14 257 OFFCURVE",
"14 92 CURVE SMOOTH",
"14 37 OFFCURVE",
"47 0 OFFCURVE",
"81 0 CURVE SMOOTH",
"87 0 OFFCURVE",
"207 216 OFFCURVE",
"287 368 CURVE"
);
},
{
closed = 1;
nodes = (
"196 285 LINE",
"196 111 OFFCURVE",
"333 -21 OFFCURVE",
"438 -21 CURVE SMOOTH",
"484 -21 OFFCURVE",
"704 356 OFFCURVE",
"704 375 CURVE SMOOTH",
"704 398 OFFCURVE",
"696 400 OFFCURVE",
"683 400 CURVE",
"683 400 OFFCURVE",
"452 4 OFFCURVE",
"431 4 CURVE SMOOTH",
"358 4 OFFCURVE",
"242 198 OFFCURVE",
"242 317 CURVE"
);
}
);
width = 550;
},
{
associatedMasterId = "2CA0DBAD-D64B-45C4-9A33-36C1DBAC27D7";
layerId = "BB03382F-D533-4672-A85D-FC85128C2666";
name = "Regular Aug 8 16, 00:01";
paths = (
{
closed = 1;
nodes = (
"240 205 OFFCURVE",
"347 17 OFFCURVE",
"420 17 CURVE SMOOTH",
"441 17 OFFCURVE",
"697 401 OFFCURVE",
"697 401 CURVE",
"710 401 OFFCURVE",
"713 397 OFFCURVE",
"713 381 CURVE SMOOTH",
"713 362 OFFCURVE",
"505 -13 OFFCURVE",
"412 -13 CURVE SMOOTH",
"305 -13 OFFCURVE",
"190 164 OFFCURVE",
"190 263 CURVE",
"240 264 LINE"
);
},
{
closed = 1;
nodes = (
"370 569 OFFCURVE",
"93 0 OFFCURVE",
"71 0 CURVE SMOOTH",
"37 0 OFFCURVE",
"14 27 OFFCURVE",
"14 82 CURVE SMOOTH",
"14 247 OFFCURVE",
"219 784 OFFCURVE",
"227 784 CURVE",
"253 784 OFFCURVE",
"285 760 OFFCURVE",
"285 737 CURVE SMOOTH",
"285 690 OFFCURVE",
"62 191 OFFCURVE",
"62 69 CURVE SMOOTH",
"62 59 OFFCURVE",
"64 55 OFFCURVE",
"61 55 CURVE",
"83 55 OFFCURVE",
"305 606 OFFCURVE",
"389 606 CURVE",
"471 606 OFFCURVE",
"489 548 OFFCURVE",
"489 465 CURVE SMOOTH",
"489 360 OFFCURVE",
"242 209 OFFCURVE",
"191 218 CURVE",
"205 264 LINE",
"277 264 OFFCURVE",
"442 431 OFFCURVE",
"442 483 CURVE SMOOTH",
"442 540 OFFCURVE",
"424 569 OFFCURVE",
"410 569 CURVE"
);
}
);
width = 520;
},
{
associatedMasterId = "2CA0DBAD-D64B-45C4-9A33-36C1DBAC27D7";
layerId = "FAF32E85-CA8D-43E7-B5EC-CBC452A00A24";
name = "Regular Aug 18 16, 22:18";
paths = (
{
closed = 1;
nodes = (
"285 173 OFFCURVE",
"429 17 OFFCURVE",
"502 17 CURVE SMOOTH",
"523 17 OFFCURVE",
"779 401 OFFCURVE",
"779 401 CURVE",
"792 401 OFFCURVE",
"795 397 OFFCURVE",
"795 381 CURVE SMOOTH",
"795 362 OFFCURVE",
"587 -13 OFFCURVE",
"494 -13 CURVE SMOOTH",
"387 -13 OFFCURVE",
"235 116 OFFCURVE",
"235 305 CURVE",
"285 322 LINE"
);
},
{
closed = 1;
nodes = (
"370 569 OFFCURVE",
"93 0 OFFCURVE",
"71 0 CURVE SMOOTH",
"37 0 OFFCURVE",
"14 27 OFFCURVE",
"14 82 CURVE SMOOTH",
"14 247 OFFCURVE",
"213 766 OFFCURVE",
"221 766 CURVE",
"247 766 OFFCURVE",
"277 755 OFFCURVE",
"277 722 CURVE SMOOTH",
"277 675 OFFCURVE",
"62 217 OFFCURVE",
"62 69 CURVE SMOOTH",
"62 59 OFFCURVE",
"64 55 OFFCURVE",
"61 55 CURVE",
"83 55 OFFCURVE",
"305 606 OFFCURVE",
"389 606 CURVE",
"471 606 OFFCURVE",
"479 563 OFFCURVE",
"479 516 CURVE SMOOTH",
"479 446 OFFCURVE",
"278 283 OFFCURVE",
"227 292 CURVE",
"241 338 LINE",
"313 338 OFFCURVE",
"432 517 OFFCURVE",
"432 534 CURVE SMOOTH",
"432 555 OFFCURVE",
"424 569 OFFCURVE",
"410 569 CURVE"
);
}
);
width = 520;
},
{
associatedMasterId = "2CA0DBAD-D64B-45C4-9A33-36C1DBAC27D7";
layerId = "3CB52526-541E-4261-9572-D2C5E62D741E";
name = "Regular Aug 18 16, 22:40";
paths = (
{
closed = 1;
nodes = (
"297 340 LINE",
"236 306 LINE",
"236 265 LINE",
"236 148 OFFCURVE",
"320 -10 OFFCURVE",
"427 -10 CURVE SMOOTH",
"481 -10 OFFCURVE",
"696 327 OFFCURVE",
"709 358 CURVE SMOOTH",
"721 387 OFFCURVE",
"709 401 OFFCURVE",
"696 401 CURVE",
"696 401 OFFCURVE",
"437 27 OFFCURVE",
"416 27 CURVE SMOOTH",
"370 27 OFFCURVE",
"295 183 OFFCURVE",
"295 291 CURVE"
);
},
{
closed = 1;
nodes = (
"191 246 OFFCURVE",
"66 53 OFFCURVE",
"63 53 CURVE",
"66 53 OFFCURVE",
"62 59 OFFCURVE",
"62 69 CURVE SMOOTH",
"62 217 OFFCURVE",
"277 675 OFFCURVE",
"277 722 CURVE SMOOTH",
"277 755 OFFCURVE",
"247 766 OFFCURVE",
"221 766 CURVE",
"213 766 OFFCURVE",
"14 247 OFFCURVE",
"14 82 CURVE SMOOTH",
"14 27 OFFCURVE",
"37 0 OFFCURVE",
"71 0 CURVE SMOOTH",
"85 0 OFFCURVE",
"226 219 OFFCURVE",
"340 398 CURVE",
"298 419 LINE"
);
},
{
closed = 1;
nodes = (
"305 335 OFFCURVE",
"449 540 OFFCURVE",
"449 546 CURVE",
"449 563 OFFCURVE",
"417 599 OFFCURVE",
"381 599 CURVE SMOOTH",
"331 599 OFFCURVE",
"232 370 OFFCURVE",
"232 266 CURVE",
"264 275 LINE"
);
}
);
width = 520;
},
{
associatedMasterId = "2CA0DBAD-D64B-45C4-9A33-36C1DBAC27D7";
guideLines = (
{
position = "{532, 549}";
}
);
layerId = "1C2D7BD1-C36D-49C1-9CF2-C9A7F27EA416";
name = "Regular Aug 20 16, 02:25";
paths = (
{
closed = 1;
nodes = (
"291 349 CURVE",
"233 306 LINE",
"233 285 LINE",
"233 115 OFFCURVE",
"317 -10 OFFCURVE",
"424 -10 CURVE SMOOTH",
"478 -10 OFFCURVE",
"693 327 OFFCURVE",
"706 358 CURVE SMOOTH",
"718 387 OFFCURVE",
"706 401 OFFCURVE",
"693 401 CURVE",
"693 401 OFFCURVE",
"434 28 OFFCURVE",
"413 28 CURVE SMOOTH",
"347 28 OFFCURVE",
"289 178 OFFCURVE"
);
},
{
closed = 1;
nodes = (
"194 246 OFFCURVE",
"69 61 OFFCURVE",
"66 61 CURVE",
"66 182 OFFCURVE",
"249 693 OFFCURVE",
"249 721 CURVE SMOOTH",
"249 754 OFFCURVE",
"217 766 OFFCURVE",
"191 766 CURVE",
"183 766 OFFCURVE",
"14 231 OFFCURVE",
"14 66 CURVE SMOOTH",
"14 35 OFFCURVE",
"37 0 OFFCURVE",
"71 0 CURVE SMOOTH",
"85 0 OFFCURVE",
"223 221 OFFCURVE",
"337 400 CURVE",
"301 419 LINE"
);
},
{
closed = 1;
nodes = (
"300 319 OFFCURVE",
"437 507 OFFCURVE",
"437 513 CURVE",
"437 530 OFFCURVE",
"406 563 OFFCURVE",
"370 563 CURVE SMOOTH",
"320 563 OFFCURVE",
"227 374 OFFCURVE",
"227 270 CURVE",
"259 259 LINE"
);
}
);
width = 520;
}
);
unicode = 006B;
},
{
color = 3;
glyphname = l;
lastChange = "2016-08-20 08:24:39 +0000";
layers = (
{
associatedMasterId = "2CA0DBAD-D64B-45C4-9A33-36C1DBAC27D7";
layerId = "3FD91683-ECE5-4646-B130-A8F3F827371D";
name = "Regular Aug 7 16, 20:46";
paths = (
{
closed = 1;
nodes = (
"252 697 LINE",
"272 743 OFFCURVE",
"289 771 OFFCURVE",
"293 771 CURVE SMOOTH",
"312 771 OFFCURVE",
"320 751 OFFCURVE",
"320 712 CURVE SMOOTH",
"320 567 OFFCURVE",
"187 399 OFFCURVE",
"87 399 CURVE",
"83 358 LINE",
"187 358 OFFCURVE",
"351 517 OFFCURVE",
"351 700 CURVE SMOOTH",
"351 799 OFFCURVE",
"290 812 OFFCURVE",
"253 812 CURVE SMOOTH",
"239 812 OFFCURVE",
"217 783 OFFCURVE",
"192 735 CURVE"
);
},
{
closed = 1;
nodes = (
"173 749 OFFCURVE",
"-140 -9 OFFCURVE",
"134 -9 CURVE SMOOTH",
"196 -9 OFFCURVE",
"414 374 OFFCURVE",
"414 381 CURVE SMOOTH",
"414 395 OFFCURVE",
"393 400 OFFCURVE",
"393 398 CURVE SMOOTH",
"393 398 OFFCURVE",
"140 18 OFFCURVE",
"126 18 CURVE SMOOTH",
"111 18 OFFCURVE",
"71 45 OFFCURVE",
"71 95 CURVE SMOOTH",
"71 381 OFFCURVE",
"257 697 OFFCURVE",
"257 711 CURVE SMOOTH",
"257 725 OFFCURVE",
"242 749 OFFCURVE",
"208 749 CURVE"
);
}
);
width = 350;
},
{
associatedMasterId = "2CA0DBAD-D64B-45C4-9A33-36C1DBAC27D7";
guideLines = (
{
angle = 55.0861;
position = "{365, 240}";
}
);
layerId = "1AF19523-30EF-4987-8A50-CC88BF039167";
name = "Regular Aug 7 16, 21:00";
paths = (
{
closed = 1;
nodes = (
"253 697 LINE",
"273 743 OFFCURVE",
"289 771 OFFCURVE",
"293 771 CURVE SMOOTH",
"312 771 OFFCURVE",
"320 751 OFFCURVE",
"320 712 CURVE SMOOTH",
"320 567 OFFCURVE",
"187 399 OFFCURVE",
"87 399 CURVE",
"83 358 LINE",
"187 358 OFFCURVE",
"351 517 OFFCURVE",
"351 700 CURVE SMOOTH",
"351 799 OFFCURVE",
"290 812 OFFCURVE",
"253 812 CURVE SMOOTH",
"239 812 OFFCURVE",
"217 783 OFFCURVE",
"192 735 CURVE"
);
},
{
closed = 1;
nodes = (
"183 749 OFFCURVE",
"36 437 OFFCURVE",
"36 214 CURVE SMOOTH",
"36 39 OFFCURVE",
"135 -9 OFFCURVE",
"217 -9 CURVE SMOOTH",
"257 -9 OFFCURVE",
"496 367 OFFCURVE",
"496 374 CURVE SMOOTH",
"496 400 OFFCURVE",
"483 398 OFFCURVE",
"479 398 CURVE SMOOTH",
"478 398 OFFCURVE",
"478 398 OFFCURVE",
"478 398 CURVE SMOOTH",
"478 398 OFFCURVE",
"217 25 OFFCURVE",
"203 25 CURVE SMOOTH",
"188 25 OFFCURVE",
"96 39 OFFCURVE",
"96 155 CURVE SMOOTH",
"96 441 OFFCURVE",
"258 697 OFFCURVE",
"258 711 CURVE SMOOTH",
"258 725 OFFCURVE",
"242 749 OFFCURVE",
"208 749 CURVE"
);
}
);
width = 350;
},
{
guideLines = (
{
angle = 55.0861;
position = "{365, 240}";
}
);
layerId = "2CA0DBAD-D64B-45C4-9A33-36C1DBAC27D7";
paths = (
{
closed = 1;
nodes = (
"145 770 OFFCURVE",
"12 434 OFFCURVE",
"12 190 CURVE SMOOTH",
"12 77 OFFCURVE",
"66 -2 OFFCURVE",
"153 -2 CURVE SMOOTH",
"238 -2 OFFCURVE",
"440 352 OFFCURVE",
"445 363 CURVE SMOOTH",
"453 380 OFFCURVE",
"436 400 OFFCURVE",
"428 400 CURVE",
"427 400 OFFCURVE",
"427 400 OFFCURVE",
"427 400 CURVE SMOOTH",
"427 400 OFFCURVE",
"187 37 OFFCURVE",
"150 37 CURVE SMOOTH",
"123 37 OFFCURVE",
"73 43 OFFCURVE",
"73 148 CURVE SMOOTH",
"73 408 OFFCURVE",
"203 734 OFFCURVE",
"233 742 CURVE SMOOTH",
"246 746 OFFCURVE",
"279 730 OFFCURVE",
"279 669 CURVE SMOOTH",
"279 543 OFFCURVE",
"119 396 OFFCURVE",
"96 396 CURVE",
"82 340 LINE",
"108 339 OFFCURVE",
"312 472 OFFCURVE",
"323 653 CURVE SMOOTH",
"329 752 OFFCURVE",
"246 793 OFFCURVE",
"203 783 CURVE SMOOTH"
);
}
);
width = 350;
},
{
associatedMasterId = "2CA0DBAD-D64B-45C4-9A33-36C1DBAC27D7";
guideLines = (
{
angle = 55.0861;
position = "{365, 240}";
}
);
layerId = "8B3FAD3C-C9AC-420A-BF75-22DEF0E576C8";
name = "Regular Aug 7 16, 21:00";
paths = (
{
closed = 1;
nodes = (
"253 697 LINE",
"273 743 OFFCURVE",
"289 771 OFFCURVE",
"293 771 CURVE SMOOTH",
"312 771 OFFCURVE",
"320 751 OFFCURVE",
"320 712 CURVE SMOOTH",
"320 567 OFFCURVE",
"187 399 OFFCURVE",
"87 399 CURVE",
"83 358 LINE",
"187 358 OFFCURVE",
"351 517 OFFCURVE",
"351 700 CURVE SMOOTH",
"351 799 OFFCURVE",
"290 812 OFFCURVE",
"253 812 CURVE SMOOTH",
"239 812 OFFCURVE",
"217 783 OFFCURVE",
"192 735 CURVE"
);
},
{
closed = 1;
nodes = (
"183 749 OFFCURVE",
"36 437 OFFCURVE",
"36 214 CURVE SMOOTH",
"36 39 OFFCURVE",
"102 -9 OFFCURVE",
"184 -9 CURVE SMOOTH",
"246 -9 OFFCURVE",
"469 362 OFFCURVE",
"469 374 CURVE SMOOTH",
"469 400 OFFCURVE",
"457 400 OFFCURVE",
"452 400 CURVE SMOOTH",
"451 400 OFFCURVE",
"451 400 OFFCURVE",
"451 400 CURVE SMOOTH",
"451 400 OFFCURVE",
"184 25 OFFCURVE",
"170 25 CURVE SMOOTH",
"155 25 OFFCURVE",
"96 25 OFFCURVE",
"96 155 CURVE SMOOTH",
"96 441 OFFCURVE",
"258 697 OFFCURVE",
"258 711 CURVE SMOOTH",
"258 725 OFFCURVE",
"242 749 OFFCURVE",
"208 749 CURVE"
);
}
);
width = 350;
},
{
associatedMasterId = "2CA0DBAD-D64B-45C4-9A33-36C1DBAC27D7";
guideLines = (
{
angle = 55.0861;
position = "{365, 240}";
}
);
layerId = "7E52D143-75CE-4DF8-9923-D36A7CE4B367";
name = "Regular Aug 20 16, 00:13";
paths = (
{
closed = 1;
nodes = (
"36 446 OFFCURVE",
"36 186 CURVE SMOOTH",
"36 31 OFFCURVE",
"120 -9 OFFCURVE",
"182 -9 CURVE SMOOTH",
"244 -9 OFFCURVE",
"489 366 OFFCURVE",
"489 378 CURVE SMOOTH",
"489 404 OFFCURVE",
"477 400 OFFCURVE",
"472 400 CURVE SMOOTH",
"471 400 OFFCURVE",
"471 400 OFFCURVE",
"471 400 CURVE SMOOTH",
"471 400 OFFCURVE",
"194 25 OFFCURVE",
"180 25 CURVE SMOOTH",
"165 25 OFFCURVE",
"91 27 OFFCURVE",
"91 127 CURVE SMOOTH",
"91 403 OFFCURVE",
"264 742 OFFCURVE",
"286 742 CURVE SMOOTH",
"299 742 OFFCURVE",
"329 730 OFFCURVE",
"329 669 CURVE SMOOTH",
"329 543 OFFCURVE",
"149 396 OFFCURVE",
"126 396 CURVE",
"112 340 LINE",
"138 339 OFFCURVE",
"362 472 OFFCURVE",
"373 653 CURVE SMOOTH",
"379 752 OFFCURVE",
"300 783 OFFCURVE",
"256 783 CURVE SMOOTH",
"208 783 OFFCURVE"
);
}
);
width = 350;
}
);
unicode = 006C;
},
{
color = 3;
glyphname = m;
lastChange = "2016-08-20 02:49:41 +0000";
layers = (
{
associatedMasterId = "2CA0DBAD-D64B-45C4-9A33-36C1DBAC27D7";
layerId = "54C990B6-0969-4D37-9E3F-FF4E01CF274C";
name = "Regular Aug 7 16, 02:20";
paths = (
{
closed = 1;
nodes = (
"77 58 CURVE",
"73 40 OFFCURVE",
"72 3 OFFCURVE",
"64 3 CURVE",
"56 3 OFFCURVE",
"-8 18 OFFCURVE",
"9 43 CURVE SMOOTH",
"50 105 LINE",
"68 238 OFFCURVE",
"99 500 OFFCURVE",
"105 500 CURVE",
"126 500 OFFCURVE",
"161 482 OFFCURVE",
"161 463 CURVE SMOOTH",
"161 447 OFFCURVE",
"102 180 OFFCURVE"
);
},
{
closed = 1;
nodes = (
"455 251 CURVE SMOOTH",
"455 362 OFFCURVE",
"550 524 OFFCURVE",
"565 524 CURVE",
"607 524 OFFCURVE",
"644 473 OFFCURVE",
"626 448 CURVE SMOOTH",
"516 295 LINE",
"516 10 OFFCURVE",
"594 -65 OFFCURVE",
"594 -65 CURVE",
"594 -70 OFFCURVE",
"585 -78 OFFCURVE",
"565 -78 CURVE SMOOTH",
"525 -78 OFFCURVE",
"455 19 OFFCURVE"
);
},
{
closed = 1;
nodes = (
"306 392 LINE",
"66 44 LINE",
"77 128 LINE",
"311 461 LINE"
);
},
{
closed = 1;
nodes = (
"491 285 LINE",
"421 184 OFFCURVE",
"298 -10 OFFCURVE",
"288 -10 CURVE",
"276 -10 OFFCURVE",
"258 -3 OFFCURVE",
"254 15 CURVE SMOOTH",
"222 158 OFFCURVE",
"283 599 OFFCURVE",
"364 599 CURVE SMOOTH",
"379 599 OFFCURVE",
"422 578 OFFCURVE",
"422 556 CURVE",
"422 547 OFFCURVE",
"357 443 OFFCURVE",
"341 412 CURVE",
"321 362 OFFCURVE",
"289 212 OFFCURVE",
"295 45 CURVE",
"277 31 LINE",
"484 330 LINE"
);
},
{
closed = 1;
nodes = (
"541 454 OFFCURVE",
"577 436 OFFCURVE",
"577 404 CURVE SMOOTH",
"577 315 OFFCURVE",
"553 93 OFFCURVE",
"600 -79 CURVE SMOOTH",
"612 -123 OFFCURVE",
"631 -135 OFFCURVE",
"650 -135 CURVE SMOOTH",
"671 -135 OFFCURVE",
"902 263 OFFCURVE",
"902 263 CURVE",
"915 263 OFFCURVE",
"923 261 OFFCURVE",
"923 238 CURVE SMOOTH",
"923 219 OFFCURVE",
"703 -160 OFFCURVE",
"657 -160 CURVE",
"607 -160 OFFCURVE",
"572 -132 OFFCURVE",
"549 -88 CURVE SMOOTH",
"478 48 OFFCURVE",
"513 454 OFFCURVE",
"513 454 CURVE"
);
}
);
width = 640;
},
{
associatedMasterId = "2CA0DBAD-D64B-45C4-9A33-36C1DBAC27D7";
layerId = "17753077-933F-4909-BFF7-16DBF72CDE8E";
name = "Regular Aug 7 16, 23:06";
paths = (
{
closed = 1;
nodes = (
"161 447 OFFCURVE",
"102 180 OFFCURVE",
"77 58 CURVE",
"73 40 OFFCURVE",
"72 3 OFFCURVE",
"64 3 CURVE",
"56 3 OFFCURVE",
"-8 18 OFFCURVE",
"9 43 CURVE SMOOTH",
"50 105 LINE",
"68 238 OFFCURVE",
"99 500 OFFCURVE",
"105 500 CURVE",
"126 500 OFFCURVE",
"161 482 OFFCURVE",
"161 463 CURVE SMOOTH"
);
},
{
closed = 1;
nodes = (
"547 -116 OFFCURVE",
"474 55 OFFCURVE",
"474 315 CURVE SMOOTH",
"474 426 OFFCURVE",
"516 535 OFFCURVE",
"530 538 CURVE",
"571 549 OFFCURVE",
"622 508 OFFCURVE",
"608 479 CURVE SMOOTH",
"515 285 LINE",
"535 373 LINE",
"535 -30 OFFCURVE",
"614 -109 OFFCURVE",
"613 -104 CURVE",
"614 -109 OFFCURVE",
"605 -116 OFFCURVE",
"594 -116 CURVE SMOOTH"
);
},
{
closed = 1;
nodes = (
"306 392 LINE",
"66 44 LINE",
"77 128 LINE",
"311 461 LINE"
);
},
{
closed = 1;
nodes = (
"491 285 LINE",
"421 184 OFFCURVE",
"298 -10 OFFCURVE",
"288 -10 CURVE",
"276 -10 OFFCURVE",
"258 -3 OFFCURVE",
"254 15 CURVE SMOOTH",
"222 158 OFFCURVE",
"283 599 OFFCURVE",
"364 599 CURVE SMOOTH",
"379 599 OFFCURVE",
"422 578 OFFCURVE",
"422 556 CURVE",
"422 547 OFFCURVE",
"357 443 OFFCURVE",
"341 412 CURVE",
"321 362 OFFCURVE",
"289 212 OFFCURVE",
"295 45 CURVE",
"277 31 LINE",
"484 330 LINE"
);
}
);
width = 640;
},
{
associatedMasterId = "2CA0DBAD-D64B-45C4-9A33-36C1DBAC27D7";
layerId = "493DFFFC-6F57-41C2-BC60-6684799A707A";
name = "Regular Aug 8 16, 00:21";
paths = (
{
closed = 1;
nodes = (
"161 447 OFFCURVE",
"102 180 OFFCURVE",
"77 58 CURVE",
"73 40 OFFCURVE",
"72 3 OFFCURVE",
"64 3 CURVE",
"56 3 OFFCURVE",
"-9 45 OFFCURVE",
"11 69 CURVE SMOOTH",
"40 105 LINE",
"58 238 OFFCURVE",
"89 500 OFFCURVE",
"95 500 CURVE",
"116 500 OFFCURVE",
"161 482 OFFCURVE",
"161 463 CURVE SMOOTH"
);
},
{
closed = 1;
nodes = (
"361 510 LINE",
"66 34 LINE",
"77 128 LINE",
"366 599 LINE"
);
},
{
closed = 1;
nodes = (
"745 614 OFFCURVE",
"718 633 OFFCURVE",
"706 633 CURVE SMOOTH",
"643 633 OFFCURVE",
"555 400 OFFCURVE",
"555 240 CURVE SMOOTH",
"555 57 OFFCURVE",
"629 -9 OFFCURVE",
"645 -9 CURVE SMOOTH",
"661 -9 OFFCURVE",
"966 400 OFFCURVE",
"966 400 CURVE",
"981 400 OFFCURVE",
"983 393 OFFCURVE",
"983 379 CURVE SMOOTH",
"983 365 OFFCURVE",
"711 -45 OFFCURVE",
"662 -45 CURVE SMOOTH",
"592 -45 OFFCURVE",
"501 -6 OFFCURVE",
"501 255 CURVE SMOOTH",
"501 402 OFFCURVE",
"570 669 OFFCURVE",
"693 669 CURVE SMOOTH",
"739 669 OFFCURVE",
"780 620 OFFCURVE",
"780 588 CURVE SMOOTH",
"780 546 OFFCURVE",
"308 -17 OFFCURVE",
"308 -10 CURVE",
"296 -10 OFFCURVE",
"268 15 OFFCURVE",
"264 33 CURVE SMOOTH",
"232 176 OFFCURVE",
"358 599 OFFCURVE",
"366 599 CURVE",
"381 599 OFFCURVE",
"434 579 OFFCURVE",
"434 546 CURVE SMOOTH",
"434 512 OFFCURVE",
"321 275 OFFCURVE",
"321 46 CURVE",
"297 41 LINE",
"745 599 LINE"
);
}
);
width = 780;
},
{
associatedMasterId = "2CA0DBAD-D64B-45C4-9A33-36C1DBAC27D7";
layerId = "E1FB0D8C-DD3F-4736-8F21-B8D7A79BEBEC";
name = "Regular Aug 14 16, 17:38";
paths = (
{
closed = 1;
nodes = (
"161 447 OFFCURVE",
"102 180 OFFCURVE",
"77 58 CURVE",
"73 40 OFFCURVE",
"72 3 OFFCURVE",
"64 3 CURVE",
"56 3 OFFCURVE",
"-9 45 OFFCURVE",
"11 69 CURVE SMOOTH",
"40 105 LINE",
"58 238 OFFCURVE",
"89 500 OFFCURVE",
"95 500 CURVE",
"116 500 OFFCURVE",
"161 482 OFFCURVE",
"161 463 CURVE SMOOTH"
);
},
{
closed = 1;
nodes = (
"361 510 LINE",
"66 34 LINE",
"77 128 LINE",
"366 599 LINE"
);
},
{
closed = 1;
nodes = (
"698 556 OFFCURVE",
"671 575 OFFCURVE",
"659 575 CURVE SMOOTH",
"596 575 OFFCURVE",
"539 419 OFFCURVE",
"539 259 CURVE SMOOTH",
"539 76 OFFCURVE",
"629 -9 OFFCURVE",
"645 -9 CURVE SMOOTH",
"661 -9 OFFCURVE",
"966 400 OFFCURVE",
"966 400 CURVE",
"981 400 OFFCURVE",
"983 393 OFFCURVE",
"983 379 CURVE SMOOTH",
"983 365 OFFCURVE",
"711 -45 OFFCURVE",
"662 -45 CURVE SMOOTH",
"592 -45 OFFCURVE",
"485 13 OFFCURVE",
"485 274 CURVE SMOOTH",
"485 421 OFFCURVE",
"523 611 OFFCURVE",
"646 611 CURVE SMOOTH",
"692 611 OFFCURVE",
"733 562 OFFCURVE",
"733 530 CURVE SMOOTH",
"733 488 OFFCURVE",
"308 -17 OFFCURVE",
"308 -10 CURVE",
"296 -10 OFFCURVE",
"268 15 OFFCURVE",
"264 33 CURVE SMOOTH",
"232 176 OFFCURVE",
"358 599 OFFCURVE",
"366 599 CURVE",
"381 599 OFFCURVE",
"434 579 OFFCURVE",
"434 546 CURVE SMOOTH",
"434 512 OFFCURVE",
"321 275 OFFCURVE",
"321 46 CURVE",
"297 41 LINE",
"698 541 LINE"
);
}
);
width = 790;
},
{
associatedMasterId = "2CA0DBAD-D64B-45C4-9A33-36C1DBAC27D7";
layerId = "B978DF95-5019-40B0-B07E-8E08C58EC9D4";
name = "Regular Aug 16 16, 22:28";
paths = (
{
closed = 1;
nodes = (
"201 447 OFFCURVE",
"142 180 OFFCURVE",
"117 58 CURVE",
"113 40 OFFCURVE",
"112 3 OFFCURVE",
"104 3 CURVE",
"96 3 OFFCURVE",
"31 45 OFFCURVE",
"51 69 CURVE SMOOTH",
"80 105 LINE",
"98 238 OFFCURVE",
"129 500 OFFCURVE",
"135 500 CURVE",
"156 500 OFFCURVE",
"201 482 OFFCURVE",
"201 463 CURVE SMOOTH"
);
},
{
closed = 1;
nodes = (
"401 510 LINE",
"106 34 LINE",
"117 128 LINE",
"406 599 LINE"
);
},
{
closed = 1;
nodes = (
"727 559 OFFCURVE",
"711 573 OFFCURVE",
"699 573 CURVE SMOOTH",
"676 573 OFFCURVE",
"636 446 OFFCURVE",
"636 286 CURVE SMOOTH",
"636 103 OFFCURVE",
"709 -9 OFFCURVE",
"725 -9 CURVE SMOOTH",
"741 -9 OFFCURVE",
"1046 400 OFFCURVE",
"1046 400 CURVE",
"1061 400 OFFCURVE",
"1063 393 OFFCURVE",
"1063 379 CURVE SMOOTH",
"1063 365 OFFCURVE",
"791 -45 OFFCURVE",
"742 -45 CURVE SMOOTH",
"672 -45 OFFCURVE",
"573 40 OFFCURVE",
"573 301 CURVE SMOOTH",
"573 448 OFFCURVE",
"603 611 OFFCURVE",
"686 611 CURVE SMOOTH",
"732 611 OFFCURVE",
"762 572 OFFCURVE",
"762 540 CURVE SMOOTH",
"762 498 OFFCURVE",
"348 -17 OFFCURVE",
"348 -10 CURVE",
"336 -10 OFFCURVE",
"308 15 OFFCURVE",
"304 33 CURVE SMOOTH",
"272 176 OFFCURVE",
"398 599 OFFCURVE",
"406 599 CURVE",
"421 599 OFFCURVE",
"474 579 OFFCURVE",
"474 546 CURVE SMOOTH",
"474 512 OFFCURVE",
"361 275 OFFCURVE",
"361 46 CURVE",
"337 41 LINE",
"727 551 LINE"
);
}
);
width = 830;
},
{
associatedMasterId = "2CA0DBAD-D64B-45C4-9A33-36C1DBAC27D7";
layerId = "10C058E9-BA11-4D8F-9E19-07F93F7FB2B0";
name = "Regular Aug 18 16, 21:28";
paths = (
{
closed = 1;
nodes = (
"201 490 OFFCURVE",
"156 500 OFFCURVE",
"135 500 CURVE",
"129 500 OFFCURVE",
"80 238 OFFCURVE",
"80 105 CURVE",
"51 69 LINE SMOOTH",
"48 66 OFFCURVE",
"47 62 OFFCURVE",
"47 59 CURVE SMOOTH",
"47 35 OFFCURVE",
"97 3 OFFCURVE",
"104 3 CURVE",
"112 3 OFFCURVE",
"114 40 OFFCURVE",
"118 58 CURVE",
"118 180 OFFCURVE",
"201 431 OFFCURVE",
"201 463 CURVE SMOOTH"
);
},
{
closed = 1;
nodes = (
"117 128 LINE",
"106 34 LINE",
"411 510 LINE",
"416 599 LINE"
);
},
{
closed = 1;
nodes = (
"585 436 LINE",
"346 50 LINE",
"363 34 LINE",
"358 267 OFFCURVE",
"475 513 OFFCURVE",
"475 548 CURVE SMOOTH",
"475 581 OFFCURVE",
"431 599 OFFCURVE",
"416 599 CURVE SMOOTH",
"416 599 OFFCURVE",
"309 266 OFFCURVE",
"309 91 CURVE SMOOTH",
"309 69 OFFCURVE",
"310 49 OFFCURVE",
"314 33 CURVE SMOOTH",
"318 15 OFFCURVE",
"346 -10 OFFCURVE",
"358 -10 CURVE",
"367 -10 OFFCURVE",
"512 261 OFFCURVE",
"625 407 CURVE"
);
},
{
closed = 1;
nodes = (
"602 608 OFFCURVE",
"539 391 OFFCURVE",
"539 306 CURVE SMOOTH",
"539 196 OFFCURVE",
"569 -9 OFFCURVE",
"685 -9 CURVE SMOOTH",
"734 -9 OFFCURVE",
"980 366 OFFCURVE",
"985 381 CURVE SMOOTH",
"993 404 OFFCURVE",
"977 411 OFFCURVE",
"970 411 CURVE SMOOTH",
"970 411 OFFCURVE",
"690 37 OFFCURVE",
"674 37 CURVE SMOOTH",
"626 37 OFFCURVE",
"602 195 OFFCURVE",
"602 300 CURVE SMOOTH",
"602 438 OFFCURVE",
"632 413 OFFCURVE",
"636 460 CURVE",
"595 360 LINE",
"684 490 OFFCURVE",
"731 548 OFFCURVE",
"731 559 CURVE SMOOTH",
"731 579 OFFCURVE",
"700 604 OFFCURVE",
"674 608 CURVE"
);
}
);
width = 830;
},
{
associatedMasterId = "2CA0DBAD-D64B-45C4-9A33-36C1DBAC27D7";
layerId = "E9F11FF2-A1E7-4723-8509-6B4C00724CA5";
name = "Regular Aug 18 16, 21:39";
paths = (
{
closed = 1;
nodes = (
"151 490 OFFCURVE",
"106 500 OFFCURVE",
"85 500 CURVE",
"78 500 OFFCURVE",
"17 171 OFFCURVE",
"17 50 CURVE SMOOTH",
"17 26 OFFCURVE",
"27 0 OFFCURVE",
"64 0 CURVE",
"64 169 OFFCURVE",
"151 416 OFFCURVE",
"151 463 CURVE SMOOTH"
);
},
{
closed = 1;
nodes = (
"49 49 LINE",
"64 0 LINE",
"361 500 LINE",
"366 599 LINE"
);
},
{
closed = 1;
nodes = (
"535 436 LINE",
"296 50 LINE",
"313 34 LINE",
"308 267 OFFCURVE",
"425 513 OFFCURVE",
"425 548 CURVE SMOOTH",
"425 581 OFFCURVE",
"381 599 OFFCURVE",
"366 599 CURVE SMOOTH",
"366 599 OFFCURVE",
"259 244 OFFCURVE",
"259 69 CURVE SMOOTH",
"259 20 OFFCURVE",
"270 -10 OFFCURVE",
"308 -10 CURVE",
"317 -10 OFFCURVE",
"462 261 OFFCURVE",
"575 407 CURVE"
);
},
{
closed = 1;
nodes = (
"552 608 OFFCURVE",
"467 361 OFFCURVE",
"467 276 CURVE SMOOTH",
"467 136 OFFCURVE",
"521 -9 OFFCURVE",
"637 -9 CURVE SMOOTH",
"686 -9 OFFCURVE",
"922 348 OFFCURVE",
"927 363 CURVE SMOOTH",
"935 386 OFFCURVE",
"912 398 OFFCURVE",
"905 398 CURVE SMOOTH",
"905 398 OFFCURVE",
"643 27 OFFCURVE",
"627 27 CURVE SMOOTH",
"579 27 OFFCURVE",
"530 135 OFFCURVE",
"530 270 CURVE SMOOTH",
"530 408 OFFCURVE",
"582 413 OFFCURVE",
"586 460 CURVE",
"520 326 LINE",
"609 456 OFFCURVE",
"681 548 OFFCURVE",
"681 559 CURVE SMOOTH",
"681 579 OFFCURVE",
"650 604 OFFCURVE",
"624 608 CURVE"
);
}
);
width = 710;
},
{
associatedMasterId = "2CA0DBAD-D64B-45C4-9A33-36C1DBAC27D7";
background = {
backgroundImage = {
crop = "{{0, 0}, {155.69999999999999, 179.40000000000001}}";
imagePath = Skany/m.jpg;
transform = "{4.347, 0, 0, 4.347, -9, -142}";
};
};
guideLines = (
{
position = "{911, 700}";
}
);
layerId = "E781B881-9BB0-4569-85EC-632308F33D0C";
name = "Regular Aug 18 16, 22:13";
paths = (
{
closed = 1;
nodes = (
"151 490 OFFCURVE",
"106 500 OFFCURVE",
"85 500 CURVE",
"78 500 OFFCURVE",
"17 171 OFFCURVE",
"17 50 CURVE SMOOTH",
"17 26 OFFCURVE",
"27 0 OFFCURVE",
"64 0 CURVE",
"64 169 OFFCURVE",
"151 416 OFFCURVE",
"151 463 CURVE SMOOTH"
);
},
{
closed = 1;
nodes = (
"49 57 LINE",
"64 0 LINE",
"351 500 LINE",
"356 599 LINE"
);
},
{
closed = 1;
nodes = (
"578 529 LINE",
"296 44 LINE",
"314 34 LINE",
"314 254 OFFCURVE",
"416 513 OFFCURVE",
"416 548 CURVE SMOOTH",
"416 581 OFFCURVE",
"371 599 OFFCURVE",
"356 599 CURVE SMOOTH",
"356 599 OFFCURVE",
"259 244 OFFCURVE",
"259 69 CURVE SMOOTH",
"259 20 OFFCURVE",
"270 -10 OFFCURVE",
"308 -10 CURVE",
"317 -10 OFFCURVE",
"524 358 OFFCURVE",
"620 504 CURVE"
);
},
{
closed = 1;
nodes = (
"606 472 CURVE",
"520 390 LINE",
"489 243 OFFCURVE",
"477 -10 OFFCURVE",
"638 -10 CURVE SMOOTH",
"687 -10 OFFCURVE",
"910 328 OFFCURVE",
"923 352 CURVE SMOOTH",
"933 370 OFFCURVE",
"917 388 OFFCURVE",
"905 388 CURVE",
"905 388 OFFCURVE",
"645 27 OFFCURVE",
"629 27 CURVE SMOOTH",
"564 27 OFFCURVE",
"561 282 OFFCURVE"
);
},
{
closed = 1;
nodes = (
"580 410 LINE",
"640 497 OFFCURVE",
"715 590 OFFCURVE",
"716 607 CURVE",
"717 627 OFFCURVE",
"686 665 OFFCURVE",
"647 666 CURVE SMOOTH",
"619 667 OFFCURVE",
"555 559 OFFCURVE",
"526 440 CURVE"
);
}
);
width = 710;
},
{
guideLines = (
{
position = "{908, 700}";
}
);
layerId = "2CA0DBAD-D64B-45C4-9A33-36C1DBAC27D7";
paths = (
{
closed = 1;
nodes = (
"529 479 LINE",
"286 45 LINE",
"304 34 LINE",
"304 254 OFFCURVE",
"396 513 OFFCURVE",
"396 548 CURVE SMOOTH",
"396 581 OFFCURVE",
"351 599 OFFCURVE",
"336 599 CURVE SMOOTH",
"336 599 OFFCURVE",
"249 293 OFFCURVE",
"249 69 CURVE SMOOTH",
"249 20 OFFCURVE",
"260 -10 OFFCURVE",
"298 -10 CURVE",
"307 -10 OFFCURVE",
"473 297 OFFCURVE",
"569 443 CURVE"
);
},
{
closed = 1;
nodes = (
"568 630 OFFCURVE",
"488 530 OFFCURVE",
"488 334 CURVE SMOOTH",
"488 99 OFFCURVE",
"548 1 OFFCURVE",
"637 1 CURVE SMOOTH",
"686 1 OFFCURVE",
"913 348 OFFCURVE",
"918 363 CURVE SMOOTH",
"926 386 OFFCURVE",
"903 398 OFFCURVE",
"896 398 CURVE SMOOTH",
"896 398 OFFCURVE",
"641 42 OFFCURVE",
"625 42 CURVE SMOOTH",
"577 42 OFFCURVE",
"555 192 OFFCURVE",
"555 344 CURVE SMOOTH",
"555 453 OFFCURVE",
"569 486 OFFCURVE",
"569 500 CURVE",
"523 363 LINE",
"582 461 OFFCURVE",
"660 562 OFFCURVE",
"660 582 CURVE",
"660 602 OFFCURVE",
"626 630 OFFCURVE",
"602 630 CURVE SMOOTH"
);
},
{
closed = 1;
nodes = (
"153 489 OFFCURVE",
"114 500 OFFCURVE",
"93 500 CURVE",
"76 453 OFFCURVE",
"8 176 OFFCURVE",
"8 45 CURVE SMOOTH",
"8 7 OFFCURVE",
"35 0 OFFCURVE",
"54 0 CURVE",
"54 183 OFFCURVE",
"153 444 OFFCURVE",
"153 460 CURVE SMOOTH"
);
},
{
closed = 1;
nodes = (
"307 599 OFFCURVE",
"75 131 OFFCURVE",
"39 57 CURVE",
"54 0 LINE",
"331 515 LINE",
"336 599 LINE"
);
}
);
width = 681;
},
{
associatedMasterId = "2CA0DBAD-D64B-45C4-9A33-36C1DBAC27D7";
guideLines = (
{
position = "{911, 700}";
}
);
layerId = "89F010B5-B1ED-4D1D-B5A7-432574E1A86B";
name = "Regular Aug 19 16, 00:37";
paths = (
{
closed = 1;
nodes = (
"151 490 OFFCURVE",
"106 500 OFFCURVE",
"85 500 CURVE",
"78 500 OFFCURVE",
"17 171 OFFCURVE",
"17 50 CURVE SMOOTH",
"17 26 OFFCURVE",
"27 0 OFFCURVE",
"64 0 CURVE",
"64 169 OFFCURVE",
"151 416 OFFCURVE",
"151 463 CURVE SMOOTH"
);
},
{
closed = 1;
nodes = (
"317 599 OFFCURVE",
"85 131 OFFCURVE",
"49 57 CURVE",
"64 0 LINE",
"341 500 LINE",
"346 599 LINE"
);
},
{
closed = 1;
nodes = (
"539 468 LINE",
"296 44 LINE",
"314 34 LINE",
"314 254 OFFCURVE",
"406 513 OFFCURVE",
"406 548 CURVE SMOOTH",
"406 581 OFFCURVE",
"361 599 OFFCURVE",
"346 599 CURVE SMOOTH",
"346 599 OFFCURVE",
"259 293 OFFCURVE",
"259 69 CURVE SMOOTH",
"259 20 OFFCURVE",
"270 -10 OFFCURVE",
"308 -10 CURVE",
"317 -10 OFFCURVE",
"483 293 OFFCURVE",
"579 439 CURVE"
);
},
{
closed = 1;
nodes = (
"567 629 OFFCURVE",
"484 458 OFFCURVE",
"484 313 CURVE SMOOTH",
"484 131 OFFCURVE",
"531 -9 OFFCURVE",
"647 -9 CURVE SMOOTH",
"696 -9 OFFCURVE",
"932 348 OFFCURVE",
"937 363 CURVE SMOOTH",
"945 386 OFFCURVE",
"922 398 OFFCURVE",
"915 398 CURVE SMOOTH",
"915 398 OFFCURVE",
"653 27 OFFCURVE",
"637 27 CURVE SMOOTH",
"595 27 OFFCURVE",
"550 135 OFFCURVE",
"550 313 CURVE SMOOTH",
"550 422 OFFCURVE",
"581 498 OFFCURVE",
"581 512 CURVE",
"521 333 LINE",
"580 431 OFFCURVE",
"671 555 OFFCURVE",
"671 575 CURVE",
"671 595 OFFCURVE",
"640 629 OFFCURVE",
"601 629 CURVE SMOOTH"
);
}
);
width = 720;
}
);
unicode = 006D;
},
{
color = 3;
glyphname = n;
lastChange = "2016-08-20 02:44:02 +0000";
layers = (
{
background = {
backgroundImage = {
crop = "{{0, 0}, {122.09999999999999, 180.59999999999999}}";
imagePath = Skany/n.jpg;
transform = "{4.150, 0, 0, 4.150, -17, -115}";
};
};
layerId = "2CA0DBAD-D64B-45C4-9A33-36C1DBAC27D7";
paths = (
{
closed = 1;
nodes = (
"323 496 LINE",
"309 496 OFFCURVE",
"49 1 OFFCURVE",
"49 0 CURVE",
"46 60 LINE",
"46 95 OFFCURVE",
"299 593 OFFCURVE",
"324 593 CURVE"
);
},
{
closed = 1;
nodes = (
"350 593 OFFCURVE",
"386 575 OFFCURVE",
"386 543 CURVE SMOOTH",
"386 454 OFFCURVE",
"350 225 OFFCURVE",
"387 95 CURVE SMOOTH",
"397 60 OFFCURVE",
"415 42 OFFCURVE",
"434 42 CURVE SMOOTH",
"455 42 OFFCURVE",
"709 400 OFFCURVE",
"709 400 CURVE",
"722 400 OFFCURVE",
"734 398 OFFCURVE",
"734 375 CURVE SMOOTH",
"734 356 OFFCURVE",
"492 1 OFFCURVE",
"446 1 CURVE",
"396 1 OFFCURVE",
"361 29 OFFCURVE",
"338 73 CURVE SMOOTH",
"267 209 OFFCURVE",
"322 593 OFFCURVE",
"322 593 CURVE"
);
},
{
closed = 1;
nodes = (
"148 444 OFFCURVE",
"49 183 OFFCURVE",
"49 0 CURVE",
"30 0 OFFCURVE",
"3 7 OFFCURVE",
"3 45 CURVE SMOOTH",
"3 176 OFFCURVE",
"71 453 OFFCURVE",
"88 500 CURVE",
"109 500 OFFCURVE",
"148 489 OFFCURVE",
"148 460 CURVE SMOOTH"
);
}
);
width = 530;
},
{
associatedMasterId = "2CA0DBAD-D64B-45C4-9A33-36C1DBAC27D7";
layerId = "9653CD9C-D8B8-4B1F-9290-9962B0F598DD";
name = "Regular Aug 6 16, 20:29";
paths = (
{
closed = 1;
nodes = (
"161 447 OFFCURVE",
"77 115 OFFCURVE",
"77 68 CURVE",
"73 50 OFFCURVE",
"72 3 OFFCURVE",
"64 3 CURVE",
"56 3 OFFCURVE",
"25 20 OFFCURVE",
"32 44 CURVE SMOOTH",
"50 105 LINE",
"68 238 OFFCURVE",
"99 500 OFFCURVE",
"105 500 CURVE",
"126 500 OFFCURVE",
"161 482 OFFCURVE",
"161 463 CURVE SMOOTH"
);
},
{
closed = 1;
nodes = (
"316 465 LINE",
"302 465 OFFCURVE",
"72 121 OFFCURVE",
"72 30 CURVE",
"77 128 LINE",
"77 163 OFFCURVE",
"307 534 OFFCURVE",
"332 534 CURVE"
);
},
{
closed = 1;
nodes = (
"333 278 CURVE SMOOTH",
"333 58 OFFCURVE",
"400 0 OFFCURVE",
"414 0 CURVE",
"414 -5 OFFCURVE",
"404 -36 OFFCURVE",
"384 -36 CURVE SMOOTH",
"329 -36 OFFCURVE",
"271 112 OFFCURVE",
"271 321 CURVE SMOOTH",
"271 476 OFFCURVE",
"299 599 OFFCURVE",
"337 599 CURVE SMOOTH",
"348 599 OFFCURVE",
"400 560 OFFCURVE",
"400 541 CURVE SMOOTH",
"400 526 OFFCURVE",
"348 482 OFFCURVE",
"322 457 CURVE",
"353 504 LINE",
"353 496 OFFCURVE",
"333 483 OFFCURVE"
);
}
);
width = 480;
},
{
associatedMasterId = "2CA0DBAD-D64B-45C4-9A33-36C1DBAC27D7";
layerId = "9175673E-4657-41D4-89FA-0FD543F01C48";
name = "Regular Aug 7 16, 02:10";
paths = (
{
closed = 1;
nodes = (
"141 447 OFFCURVE",
"57 115 OFFCURVE",
"57 68 CURVE",
"53 50 OFFCURVE",
"52 3 OFFCURVE",
"44 3 CURVE",
"36 3 OFFCURVE",
"5 20 OFFCURVE",
"12 44 CURVE SMOOTH",
"30 105 LINE",
"48 238 OFFCURVE",
"79 500 OFFCURVE",
"85 500 CURVE",
"106 500 OFFCURVE",
"141 482 OFFCURVE",
"141 463 CURVE SMOOTH"
);
},
{
closed = 1;
nodes = (
"275 403 LINE",
"275 429 OFFCURVE",
"328 599 OFFCURVE",
"364 599 CURVE SMOOTH",
"379 599 OFFCURVE",
"422 578 OFFCURVE",
"422 556 CURVE",
"422 547 OFFCURVE",
"341 428 OFFCURVE",
"341 412 CURVE"
);
},
{
closed = 1;
nodes = (
"351 433 OFFCURVE",
"313 323 OFFCURVE",
"313 187 CURVE SMOOTH",
"313 68 OFFCURVE",
"361 25 OFFCURVE",
"377 25 CURVE SMOOTH",
"393 25 OFFCURVE",
"653 395 OFFCURVE",
"653 398 CURVE SMOOTH",
"653 401 OFFCURVE",
"674 397 OFFCURVE",
"674 383 CURVE SMOOTH",
"674 369 OFFCURVE",
"433 0 OFFCURVE",
"384 0 CURVE SMOOTH",
"314 0 OFFCURVE",
"262 74 OFFCURVE",
"262 235 CURVE SMOOTH",
"262 307 OFFCURVE",
"276 419 OFFCURVE",
"283 419 CURVE",
"318 419 OFFCURVE",
"351 465 OFFCURVE",
"351 447 CURVE"
);
},
{
closed = 1;
nodes = (
"306 425 LINE",
"292 425 OFFCURVE",
"50 105 OFFCURVE",
"50 14 CURVE",
"55 122 LINE",
"55 157 OFFCURVE",
"297 504 OFFCURVE",
"322 504 CURVE"
);
}
);
width = 530;
},
{
associatedMasterId = "2CA0DBAD-D64B-45C4-9A33-36C1DBAC27D7";
layerId = "83036F67-EA47-4A99-BC81-777A301AC1D4";
name = "Regular Aug 8 16, 00:24";
paths = (
{
closed = 1;
nodes = (
"321 500 LINE",
"307 500 OFFCURVE",
"47 4 OFFCURVE",
"47 3 CURVE",
"55 76 LINE",
"55 111 OFFCURVE",
"299 593 OFFCURVE",
"324 593 CURVE"
);
},
{
closed = 1;
nodes = (
"350 593 OFFCURVE",
"386 575 OFFCURVE",
"386 543 CURVE SMOOTH",
"386 454 OFFCURVE",
"358 245 OFFCURVE",
"407 73 CURVE SMOOTH",
"417 38 OFFCURVE",
"435 20 OFFCURVE",
"454 20 CURVE SMOOTH",
"475 20 OFFCURVE",
"709 400 OFFCURVE",
"709 400 CURVE",
"722 400 OFFCURVE",
"734 398 OFFCURVE",
"734 375 CURVE SMOOTH",
"734 356 OFFCURVE",
"512 -21 OFFCURVE",
"466 -21 CURVE",
"416 -21 OFFCURVE",
"381 7 OFFCURVE",
"358 51 CURVE SMOOTH",
"287 187 OFFCURVE",
"322 593 OFFCURVE",
"322 593 CURVE"
);
},
{
closed = 1;
nodes = (
"142 447 OFFCURVE",
"83 180 OFFCURVE",
"58 58 CURVE",
"54 40 OFFCURVE",
"47 3 OFFCURVE",
"47 3 CURVE",
"17 3 OFFCURVE",
"4 29 OFFCURVE",
"4 41 CURVE SMOOTH",
"4 46 OFFCURVE",
"10 57 OFFCURVE",
"13 64 CURVE",
"31 197 OFFCURVE",
"72 500 OFFCURVE",
"78 500 CURVE",
"99 500 OFFCURVE",
"142 482 OFFCURVE",
"142 463 CURVE SMOOTH"
);
}
);
width = 530;
}
);
unicode = 006E;
},
{
color = 3;
glyphname = o;
lastChange = "2016-08-20 09:28:22 +0000";
layers = (
{
associatedMasterId = "2CA0DBAD-D64B-45C4-9A33-36C1DBAC27D7";
background = {
backgroundImage = {
crop = "{{0, 0}, {141, 213.29999999999998}}";
imagePath = Skany/o2.jpg;
transform = "{3.760, 0, 0, 3.760, 9, -122}";
};
};
guideLines = (
{
angle = 90;
position = "{434, 585}";
},
{
angle = 90;
position = "{645, 677}";
}
);
layerId = "F88CBAC5-C816-4D4C-A4E2-F08DCA58561B";
name = "Regular Aug 7 16, 19:32";
paths = (
{
closed = 1;
nodes = (
"662 383 OFFCURVE",
"654 400 OFFCURVE",
"647 400 CURVE",
"647 400 OFFCURVE",
"400 225 OFFCURVE",
"194 225 CURVE SMOOTH",
"124 225 OFFCURVE",
"60 268 OFFCURVE",
"60 367 CURVE SMOOTH",
"60 476 OFFCURVE",
"174 561 OFFCURVE",
"276 561 CURVE SMOOTH",
"347 561 OFFCURVE",
"389 508 OFFCURVE",
"389 442 CURVE SMOOTH",
"389 210 OFFCURVE",
"183 26 OFFCURVE",
"175 26 CURVE",
"174 26 OFFCURVE",
"114 38 OFFCURVE",
"114 143 CURVE SMOOTH",
"114 230 OFFCURVE",
"177 358 OFFCURVE",
"177 368 CURVE",
"177 390 OFFCURVE",
"149 400 OFFCURVE",
"128 400 CURVE",
"128 400 OFFCURVE",
"62 328 OFFCURVE",
"62 155 CURVE SMOOTH",
"62 45 OFFCURVE",
"130 -9 OFFCURVE",
"193 -9 CURVE",
"253 -9 OFFCURVE",
"437 250 OFFCURVE",
"437 401 CURVE SMOOTH",
"437 523 OFFCURVE",
"376 600 OFFCURVE",
"261 600 CURVE SMOOTH",
"85 600 OFFCURVE",
"5 477 OFFCURVE",
"5 391 CURVE SMOOTH",
"5 257 OFFCURVE",
"80 186 OFFCURVE",
"179 186 CURVE SMOOTH",
"420 186 OFFCURVE",
"662 351 OFFCURVE",
"662 375 CURVE SMOOTH"
);
}
);
width = 480;
},
{
guideLines = (
{
angle = 90;
position = "{455, 585}";
},
{
angle = 90;
position = "{666, 677}";
}
);
layerId = "2CA0DBAD-D64B-45C4-9A33-36C1DBAC27D7";
paths = (
{
closed = 1;
nodes = (
"696 389 OFFCURVE",
"683 400 OFFCURVE",
"677 400 CURVE",
"677 400 OFFCURVE",
"485 226 OFFCURVE",
"224 226 CURVE SMOOTH",
"137 226 OFFCURVE",
"72 258 OFFCURVE",
"72 337 CURVE SMOOTH",
"72 463 OFFCURVE",
"215 555 OFFCURVE",
"328 555 CURVE SMOOTH",
"409 555 OFFCURVE",
"423 492 OFFCURVE",
"423 442 CURVE SMOOTH",
"423 270 OFFCURVE",
"229 30 OFFCURVE",
"218 31 CURVE",
"209 31 OFFCURVE",
"146 40 OFFCURVE",
"146 137 CURVE SMOOTH",
"146 224 OFFCURVE",
"223 352 OFFCURVE",
"223 362 CURVE",
"223 384 OFFCURVE",
"189 400 OFFCURVE",
"168 400 CURVE",
"168 400 OFFCURVE",
"92 303 OFFCURVE",
"92 155 CURVE SMOOTH",
"92 55 OFFCURVE",
"160 -9 OFFCURVE",
"223 -9 CURVE",
"266 -9 OFFCURVE",
"474 224 OFFCURVE",
"474 401 CURVE SMOOTH",
"474 513 OFFCURVE",
"425 600 OFFCURVE",
"301 600 CURVE SMOOTH",
"150 600 OFFCURVE",
"15 484 OFFCURVE",
"15 358 CURVE SMOOTH",
"15 253 OFFCURVE",
"110 184 OFFCURVE",
"234 184 CURVE SMOOTH",
"511 184 OFFCURVE",
"696 353 OFFCURVE",
"696 372 CURVE SMOOTH"
);
}
);
width = 501;
},
{
associatedMasterId = "2CA0DBAD-D64B-45C4-9A33-36C1DBAC27D7";
guideLines = (
{
angle = 90;
position = "{434, 585}";
},
{
angle = 90;
position = "{645, 677}";
}
);
layerId = "1C5CFEA8-4C0E-4776-89A2-5FF4BC312D3A";
name = "Regular Aug 9 16, 23:07";
paths = (
{
closed = 1;
nodes = (
"662 385 OFFCURVE",
"654 400 OFFCURVE",
"647 400 CURVE",
"647 400 OFFCURVE",
"400 225 OFFCURVE",
"194 225 CURVE SMOOTH",
"124 225 OFFCURVE",
"61 268 OFFCURVE",
"60 367 CURVE SMOOTH",
"59 455 OFFCURVE",
"149 558 OFFCURVE",
"276 558 CURVE SMOOTH",
"358 558 OFFCURVE",
"389 508 OFFCURVE",
"389 442 CURVE SMOOTH",
"389 210 OFFCURVE",
"183 25 OFFCURVE",
"175 25 CURVE",
"174 25 OFFCURVE",
"114 29 OFFCURVE",
"114 143 CURVE SMOOTH",
"114 230 OFFCURVE",
"177 358 OFFCURVE",
"177 368 CURVE",
"177 390 OFFCURVE",
"149 400 OFFCURVE",
"128 400 CURVE",
"128 400 OFFCURVE",
"62 328 OFFCURVE",
"62 155 CURVE SMOOTH",
"62 45 OFFCURVE",
"130 -9 OFFCURVE",
"193 -9 CURVE",
"253 -9 OFFCURVE",
"434 250 OFFCURVE",
"434 401 CURVE SMOOTH",
"434 523 OFFCURVE",
"376 600 OFFCURVE",
"261 600 CURVE SMOOTH",
"80 600 OFFCURVE",
"5 477 OFFCURVE",
"5 391 CURVE SMOOTH",
"5 256 OFFCURVE",
"80 184 OFFCURVE",
"179 184 CURVE SMOOTH",
"420 184 OFFCURVE",
"662 353 OFFCURVE",
"662 377 CURVE SMOOTH"
);
}
);
width = 480;
},
{
associatedMasterId = "2CA0DBAD-D64B-45C4-9A33-36C1DBAC27D7";
guideLines = (
{
angle = 90;
position = "{434, 585}";
},
{
angle = 90;
position = "{645, 677}";
}
);
layerId = "1910506F-5B78-42F4-8B3C-1916CC59E138";
name = "Regular Aug 17 16, 22:32";
paths = (
{
closed = 1;
nodes = (
"662 392 OFFCURVE",
"653 400 OFFCURVE",
"646 400 CURVE",
"646 400 OFFCURVE",
"417 226 OFFCURVE",
"193 226 CURVE SMOOTH",
"123 226 OFFCURVE",
"60 268 OFFCURVE",
"59 367 CURVE SMOOTH",
"58 455 OFFCURVE",
"148 558 OFFCURVE",
"275 558 CURVE SMOOTH",
"357 558 OFFCURVE",
"389 508 OFFCURVE",
"389 442 CURVE SMOOTH",
"389 210 OFFCURVE",
"190 33 OFFCURVE",
"182 33 CURVE",
"181 33 OFFCURVE",
"116 37 OFFCURVE",
"116 143 CURVE SMOOTH",
"116 230 OFFCURVE",
"176 358 OFFCURVE",
"176 368 CURVE",
"176 390 OFFCURVE",
"148 400 OFFCURVE",
"127 400 CURVE",
"127 400 OFFCURVE",
"61 328 OFFCURVE",
"61 155 CURVE SMOOTH",
"61 45 OFFCURVE",
"129 -9 OFFCURVE",
"192 -9 CURVE",
"252 -9 OFFCURVE",
"443 250 OFFCURVE",
"443 401 CURVE SMOOTH",
"443 523 OFFCURVE",
"375 600 OFFCURVE",
"260 600 CURVE SMOOTH",
"79 600 OFFCURVE",
"4 477 OFFCURVE",
"4 391 CURVE SMOOTH",
"4 256 OFFCURVE",
"79 184 OFFCURVE",
"178 184 CURVE SMOOTH",
"419 184 OFFCURVE",
"662 353 OFFCURVE",
"662 377 CURVE SMOOTH"
);
}
);
width = 480;
},
{
associatedMasterId = "2CA0DBAD-D64B-45C4-9A33-36C1DBAC27D7";
guideLines = (
{
angle = 90;
position = "{434, 585}";
},
{
angle = 90;
position = "{645, 677}";
}
);
layerId = "4BDB1BC4-28BC-4542-9C32-513EC09F51B9";
name = "Regular Aug 17 16, 23:42";
paths = (
{
closed = 1;
nodes = (
"672 392 OFFCURVE",
"663 400 OFFCURVE",
"656 400 CURVE",
"656 400 OFFCURVE",
"427 214 OFFCURVE",
"203 226 CURVE SMOOTH",
"126 230 OFFCURVE",
"69 278 OFFCURVE",
"69 347 CURVE SMOOTH",
"69 453 OFFCURVE",
"168 558 OFFCURVE",
"285 558 CURVE SMOOTH",
"366 558 OFFCURVE",
"399 508 OFFCURVE",
"399 442 CURVE SMOOTH",
"399 210 OFFCURVE",
"200 33 OFFCURVE",
"192 33 CURVE",
"191 33 OFFCURVE",
"126 37 OFFCURVE",
"126 143 CURVE SMOOTH",
"126 230 OFFCURVE",
"186 358 OFFCURVE",
"186 368 CURVE",
"186 390 OFFCURVE",
"158 400 OFFCURVE",
"137 400 CURVE",
"137 400 OFFCURVE",
"71 328 OFFCURVE",
"71 155 CURVE SMOOTH",
"71 45 OFFCURVE",
"139 -9 OFFCURVE",
"202 -9 CURVE",
"262 -9 OFFCURVE",
"453 250 OFFCURVE",
"453 401 CURVE SMOOTH",
"453 523 OFFCURVE",
"394 600 OFFCURVE",
"270 600 CURVE SMOOTH",
"99 600 OFFCURVE",
"14 454 OFFCURVE",
"14 368 CURVE SMOOTH",
"14 263 OFFCURVE",
"89 184 OFFCURVE",
"188 184 CURVE SMOOTH",
"429 184 OFFCURVE",
"672 353 OFFCURVE",
"672 377 CURVE SMOOTH"
);
}
);
width = 480;
}
);
unicode = 006F;
},
{
color = 3;
glyphname = p;
lastChange = "2016-08-20 08:29:38 +0000";
layers = (
{
background = {
backgroundImage = {
crop = "{{0, 0}, {134.69999999999999, 269.69999999999999}}";
imagePath = "Skany/p+grid.jpg";
transform = "{4.248, 0, 0, 4.248, -9.545, -388.242}";
};
};
layerId = "2CA0DBAD-D64B-45C4-9A33-36C1DBAC27D7";
paths = (
{
closed = 1;
nodes = (
"10 -207 OFFCURVE",
"28 -224 OFFCURVE",
"57 -224 CURVE",
"39 -104 OFFCURVE",
"243 532 OFFCURVE",
"245 560 CURVE SMOOTH",
"247 589 OFFCURVE",
"212 603 OFFCURVE",
"186 599 CURVE",
"178 598 OFFCURVE",
"10 -5 OFFCURVE",
"10 -169 CURVE SMOOTH"
);
},
{
closed = 1;
nodes = (
"209 205 OFFCURVE",
"460 359 OFFCURVE",
"745 359 CURVE",
"753 370 OFFCURVE",
"748 400 OFFCURVE",
"713 400 CURVE",
"483 400 OFFCURVE",
"171 273 OFFCURVE",
"171 80 CURVE SMOOTH",
"171 25 OFFCURVE",
"212 -12 OFFCURVE",
"256 -12 CURVE SMOOTH",
"326 -12 OFFCURVE",
"532 218 OFFCURVE",
"532 401 CURVE SMOOTH",
"532 500 OFFCURVE",
"493 598 OFFCURVE",
"384 598 CURVE SMOOTH",
"319 598 OFFCURVE",
"136 320 OFFCURVE",
"96 142 CURVE",
"115 96 LINE",
"173 331 OFFCURVE",
"373 558 OFFCURVE",
"398 558 CURVE SMOOTH",
"460 558 OFFCURVE",
"478 491 OFFCURVE",
"478 442 CURVE SMOOTH",
"478 262 OFFCURVE",
"292 28 OFFCURVE",
"244 28 CURVE SMOOTH",
"230 28 OFFCURVE",
"209 39 OFFCURVE",
"209 78 CURVE"
);
}
);
width = 540;
},
{
associatedMasterId = "2CA0DBAD-D64B-45C4-9A33-36C1DBAC27D7";
layerId = "E6E295F8-8064-4375-8987-533C7BFBC8B4";
name = "Regular Aug 6 16, 20:17";
paths = (
{
closed = 1;
nodes = (
"335 403 LINE",
"335 429 OFFCURVE",
"388 599 OFFCURVE",
"424 599 CURVE SMOOTH",
"439 599 OFFCURVE",
"482 578 OFFCURVE",
"482 556 CURVE",
"482 547 OFFCURVE",
"401 428 OFFCURVE",
"401 412 CURVE"
);
},
{
closed = 1;
nodes = (
"201 447 OFFCURVE",
"142 180 OFFCURVE",
"117 58 CURVE",
"113 40 OFFCURVE",
"71 -219 OFFCURVE",
"63 -219 CURVE",
"55 -219 OFFCURVE",
"-7 -166 OFFCURVE",
"8 -140 CURVE SMOOTH",
"57 -54 LINE",
"75 79 OFFCURVE",
"139 500 OFFCURVE",
"145 500 CURVE",
"166 500 OFFCURVE",
"201 482 OFFCURVE",
"201 463 CURVE SMOOTH"
);
},
{
closed = 1;
nodes = (
"411 433 OFFCURVE",
"373 273 OFFCURVE",
"373 137 CURVE SMOOTH",
"373 57 OFFCURVE",
"401 25 OFFCURVE",
"417 25 CURVE SMOOTH",
"433 25 OFFCURVE",
"693 395 OFFCURVE",
"693 398 CURVE SMOOTH",
"693 401 OFFCURVE",
"714 397 OFFCURVE",
"714 383 CURVE SMOOTH",
"714 369 OFFCURVE",
"473 0 OFFCURVE",
"424 0 CURVE SMOOTH",
"354 0 OFFCURVE",
"322 63 OFFCURVE",
"322 185 CURVE SMOOTH",
"322 257 OFFCURVE",
"336 419 OFFCURVE",
"343 419 CURVE",
"378 419 OFFCURVE",
"411 465 OFFCURVE",
"411 447 CURVE"
);
},
{
closed = 1;
nodes = (
"366 425 LINE",
"352 425 OFFCURVE",
"102 51 OFFCURVE",
"102 -40 CURVE",
"107 68 LINE",
"107 103 OFFCURVE",
"357 504 OFFCURVE",
"382 504 CURVE"
);
}
);
width = 560;
},
{
associatedMasterId = "2CA0DBAD-D64B-45C4-9A33-36C1DBAC27D7";
layerId = "54C50D5E-47AE-4157-A81A-7FA053D38634";
name = "Regular Aug 18 16, 22:59";
paths = (
{
closed = 1;
nodes = (
"335 403 LINE",
"335 429 OFFCURVE",
"388 599 OFFCURVE",
"424 599 CURVE SMOOTH",
"439 599 OFFCURVE",
"482 578 OFFCURVE",
"482 556 CURVE",
"482 547 OFFCURVE",
"401 428 OFFCURVE",
"401 412 CURVE"
);
},
{
closed = 1;
nodes = (
"201 447 OFFCURVE",
"142 180 OFFCURVE",
"117 58 CURVE",
"113 40 OFFCURVE",
"71 -219 OFFCURVE",
"63 -219 CURVE",
"55 -219 OFFCURVE",
"0 -176 OFFCURVE",
"10 -149 CURVE SMOOTH",
"64 0 LINE",
"82 133 OFFCURVE",
"139 500 OFFCURVE",
"145 500 CURVE",
"166 500 OFFCURVE",
"201 482 OFFCURVE",
"201 463 CURVE SMOOTH"
);
},
{
closed = 1;
nodes = (
"411 433 OFFCURVE",
"373 323 OFFCURVE",
"373 187 CURVE SMOOTH",
"373 68 OFFCURVE",
"421 25 OFFCURVE",
"437 25 CURVE SMOOTH",
"453 25 OFFCURVE",
"713 395 OFFCURVE",
"713 398 CURVE SMOOTH",
"713 401 OFFCURVE",
"734 397 OFFCURVE",
"734 383 CURVE SMOOTH",
"734 369 OFFCURVE",
"493 0 OFFCURVE",
"444 0 CURVE SMOOTH",
"374 0 OFFCURVE",
"322 74 OFFCURVE",
"322 235 CURVE SMOOTH",
"322 307 OFFCURVE",
"336 419 OFFCURVE",
"343 419 CURVE",
"378 419 OFFCURVE",
"411 465 OFFCURVE",
"411 447 CURVE"
);
},
{
closed = 1;
nodes = (
"366 425 LINE",
"352 425 OFFCURVE",
"102 51 OFFCURVE",
"102 -40 CURVE",
"107 68 LINE",
"107 103 OFFCURVE",
"357 504 OFFCURVE",
"382 504 CURVE"
);
},
{
closed = 1;
nodes = (
"87 -224 LINE",
"69 -104 OFFCURVE",
"205 435 OFFCURVE",
"201 463 CURVE SMOOTH",
"196 495 OFFCURVE",
"163 503 OFFCURVE",
"137 499 CURVE",
"129 498 OFFCURVE",
"10 -61 OFFCURVE",
"34 -224 CURVE"
);
}
);
width = 580;
},
{
associatedMasterId = "2CA0DBAD-D64B-45C4-9A33-36C1DBAC27D7";
layerId = "9BDBE087-03AA-42D9-8399-170B0BC576F7";
name = "Regular Aug 18 16, 23:17";
paths = (
{
closed = 1;
nodes = (
"336 425 LINE"
);
},
{
closed = 1;
nodes = (
"10 -207 OFFCURVE",
"28 -224 OFFCURVE",
"57 -224 CURVE",
"39 -104 OFFCURVE",
"213 432 OFFCURVE",
"215 460 CURVE SMOOTH",
"217 489 OFFCURVE",
"182 503 OFFCURVE",
"156 499 CURVE",
"148 498 OFFCURVE",
"10 -5 OFFCURVE",
"10 -169 CURVE SMOOTH"
);
},
{
closed = 1;
nodes = (
"38 -178 LINE",
"57 -224 LINE",
"305 330 LINE",
"300 435 LINE"
);
},
{
closed = 1;
nodes = (
"357 629 OFFCURVE",
"274 458 OFFCURVE",
"274 313 CURVE SMOOTH",
"274 131 OFFCURVE",
"321 -9 OFFCURVE",
"437 -9 CURVE SMOOTH",
"486 -9 OFFCURVE",
"722 348 OFFCURVE",
"727 363 CURVE SMOOTH",
"735 386 OFFCURVE",
"712 398 OFFCURVE",
"705 398 CURVE SMOOTH",
"705 398 OFFCURVE",
"443 27 OFFCURVE",
"427 27 CURVE SMOOTH",
"385 27 OFFCURVE",
"340 135 OFFCURVE",
"340 313 CURVE SMOOTH",
"340 422 OFFCURVE",
"371 498 OFFCURVE",
"371 512 CURVE",
"311 333 LINE",
"370 431 OFFCURVE",
"461 555 OFFCURVE",
"461 575 CURVE",
"461 595 OFFCURVE",
"430 629 OFFCURVE",
"391 629 CURVE SMOOTH"
);
}
);
width = 550;
},
{
associatedMasterId = "2CA0DBAD-D64B-45C4-9A33-36C1DBAC27D7";
components = (
{
name = j_petelka;
transform = "{-0.8744, 0.117, -0.117, -0.8744, 235, 208}";
}
);
layerId = "0115F0F5-2E19-45EB-BFD5-3B79463155EC";
name = "Regular Aug 20 16, 03:29";
paths = (
{
closed = 1;
nodes = (
"10 -207 OFFCURVE",
"28 -224 OFFCURVE",
"57 -224 CURVE",
"39 -104 OFFCURVE",
"213 432 OFFCURVE",
"215 460 CURVE SMOOTH",
"217 489 OFFCURVE",
"182 503 OFFCURVE",
"156 499 CURVE",
"148 498 OFFCURVE",
"10 -5 OFFCURVE",
"10 -169 CURVE SMOOTH"
);
},
{
closed = 1;
nodes = (
"300 599 OFFCURVE",
"215 460 OFFCURVE",
"41 -59 CURVE",
"60 -105 LINE",
"244 353 OFFCURVE",
"340 554 OFFCURVE",
"365 554 CURVE",
"417 554 OFFCURVE",
"440 564 OFFCURVE",
"440 430 CURVE SMOOTH",
"440 298 OFFCURVE",
"317 42 OFFCURVE",
"255 42 CURVE SMOOTH",
"219 42 OFFCURVE",
"170 77 OFFCURVE",
"139 92 CURVE",
"107 54 LINE",
"141 40 OFFCURVE",
"209 2 OFFCURVE",
"260 2 CURVE SMOOTH",
"354 2 OFFCURVE",
"491 252 OFFCURVE",
"491 389 CURVE SMOOTH",
"491 541 OFFCURVE",
"478 599 OFFCURVE",
"354 599 CURVE SMOOTH"
);
}
);
width = 550;
},
{
associatedMasterId = "2CA0DBAD-D64B-45C4-9A33-36C1DBAC27D7";
layerId = "87D1B6F8-BA5F-4177-ABA4-662C2BB8915C";
name = "Regular Aug 20 16, 10:26";
paths = (
{
closed = 1;
nodes = (
"10 -207 OFFCURVE",
"28 -224 OFFCURVE",
"57 -224 CURVE",
"39 -104 OFFCURVE",
"243 532 OFFCURVE",
"245 560 CURVE SMOOTH",
"247 589 OFFCURVE",
"212 603 OFFCURVE",
"186 599 CURVE",
"178 598 OFFCURVE",
"10 -5 OFFCURVE",
"10 -169 CURVE SMOOTH"
);
},
{
closed = 1;
nodes = (
"189 176 OFFCURVE",
"460 359 OFFCURVE",
"745 359 CURVE",
"753 370 OFFCURVE",
"748 400 OFFCURVE",
"713 400 CURVE",
"483 400 OFFCURVE",
"151 244 OFFCURVE",
"151 51 CURVE SMOOTH",
"151 15 OFFCURVE",
"191 0 OFFCURVE",
"220 0 CURVE SMOOTH",
"317 0 OFFCURVE",
"499 267 OFFCURVE",
"499 450 CURVE SMOOTH",
"499 517 OFFCURVE",
"493 598 OFFCURVE",
"394 598 CURVE SMOOTH",
"311 598 OFFCURVE",
"136 320 OFFCURVE",
"96 142 CURVE",
"115 96 LINE",
"173 331 OFFCURVE",
"380 559 OFFCURVE",
"405 559 CURVE SMOOTH",
"432 559 OFFCURVE",
"448 540 OFFCURVE",
"448 491 CURVE SMOOTH",
"448 313 OFFCURVE",
"280 40 OFFCURVE",
"215 40 CURVE SMOOTH",
"201 40 OFFCURVE",
"189 42 OFFCURVE",
"189 49 CURVE"
);
}
);
width = 540;
visible = 1;
}
);
unicode = 0070;
},
